%TF.GenerationSoftware,KiCad,Pcbnew,7.0.5*%
%TF.CreationDate,2024-01-28T13:12:26+09:00*%
%TF.ProjectId,standard_30x80,7374616e-6461-4726-945f-33307838302e,rev?*%
%TF.SameCoordinates,Original*%
%TF.FileFunction,Drillmap*%
%TF.FilePolarity,Positive*%
%FSLAX45Y45*%
G04 Gerber Fmt 4.5, Leading zero omitted, Abs format (unit mm)*
G04 Created by KiCad (PCBNEW 7.0.5) date 2024-01-28 13:12:26*
%MOMM*%
%LPD*%
G01*
G04 APERTURE LIST*
%ADD10C,0.100000*%
%ADD11C,0.050000*%
%ADD12C,0.200000*%
G04 APERTURE END LIST*
D10*
X15270000Y-9040000D02*
X9140000Y-9040000D01*
D11*
X9140000Y-5940000D02*
X9140000Y-9040000D01*
D10*
X15220000Y-5940000D02*
X9140000Y-5940000D01*
X15220000Y-9040000D02*
G75*
G03*
X15220000Y-5940000I0J1550000D01*
G01*
D12*
X9350000Y-6160000D02*
X9550000Y-6360000D01*
X9550000Y-6160000D02*
X9350000Y-6360000D01*
X9350000Y-7420000D02*
X9550000Y-7620000D01*
X9550000Y-7420000D02*
X9350000Y-7620000D01*
X9350000Y-8670000D02*
X9550000Y-8870000D01*
X9550000Y-8670000D02*
X9350000Y-8870000D01*
X9395777Y-9356484D02*
X9395777Y-9156484D01*
X9395777Y-9156484D02*
X9443396Y-9156484D01*
X9443396Y-9156484D02*
X9471967Y-9166008D01*
X9471967Y-9166008D02*
X9491015Y-9185055D01*
X9491015Y-9185055D02*
X9500539Y-9204103D01*
X9500539Y-9204103D02*
X9510063Y-9242198D01*
X9510063Y-9242198D02*
X9510063Y-9270770D01*
X9510063Y-9270770D02*
X9500539Y-9308865D01*
X9500539Y-9308865D02*
X9491015Y-9327912D01*
X9491015Y-9327912D02*
X9471967Y-9346960D01*
X9471967Y-9346960D02*
X9443396Y-9356484D01*
X9443396Y-9356484D02*
X9395777Y-9356484D01*
X9595777Y-9356484D02*
X9595777Y-9223150D01*
X9595777Y-9261246D02*
X9605301Y-9242198D01*
X9605301Y-9242198D02*
X9614824Y-9232674D01*
X9614824Y-9232674D02*
X9633872Y-9223150D01*
X9633872Y-9223150D02*
X9652920Y-9223150D01*
X9719586Y-9356484D02*
X9719586Y-9223150D01*
X9719586Y-9156484D02*
X9710063Y-9166008D01*
X9710063Y-9166008D02*
X9719586Y-9175531D01*
X9719586Y-9175531D02*
X9729110Y-9166008D01*
X9729110Y-9166008D02*
X9719586Y-9156484D01*
X9719586Y-9156484D02*
X9719586Y-9175531D01*
X9843396Y-9356484D02*
X9824348Y-9346960D01*
X9824348Y-9346960D02*
X9814824Y-9327912D01*
X9814824Y-9327912D02*
X9814824Y-9156484D01*
X9948158Y-9356484D02*
X9929110Y-9346960D01*
X9929110Y-9346960D02*
X9919586Y-9327912D01*
X9919586Y-9327912D02*
X9919586Y-9156484D01*
X10176729Y-9356484D02*
X10176729Y-9156484D01*
X10176729Y-9156484D02*
X10243396Y-9299341D01*
X10243396Y-9299341D02*
X10310063Y-9156484D01*
X10310063Y-9156484D02*
X10310063Y-9356484D01*
X10491015Y-9356484D02*
X10491015Y-9251722D01*
X10491015Y-9251722D02*
X10481491Y-9232674D01*
X10481491Y-9232674D02*
X10462444Y-9223150D01*
X10462444Y-9223150D02*
X10424348Y-9223150D01*
X10424348Y-9223150D02*
X10405301Y-9232674D01*
X10491015Y-9346960D02*
X10471967Y-9356484D01*
X10471967Y-9356484D02*
X10424348Y-9356484D01*
X10424348Y-9356484D02*
X10405301Y-9346960D01*
X10405301Y-9346960D02*
X10395777Y-9327912D01*
X10395777Y-9327912D02*
X10395777Y-9308865D01*
X10395777Y-9308865D02*
X10405301Y-9289817D01*
X10405301Y-9289817D02*
X10424348Y-9280293D01*
X10424348Y-9280293D02*
X10471967Y-9280293D01*
X10471967Y-9280293D02*
X10491015Y-9270770D01*
X10586253Y-9223150D02*
X10586253Y-9423150D01*
X10586253Y-9232674D02*
X10605301Y-9223150D01*
X10605301Y-9223150D02*
X10643396Y-9223150D01*
X10643396Y-9223150D02*
X10662444Y-9232674D01*
X10662444Y-9232674D02*
X10671967Y-9242198D01*
X10671967Y-9242198D02*
X10681491Y-9261246D01*
X10681491Y-9261246D02*
X10681491Y-9318389D01*
X10681491Y-9318389D02*
X10671967Y-9337436D01*
X10671967Y-9337436D02*
X10662444Y-9346960D01*
X10662444Y-9346960D02*
X10643396Y-9356484D01*
X10643396Y-9356484D02*
X10605301Y-9356484D01*
X10605301Y-9356484D02*
X10586253Y-9346960D01*
X10767205Y-9337436D02*
X10776729Y-9346960D01*
X10776729Y-9346960D02*
X10767205Y-9356484D01*
X10767205Y-9356484D02*
X10757682Y-9346960D01*
X10757682Y-9346960D02*
X10767205Y-9337436D01*
X10767205Y-9337436D02*
X10767205Y-9356484D01*
X10767205Y-9232674D02*
X10776729Y-9242198D01*
X10776729Y-9242198D02*
X10767205Y-9251722D01*
X10767205Y-9251722D02*
X10757682Y-9242198D01*
X10757682Y-9242198D02*
X10767205Y-9232674D01*
X10767205Y-9232674D02*
X10767205Y-9251722D01*
X8935000Y-9585000D02*
X9135000Y-9785000D01*
X9135000Y-9585000D02*
X8935000Y-9785000D01*
X9386253Y-9595531D02*
X9395777Y-9586008D01*
X9395777Y-9586008D02*
X9414824Y-9576484D01*
X9414824Y-9576484D02*
X9462444Y-9576484D01*
X9462444Y-9576484D02*
X9481491Y-9586008D01*
X9481491Y-9586008D02*
X9491015Y-9595531D01*
X9491015Y-9595531D02*
X9500539Y-9614579D01*
X9500539Y-9614579D02*
X9500539Y-9633627D01*
X9500539Y-9633627D02*
X9491015Y-9662198D01*
X9491015Y-9662198D02*
X9376729Y-9776484D01*
X9376729Y-9776484D02*
X9500539Y-9776484D01*
X9586253Y-9757436D02*
X9595777Y-9766960D01*
X9595777Y-9766960D02*
X9586253Y-9776484D01*
X9586253Y-9776484D02*
X9576729Y-9766960D01*
X9576729Y-9766960D02*
X9586253Y-9757436D01*
X9586253Y-9757436D02*
X9586253Y-9776484D01*
X9719586Y-9576484D02*
X9738634Y-9576484D01*
X9738634Y-9576484D02*
X9757682Y-9586008D01*
X9757682Y-9586008D02*
X9767205Y-9595531D01*
X9767205Y-9595531D02*
X9776729Y-9614579D01*
X9776729Y-9614579D02*
X9786253Y-9652674D01*
X9786253Y-9652674D02*
X9786253Y-9700293D01*
X9786253Y-9700293D02*
X9776729Y-9738389D01*
X9776729Y-9738389D02*
X9767205Y-9757436D01*
X9767205Y-9757436D02*
X9757682Y-9766960D01*
X9757682Y-9766960D02*
X9738634Y-9776484D01*
X9738634Y-9776484D02*
X9719586Y-9776484D01*
X9719586Y-9776484D02*
X9700539Y-9766960D01*
X9700539Y-9766960D02*
X9691015Y-9757436D01*
X9691015Y-9757436D02*
X9681491Y-9738389D01*
X9681491Y-9738389D02*
X9671967Y-9700293D01*
X9671967Y-9700293D02*
X9671967Y-9652674D01*
X9671967Y-9652674D02*
X9681491Y-9614579D01*
X9681491Y-9614579D02*
X9691015Y-9595531D01*
X9691015Y-9595531D02*
X9700539Y-9586008D01*
X9700539Y-9586008D02*
X9719586Y-9576484D01*
X9910063Y-9576484D02*
X9929110Y-9576484D01*
X9929110Y-9576484D02*
X9948158Y-9586008D01*
X9948158Y-9586008D02*
X9957682Y-9595531D01*
X9957682Y-9595531D02*
X9967205Y-9614579D01*
X9967205Y-9614579D02*
X9976729Y-9652674D01*
X9976729Y-9652674D02*
X9976729Y-9700293D01*
X9976729Y-9700293D02*
X9967205Y-9738389D01*
X9967205Y-9738389D02*
X9957682Y-9757436D01*
X9957682Y-9757436D02*
X9948158Y-9766960D01*
X9948158Y-9766960D02*
X9929110Y-9776484D01*
X9929110Y-9776484D02*
X9910063Y-9776484D01*
X9910063Y-9776484D02*
X9891015Y-9766960D01*
X9891015Y-9766960D02*
X9881491Y-9757436D01*
X9881491Y-9757436D02*
X9871967Y-9738389D01*
X9871967Y-9738389D02*
X9862444Y-9700293D01*
X9862444Y-9700293D02*
X9862444Y-9652674D01*
X9862444Y-9652674D02*
X9871967Y-9614579D01*
X9871967Y-9614579D02*
X9881491Y-9595531D01*
X9881491Y-9595531D02*
X9891015Y-9586008D01*
X9891015Y-9586008D02*
X9910063Y-9576484D01*
X10100539Y-9576484D02*
X10119586Y-9576484D01*
X10119586Y-9576484D02*
X10138634Y-9586008D01*
X10138634Y-9586008D02*
X10148158Y-9595531D01*
X10148158Y-9595531D02*
X10157682Y-9614579D01*
X10157682Y-9614579D02*
X10167205Y-9652674D01*
X10167205Y-9652674D02*
X10167205Y-9700293D01*
X10167205Y-9700293D02*
X10157682Y-9738389D01*
X10157682Y-9738389D02*
X10148158Y-9757436D01*
X10148158Y-9757436D02*
X10138634Y-9766960D01*
X10138634Y-9766960D02*
X10119586Y-9776484D01*
X10119586Y-9776484D02*
X10100539Y-9776484D01*
X10100539Y-9776484D02*
X10081491Y-9766960D01*
X10081491Y-9766960D02*
X10071967Y-9757436D01*
X10071967Y-9757436D02*
X10062444Y-9738389D01*
X10062444Y-9738389D02*
X10052920Y-9700293D01*
X10052920Y-9700293D02*
X10052920Y-9652674D01*
X10052920Y-9652674D02*
X10062444Y-9614579D01*
X10062444Y-9614579D02*
X10071967Y-9595531D01*
X10071967Y-9595531D02*
X10081491Y-9586008D01*
X10081491Y-9586008D02*
X10100539Y-9576484D01*
X10252920Y-9776484D02*
X10252920Y-9643150D01*
X10252920Y-9662198D02*
X10262444Y-9652674D01*
X10262444Y-9652674D02*
X10281491Y-9643150D01*
X10281491Y-9643150D02*
X10310063Y-9643150D01*
X10310063Y-9643150D02*
X10329110Y-9652674D01*
X10329110Y-9652674D02*
X10338634Y-9671722D01*
X10338634Y-9671722D02*
X10338634Y-9776484D01*
X10338634Y-9671722D02*
X10348158Y-9652674D01*
X10348158Y-9652674D02*
X10367205Y-9643150D01*
X10367205Y-9643150D02*
X10395777Y-9643150D01*
X10395777Y-9643150D02*
X10414825Y-9652674D01*
X10414825Y-9652674D02*
X10424348Y-9671722D01*
X10424348Y-9671722D02*
X10424348Y-9776484D01*
X10519586Y-9776484D02*
X10519586Y-9643150D01*
X10519586Y-9662198D02*
X10529110Y-9652674D01*
X10529110Y-9652674D02*
X10548158Y-9643150D01*
X10548158Y-9643150D02*
X10576729Y-9643150D01*
X10576729Y-9643150D02*
X10595777Y-9652674D01*
X10595777Y-9652674D02*
X10605301Y-9671722D01*
X10605301Y-9671722D02*
X10605301Y-9776484D01*
X10605301Y-9671722D02*
X10614825Y-9652674D01*
X10614825Y-9652674D02*
X10633872Y-9643150D01*
X10633872Y-9643150D02*
X10662444Y-9643150D01*
X10662444Y-9643150D02*
X10681491Y-9652674D01*
X10681491Y-9652674D02*
X10691015Y-9671722D01*
X10691015Y-9671722D02*
X10691015Y-9776484D01*
X11081491Y-9566960D02*
X10910063Y-9824103D01*
X11338634Y-9576484D02*
X11357682Y-9576484D01*
X11357682Y-9576484D02*
X11376729Y-9586008D01*
X11376729Y-9586008D02*
X11386253Y-9595531D01*
X11386253Y-9595531D02*
X11395777Y-9614579D01*
X11395777Y-9614579D02*
X11405301Y-9652674D01*
X11405301Y-9652674D02*
X11405301Y-9700293D01*
X11405301Y-9700293D02*
X11395777Y-9738389D01*
X11395777Y-9738389D02*
X11386253Y-9757436D01*
X11386253Y-9757436D02*
X11376729Y-9766960D01*
X11376729Y-9766960D02*
X11357682Y-9776484D01*
X11357682Y-9776484D02*
X11338634Y-9776484D01*
X11338634Y-9776484D02*
X11319586Y-9766960D01*
X11319586Y-9766960D02*
X11310063Y-9757436D01*
X11310063Y-9757436D02*
X11300539Y-9738389D01*
X11300539Y-9738389D02*
X11291015Y-9700293D01*
X11291015Y-9700293D02*
X11291015Y-9652674D01*
X11291015Y-9652674D02*
X11300539Y-9614579D01*
X11300539Y-9614579D02*
X11310063Y-9595531D01*
X11310063Y-9595531D02*
X11319586Y-9586008D01*
X11319586Y-9586008D02*
X11338634Y-9576484D01*
X11491015Y-9757436D02*
X11500539Y-9766960D01*
X11500539Y-9766960D02*
X11491015Y-9776484D01*
X11491015Y-9776484D02*
X11481491Y-9766960D01*
X11481491Y-9766960D02*
X11491015Y-9757436D01*
X11491015Y-9757436D02*
X11491015Y-9776484D01*
X11624348Y-9576484D02*
X11643396Y-9576484D01*
X11643396Y-9576484D02*
X11662444Y-9586008D01*
X11662444Y-9586008D02*
X11671967Y-9595531D01*
X11671967Y-9595531D02*
X11681491Y-9614579D01*
X11681491Y-9614579D02*
X11691015Y-9652674D01*
X11691015Y-9652674D02*
X11691015Y-9700293D01*
X11691015Y-9700293D02*
X11681491Y-9738389D01*
X11681491Y-9738389D02*
X11671967Y-9757436D01*
X11671967Y-9757436D02*
X11662444Y-9766960D01*
X11662444Y-9766960D02*
X11643396Y-9776484D01*
X11643396Y-9776484D02*
X11624348Y-9776484D01*
X11624348Y-9776484D02*
X11605301Y-9766960D01*
X11605301Y-9766960D02*
X11595777Y-9757436D01*
X11595777Y-9757436D02*
X11586253Y-9738389D01*
X11586253Y-9738389D02*
X11576729Y-9700293D01*
X11576729Y-9700293D02*
X11576729Y-9652674D01*
X11576729Y-9652674D02*
X11586253Y-9614579D01*
X11586253Y-9614579D02*
X11595777Y-9595531D01*
X11595777Y-9595531D02*
X11605301Y-9586008D01*
X11605301Y-9586008D02*
X11624348Y-9576484D01*
X11757682Y-9576484D02*
X11891015Y-9576484D01*
X11891015Y-9576484D02*
X11805301Y-9776484D01*
X11995777Y-9662198D02*
X11976729Y-9652674D01*
X11976729Y-9652674D02*
X11967206Y-9643150D01*
X11967206Y-9643150D02*
X11957682Y-9624103D01*
X11957682Y-9624103D02*
X11957682Y-9614579D01*
X11957682Y-9614579D02*
X11967206Y-9595531D01*
X11967206Y-9595531D02*
X11976729Y-9586008D01*
X11976729Y-9586008D02*
X11995777Y-9576484D01*
X11995777Y-9576484D02*
X12033872Y-9576484D01*
X12033872Y-9576484D02*
X12052920Y-9586008D01*
X12052920Y-9586008D02*
X12062444Y-9595531D01*
X12062444Y-9595531D02*
X12071967Y-9614579D01*
X12071967Y-9614579D02*
X12071967Y-9624103D01*
X12071967Y-9624103D02*
X12062444Y-9643150D01*
X12062444Y-9643150D02*
X12052920Y-9652674D01*
X12052920Y-9652674D02*
X12033872Y-9662198D01*
X12033872Y-9662198D02*
X11995777Y-9662198D01*
X11995777Y-9662198D02*
X11976729Y-9671722D01*
X11976729Y-9671722D02*
X11967206Y-9681246D01*
X11967206Y-9681246D02*
X11957682Y-9700293D01*
X11957682Y-9700293D02*
X11957682Y-9738389D01*
X11957682Y-9738389D02*
X11967206Y-9757436D01*
X11967206Y-9757436D02*
X11976729Y-9766960D01*
X11976729Y-9766960D02*
X11995777Y-9776484D01*
X11995777Y-9776484D02*
X12033872Y-9776484D01*
X12033872Y-9776484D02*
X12052920Y-9766960D01*
X12052920Y-9766960D02*
X12062444Y-9757436D01*
X12062444Y-9757436D02*
X12071967Y-9738389D01*
X12071967Y-9738389D02*
X12071967Y-9700293D01*
X12071967Y-9700293D02*
X12062444Y-9681246D01*
X12062444Y-9681246D02*
X12052920Y-9671722D01*
X12052920Y-9671722D02*
X12033872Y-9662198D01*
X12138634Y-9576484D02*
X12271967Y-9576484D01*
X12271967Y-9576484D02*
X12186253Y-9776484D01*
X12338634Y-9576484D02*
X12338634Y-9614579D01*
X12414825Y-9576484D02*
X12414825Y-9614579D01*
X12710063Y-9852674D02*
X12700539Y-9843150D01*
X12700539Y-9843150D02*
X12681491Y-9814579D01*
X12681491Y-9814579D02*
X12671968Y-9795531D01*
X12671968Y-9795531D02*
X12662444Y-9766960D01*
X12662444Y-9766960D02*
X12652920Y-9719341D01*
X12652920Y-9719341D02*
X12652920Y-9681246D01*
X12652920Y-9681246D02*
X12662444Y-9633627D01*
X12662444Y-9633627D02*
X12671968Y-9605055D01*
X12671968Y-9605055D02*
X12681491Y-9586008D01*
X12681491Y-9586008D02*
X12700539Y-9557436D01*
X12700539Y-9557436D02*
X12710063Y-9547912D01*
X12767206Y-9576484D02*
X12891015Y-9576484D01*
X12891015Y-9576484D02*
X12824348Y-9652674D01*
X12824348Y-9652674D02*
X12852920Y-9652674D01*
X12852920Y-9652674D02*
X12871968Y-9662198D01*
X12871968Y-9662198D02*
X12881491Y-9671722D01*
X12881491Y-9671722D02*
X12891015Y-9690770D01*
X12891015Y-9690770D02*
X12891015Y-9738389D01*
X12891015Y-9738389D02*
X12881491Y-9757436D01*
X12881491Y-9757436D02*
X12871968Y-9766960D01*
X12871968Y-9766960D02*
X12852920Y-9776484D01*
X12852920Y-9776484D02*
X12795777Y-9776484D01*
X12795777Y-9776484D02*
X12776729Y-9766960D01*
X12776729Y-9766960D02*
X12767206Y-9757436D01*
X13129110Y-9776484D02*
X13129110Y-9576484D01*
X13214825Y-9776484D02*
X13214825Y-9671722D01*
X13214825Y-9671722D02*
X13205301Y-9652674D01*
X13205301Y-9652674D02*
X13186253Y-9643150D01*
X13186253Y-9643150D02*
X13157682Y-9643150D01*
X13157682Y-9643150D02*
X13138634Y-9652674D01*
X13138634Y-9652674D02*
X13129110Y-9662198D01*
X13338634Y-9776484D02*
X13319587Y-9766960D01*
X13319587Y-9766960D02*
X13310063Y-9757436D01*
X13310063Y-9757436D02*
X13300539Y-9738389D01*
X13300539Y-9738389D02*
X13300539Y-9681246D01*
X13300539Y-9681246D02*
X13310063Y-9662198D01*
X13310063Y-9662198D02*
X13319587Y-9652674D01*
X13319587Y-9652674D02*
X13338634Y-9643150D01*
X13338634Y-9643150D02*
X13367206Y-9643150D01*
X13367206Y-9643150D02*
X13386253Y-9652674D01*
X13386253Y-9652674D02*
X13395777Y-9662198D01*
X13395777Y-9662198D02*
X13405301Y-9681246D01*
X13405301Y-9681246D02*
X13405301Y-9738389D01*
X13405301Y-9738389D02*
X13395777Y-9757436D01*
X13395777Y-9757436D02*
X13386253Y-9766960D01*
X13386253Y-9766960D02*
X13367206Y-9776484D01*
X13367206Y-9776484D02*
X13338634Y-9776484D01*
X13519587Y-9776484D02*
X13500539Y-9766960D01*
X13500539Y-9766960D02*
X13491015Y-9747912D01*
X13491015Y-9747912D02*
X13491015Y-9576484D01*
X13671968Y-9766960D02*
X13652920Y-9776484D01*
X13652920Y-9776484D02*
X13614825Y-9776484D01*
X13614825Y-9776484D02*
X13595777Y-9766960D01*
X13595777Y-9766960D02*
X13586253Y-9747912D01*
X13586253Y-9747912D02*
X13586253Y-9671722D01*
X13586253Y-9671722D02*
X13595777Y-9652674D01*
X13595777Y-9652674D02*
X13614825Y-9643150D01*
X13614825Y-9643150D02*
X13652920Y-9643150D01*
X13652920Y-9643150D02*
X13671968Y-9652674D01*
X13671968Y-9652674D02*
X13681491Y-9671722D01*
X13681491Y-9671722D02*
X13681491Y-9690770D01*
X13681491Y-9690770D02*
X13586253Y-9709817D01*
X13757682Y-9766960D02*
X13776730Y-9776484D01*
X13776730Y-9776484D02*
X13814825Y-9776484D01*
X13814825Y-9776484D02*
X13833872Y-9766960D01*
X13833872Y-9766960D02*
X13843396Y-9747912D01*
X13843396Y-9747912D02*
X13843396Y-9738389D01*
X13843396Y-9738389D02*
X13833872Y-9719341D01*
X13833872Y-9719341D02*
X13814825Y-9709817D01*
X13814825Y-9709817D02*
X13786253Y-9709817D01*
X13786253Y-9709817D02*
X13767206Y-9700293D01*
X13767206Y-9700293D02*
X13757682Y-9681246D01*
X13757682Y-9681246D02*
X13757682Y-9671722D01*
X13757682Y-9671722D02*
X13767206Y-9652674D01*
X13767206Y-9652674D02*
X13786253Y-9643150D01*
X13786253Y-9643150D02*
X13814825Y-9643150D01*
X13814825Y-9643150D02*
X13833872Y-9652674D01*
X13910063Y-9852674D02*
X13919587Y-9843150D01*
X13919587Y-9843150D02*
X13938634Y-9814579D01*
X13938634Y-9814579D02*
X13948158Y-9795531D01*
X13948158Y-9795531D02*
X13957682Y-9766960D01*
X13957682Y-9766960D02*
X13967206Y-9719341D01*
X13967206Y-9719341D02*
X13967206Y-9681246D01*
X13967206Y-9681246D02*
X13957682Y-9633627D01*
X13957682Y-9633627D02*
X13948158Y-9605055D01*
X13948158Y-9605055D02*
X13938634Y-9586008D01*
X13938634Y-9586008D02*
X13919587Y-9557436D01*
X13919587Y-9557436D02*
X13910063Y-9547912D01*
M02*
