%TF.GenerationSoftware,KiCad,Pcbnew,7.0.5*%
%TF.CreationDate,2024-02-18T20:54:15+09:00*%
%TF.ProjectId,tdc-tdt-kicad,7464632d-7464-4742-9d6b-696361642e6b,rev?*%
%TF.SameCoordinates,Original*%
%TF.FileFunction,Paste,Top*%
%TF.FilePolarity,Positive*%
%FSLAX46Y46*%
G04 Gerber Fmt 4.6, Leading zero omitted, Abs format (unit mm)*
G04 Created by KiCad (PCBNEW 7.0.5) date 2024-02-18 20:54:15*
%MOMM*%
%LPD*%
G01*
G04 APERTURE LIST*
G04 Aperture macros list*
%AMRoundRect*
0 Rectangle with rounded corners*
0 $1 Rounding radius*
0 $2 $3 $4 $5 $6 $7 $8 $9 X,Y pos of 4 corners*
0 Add a 4 corners polygon primitive as box body*
4,1,4,$2,$3,$4,$5,$6,$7,$8,$9,$2,$3,0*
0 Add four circle primitives for the rounded corners*
1,1,$1+$1,$2,$3*
1,1,$1+$1,$4,$5*
1,1,$1+$1,$6,$7*
1,1,$1+$1,$8,$9*
0 Add four rect primitives between the rounded corners*
20,1,$1+$1,$2,$3,$4,$5,0*
20,1,$1+$1,$4,$5,$6,$7,0*
20,1,$1+$1,$6,$7,$8,$9,0*
20,1,$1+$1,$8,$9,$2,$3,0*%
G04 Aperture macros list end*
%ADD10R,0.750000X1.000000*%
%ADD11RoundRect,0.150000X-0.150000X0.587500X-0.150000X-0.587500X0.150000X-0.587500X0.150000X0.587500X0*%
%ADD12RoundRect,0.150000X-0.587500X-0.150000X0.587500X-0.150000X0.587500X0.150000X-0.587500X0.150000X0*%
%ADD13RoundRect,0.150000X0.150000X-0.587500X0.150000X0.587500X-0.150000X0.587500X-0.150000X-0.587500X0*%
%ADD14RoundRect,0.112500X0.112500X-0.187500X0.112500X0.187500X-0.112500X0.187500X-0.112500X-0.187500X0*%
%ADD15RoundRect,0.112500X0.187500X0.112500X-0.187500X0.112500X-0.187500X-0.112500X0.187500X-0.112500X0*%
%ADD16RoundRect,0.200000X-0.275000X0.200000X-0.275000X-0.200000X0.275000X-0.200000X0.275000X0.200000X0*%
%ADD17RoundRect,0.135000X0.185000X-0.135000X0.185000X0.135000X-0.185000X0.135000X-0.185000X-0.135000X0*%
%ADD18RoundRect,0.135000X0.135000X0.185000X-0.135000X0.185000X-0.135000X-0.185000X0.135000X-0.185000X0*%
%ADD19RoundRect,0.135000X-0.135000X-0.185000X0.135000X-0.185000X0.135000X0.185000X-0.135000X0.185000X0*%
%ADD20RoundRect,0.140000X0.170000X-0.140000X0.170000X0.140000X-0.170000X0.140000X-0.170000X-0.140000X0*%
%ADD21RoundRect,0.200000X0.275000X-0.200000X0.275000X0.200000X-0.275000X0.200000X-0.275000X-0.200000X0*%
%ADD22RoundRect,0.140000X-0.170000X0.140000X-0.170000X-0.140000X0.170000X-0.140000X0.170000X0.140000X0*%
%ADD23RoundRect,0.218750X-0.256250X0.218750X-0.256250X-0.218750X0.256250X-0.218750X0.256250X0.218750X0*%
%ADD24R,0.450000X1.475000*%
%ADD25RoundRect,0.140000X-0.140000X-0.170000X0.140000X-0.170000X0.140000X0.170000X-0.140000X0.170000X0*%
%ADD26RoundRect,0.140000X0.140000X0.170000X-0.140000X0.170000X-0.140000X-0.170000X0.140000X-0.170000X0*%
%ADD27R,1.200000X1.400000*%
%ADD28RoundRect,0.225000X0.225000X0.250000X-0.225000X0.250000X-0.225000X-0.250000X0.225000X-0.250000X0*%
%ADD29R,1.050000X0.400000*%
%ADD30R,1.100000X0.400000*%
%ADD31RoundRect,0.225000X-0.225000X-0.250000X0.225000X-0.250000X0.225000X0.250000X-0.225000X0.250000X0*%
%ADD32RoundRect,0.150000X-0.512500X-0.150000X0.512500X-0.150000X0.512500X0.150000X-0.512500X0.150000X0*%
%ADD33RoundRect,0.249999X0.395001X-0.395001X0.395001X0.395001X-0.395001X0.395001X-0.395001X-0.395001X0*%
%ADD34RoundRect,0.050000X0.050000X-0.387500X0.050000X0.387500X-0.050000X0.387500X-0.050000X-0.387500X0*%
%ADD35RoundRect,0.050000X0.387500X-0.050000X0.387500X0.050000X-0.387500X0.050000X-0.387500X-0.050000X0*%
%ADD36R,0.300000X0.900000*%
%ADD37R,1.650000X0.250000*%
%ADD38RoundRect,0.218750X0.256250X-0.218750X0.256250X0.218750X-0.256250X0.218750X-0.256250X-0.218750X0*%
%ADD39RoundRect,0.225000X0.250000X-0.225000X0.250000X0.225000X-0.250000X0.225000X-0.250000X-0.225000X0*%
%ADD40R,1.140000X0.600000*%
%ADD41R,1.140000X0.300000*%
%ADD42RoundRect,0.218750X-0.218750X-0.256250X0.218750X-0.256250X0.218750X0.256250X-0.218750X0.256250X0*%
%ADD43RoundRect,0.135000X-0.185000X0.135000X-0.185000X-0.135000X0.185000X-0.135000X0.185000X0.135000X0*%
G04 APERTURE END LIST*
D10*
%TO.C,S1*%
X151775000Y-75900000D03*
X151775000Y-81900000D03*
X148025000Y-75900000D03*
X148025000Y-81900000D03*
%TD*%
D11*
%TO.C,Q4*%
X156550000Y-78762500D03*
X154650000Y-78762500D03*
X155600000Y-80637500D03*
%TD*%
D12*
%TO.C,Q3*%
X159562500Y-78850000D03*
X159562500Y-80750000D03*
X161437500Y-79800000D03*
%TD*%
D13*
%TO.C,Q1*%
X132000000Y-78400000D03*
X133900000Y-78400000D03*
X132950000Y-76525000D03*
%TD*%
D14*
%TO.C,D3*%
X164600000Y-74850000D03*
X164600000Y-72750000D03*
%TD*%
D15*
%TO.C,D1*%
X133950000Y-80800000D03*
X131850000Y-80800000D03*
%TD*%
D14*
%TO.C,D4*%
X157200000Y-62650000D03*
X157200000Y-60550000D03*
%TD*%
D16*
%TO.C,R2*%
X140500000Y-57550000D03*
X140500000Y-59200000D03*
%TD*%
%TO.C,R1*%
X138700000Y-57575000D03*
X138700000Y-59225000D03*
%TD*%
D17*
%TO.C,R10*%
X158000000Y-80310000D03*
X158000000Y-79290000D03*
%TD*%
D18*
%TO.C,R9*%
X156290000Y-76800000D03*
X157310000Y-76800000D03*
%TD*%
D19*
%TO.C,R5*%
X154090000Y-76800000D03*
X155110000Y-76800000D03*
%TD*%
D17*
%TO.C,R15*%
X145800000Y-59310000D03*
X145800000Y-58290000D03*
%TD*%
D20*
%TO.C,C13*%
X157000000Y-73280000D03*
X157000000Y-72320000D03*
%TD*%
D21*
%TO.C,R19*%
X155400000Y-62425000D03*
X155400000Y-60775000D03*
%TD*%
D22*
%TO.C,C10*%
X143620000Y-72680000D03*
X143620000Y-73640000D03*
%TD*%
D23*
%TO.C,D2*%
X142200000Y-54912500D03*
X142200000Y-56487500D03*
%TD*%
D20*
%TO.C,C14*%
X155600000Y-73280000D03*
X155600000Y-72320000D03*
%TD*%
D24*
%TO.C,IC2*%
X156700000Y-64374000D03*
X156050000Y-64374000D03*
X155400000Y-64374000D03*
X154750000Y-64374000D03*
X154100000Y-64374000D03*
X153450000Y-64374000D03*
X152800000Y-64374000D03*
X152800000Y-70250000D03*
X153450000Y-70250000D03*
X154100000Y-70250000D03*
X154750000Y-70250000D03*
X155400000Y-70250000D03*
X156050000Y-70250000D03*
X156700000Y-70250000D03*
%TD*%
D25*
%TO.C,C27*%
X162720000Y-54600000D03*
X163680000Y-54600000D03*
%TD*%
D20*
%TO.C,C9*%
X143600000Y-62080000D03*
X143600000Y-61120000D03*
%TD*%
D22*
%TO.C,C22*%
X142712500Y-78024227D03*
X142712500Y-77064227D03*
%TD*%
D26*
%TO.C,C1*%
X136680000Y-67260000D03*
X135720000Y-67260000D03*
%TD*%
D27*
%TO.C,Y1*%
X150350000Y-66400000D03*
X150350000Y-64200000D03*
X148650000Y-64200000D03*
X148650000Y-66400000D03*
%TD*%
D28*
%TO.C,C23*%
X140742500Y-81444227D03*
X142292500Y-81444227D03*
%TD*%
D20*
%TO.C,C21*%
X144350000Y-53680000D03*
X144350000Y-52720000D03*
%TD*%
D29*
%TO.C,IC6*%
X153650000Y-54700000D03*
X153650000Y-55350000D03*
X153650000Y-56000000D03*
X155550000Y-56000000D03*
X155550000Y-54700000D03*
%TD*%
D24*
%TO.C,IC5*%
X158725000Y-70188000D03*
X159375000Y-70188000D03*
X160025000Y-70188000D03*
X160675000Y-70188000D03*
X161325000Y-70188000D03*
X161975000Y-70188000D03*
X162625000Y-70188000D03*
X163275000Y-70188000D03*
X163275000Y-64312000D03*
X162625000Y-64312000D03*
X161975000Y-64312000D03*
X161325000Y-64312000D03*
X160675000Y-64312000D03*
X160025000Y-64312000D03*
X159375000Y-64312000D03*
X158725000Y-64312000D03*
%TD*%
D18*
%TO.C,R13*%
X149220000Y-68000000D03*
X148200000Y-68000000D03*
%TD*%
D22*
%TO.C,C20*%
X153600000Y-51920000D03*
X153600000Y-52880000D03*
%TD*%
D26*
%TO.C,C4*%
X150880000Y-62600000D03*
X149920000Y-62600000D03*
%TD*%
D20*
%TO.C,C8*%
X141000000Y-62480000D03*
X141000000Y-61520000D03*
%TD*%
%TO.C,C12*%
X142400000Y-62080000D03*
X142400000Y-61120000D03*
%TD*%
D30*
%TO.C,U3*%
X146000000Y-53825000D03*
X146000000Y-54475000D03*
X146000000Y-55125000D03*
X146000000Y-55775000D03*
X150300000Y-55775000D03*
X150300000Y-55125000D03*
X150300000Y-54475000D03*
X150300000Y-53825000D03*
%TD*%
D31*
%TO.C,C24*%
X145407500Y-81434227D03*
X143857500Y-81434227D03*
%TD*%
D21*
%TO.C,R20*%
X153400000Y-62425000D03*
X153400000Y-60775000D03*
%TD*%
D32*
%TO.C,U4*%
X141050000Y-77594227D03*
X141050000Y-78544227D03*
X141050000Y-79494227D03*
X138775000Y-79494227D03*
X138775000Y-78544227D03*
X138775000Y-77594227D03*
%TD*%
D22*
%TO.C,C7*%
X140050000Y-72690000D03*
X140050000Y-73650000D03*
%TD*%
D33*
%TO.C,U2*%
X141850000Y-68362500D03*
X143450000Y-68362500D03*
X141850000Y-66762500D03*
X143450000Y-66762500D03*
D34*
X140050000Y-71000000D03*
X140450000Y-71000000D03*
X140850000Y-71000000D03*
X141250000Y-71000000D03*
X141650000Y-71000000D03*
X142050000Y-71000000D03*
X142450000Y-71000000D03*
X142850000Y-71000000D03*
X143250000Y-71000000D03*
X143650000Y-71000000D03*
X144050000Y-71000000D03*
X144450000Y-71000000D03*
X144850000Y-71000000D03*
X145250000Y-71000000D03*
D35*
X146087500Y-70162500D03*
X146087500Y-69762500D03*
X146087500Y-69362500D03*
X146087500Y-68962500D03*
X146087500Y-68562500D03*
X146087500Y-68162500D03*
X146087500Y-67762500D03*
X146087500Y-67362500D03*
X146087500Y-66962500D03*
X146087500Y-66562500D03*
X146087500Y-66162500D03*
X146087500Y-65762500D03*
X146087500Y-65362500D03*
X146087500Y-64962500D03*
D34*
X145250000Y-64125000D03*
X144850000Y-64125000D03*
X144450000Y-64125000D03*
X144050000Y-64125000D03*
X143650000Y-64125000D03*
X143250000Y-64125000D03*
X142850000Y-64125000D03*
X142450000Y-64125000D03*
X142050000Y-64125000D03*
X141650000Y-64125000D03*
X141250000Y-64125000D03*
X140850000Y-64125000D03*
X140450000Y-64125000D03*
X140050000Y-64125000D03*
D35*
X139212500Y-64962500D03*
X139212500Y-65362500D03*
X139212500Y-65762500D03*
X139212500Y-66162500D03*
X139212500Y-66562500D03*
X139212500Y-66962500D03*
X139212500Y-67362500D03*
X139212500Y-67762500D03*
X139212500Y-68162500D03*
X139212500Y-68562500D03*
X139212500Y-68962500D03*
X139212500Y-69362500D03*
X139212500Y-69762500D03*
X139212500Y-70162500D03*
%TD*%
D19*
%TO.C,R6*%
X159290000Y-76800000D03*
X160310000Y-76800000D03*
%TD*%
D18*
%TO.C,R14*%
X143990000Y-75900000D03*
X145010000Y-75900000D03*
%TD*%
D36*
%TO.C,IC1*%
X135300000Y-71800000D03*
X135800000Y-71800000D03*
X136300000Y-71800000D03*
X136800000Y-71800000D03*
X136800000Y-69000000D03*
X136300000Y-69000000D03*
X135800000Y-69000000D03*
X135300000Y-69000000D03*
D37*
X136050000Y-70400000D03*
%TD*%
D20*
%TO.C,C3*%
X136400000Y-65880000D03*
X136400000Y-64920000D03*
%TD*%
D25*
%TO.C,C5*%
X148120000Y-62600000D03*
X149080000Y-62600000D03*
%TD*%
D22*
%TO.C,C16*%
X144400000Y-55120000D03*
X144400000Y-56080000D03*
%TD*%
D25*
%TO.C,C2*%
X148200000Y-69150000D03*
X149160000Y-69150000D03*
%TD*%
D19*
%TO.C,R4*%
X138690000Y-53800000D03*
X139710000Y-53800000D03*
%TD*%
D17*
%TO.C,R8*%
X142200000Y-59200000D03*
X142200000Y-58180000D03*
%TD*%
D38*
%TO.C,F1*%
X135400000Y-81187500D03*
X135400000Y-79612500D03*
%TD*%
D31*
%TO.C,C18*%
X139067500Y-81414227D03*
X137517500Y-81414227D03*
%TD*%
D17*
%TO.C,R16*%
X147100000Y-59310000D03*
X147100000Y-58290000D03*
%TD*%
D25*
%TO.C,C19*%
X162500000Y-62570000D03*
X163460000Y-62570000D03*
%TD*%
D20*
%TO.C,C6*%
X139800000Y-62480000D03*
X139800000Y-61520000D03*
%TD*%
D22*
%TO.C,C15*%
X151950000Y-53920000D03*
X151950000Y-54880000D03*
%TD*%
D26*
%TO.C,C25*%
X156180000Y-52000000D03*
X155220000Y-52000000D03*
%TD*%
D24*
%TO.C,IC4*%
X157500000Y-57938000D03*
X158150000Y-57938000D03*
X158800000Y-57938000D03*
X159450000Y-57938000D03*
X160100000Y-57938000D03*
X160750000Y-57938000D03*
X161400000Y-57938000D03*
X161400000Y-52062000D03*
X160750000Y-52062000D03*
X160100000Y-52062000D03*
X159450000Y-52062000D03*
X158800000Y-52062000D03*
X158150000Y-52062000D03*
X157500000Y-52062000D03*
%TD*%
D39*
%TO.C,C17*%
X136912500Y-78169227D03*
X136912500Y-79719227D03*
%TD*%
D40*
%TO.C,U1*%
X136430000Y-53400000D03*
X136430000Y-54200000D03*
D41*
X136430000Y-54850000D03*
X136430000Y-55350000D03*
X136430000Y-55850000D03*
X136430000Y-56350000D03*
X136430000Y-56850000D03*
X136430000Y-57350000D03*
X136430000Y-57850000D03*
X136430000Y-58350000D03*
D40*
X136430000Y-59000000D03*
X136430000Y-59800000D03*
%TD*%
D20*
%TO.C,C11*%
X135000000Y-65880000D03*
X135000000Y-64920000D03*
%TD*%
D19*
%TO.C,R3*%
X138690000Y-55200000D03*
X139710000Y-55200000D03*
%TD*%
D26*
%TO.C,C26*%
X156150000Y-53200000D03*
X155190000Y-53200000D03*
%TD*%
D42*
%TO.C,L1*%
X144500000Y-79344227D03*
X142925000Y-79344227D03*
%TD*%
D43*
%TO.C,R7*%
X151950000Y-51890000D03*
X151950000Y-52910000D03*
%TD*%
M02*
