M48
; DRILL file {KiCad 7.0.5} date Sun Feb 18 20:54:15 2024
; FORMAT={-:-/ absolute / inch / decimal}
; #@! TF.CreationDate,2024-02-18T20:54:15+09:00
; #@! TF.GenerationSoftware,Kicad,Pcbnew,7.0.5
; #@! TF.FileFunction,Plated,1,4,PTH
FMAT,2
INCH
; #@! TA.AperFunction,Plated,PTH,ViaDrill
T1C0.0138
; #@! TA.AperFunction,Plated,PTH,ViaDrill
T2C0.0157
; #@! TA.AperFunction,Plated,PTH,ComponentDrill
T3C0.0236
; #@! TA.AperFunction,Plated,PTH,ComponentDrill
T4C0.0394
; #@! TA.AperFunction,Plated,PTH,ComponentDrill
T5C0.0787
%
G90
G05
T1
X5.1949Y-3.0768
X5.315Y-2.6772
X5.3465Y-2.5559
X5.3563Y-2.7717
X5.3701Y-2.3229
X5.3713Y-2.1339
X5.4162Y-2.8935
X5.4299Y-2.6607
X5.5108Y-2.4935
X5.5118Y-2.9213
X5.5138Y-2.8346
X5.5276Y-2.5984
X5.5906Y-2.9528
X5.6489Y-2.8369
X5.6772Y-2.9055
X5.6988Y-2.6376
X5.7146Y-2.2126
X5.7229Y-2.094
X5.7933Y-2.6129
X5.8031Y-2.9882
X5.8102Y-2.723
X6.0157Y-2.0441
X6.0453Y-2.2283
X6.0472Y-2.2913
X6.0492Y-2.1181
X6.1417Y-2.5276
X6.1575Y-2.885
X6.1654Y-2.3819
X6.1693Y-2.4803
X6.3055Y-2.9213
X6.3524Y-2.3307
X6.3771Y-2.4634
X6.4126Y-2.8142
X6.4545Y-2.4825
T2
X5.1181Y-2.9921
X5.1181Y-3.0906
X5.1181Y-3.189
X5.1772Y-3.2677
X5.1969Y-2.0079
X5.2992Y-3.2717
X5.3903Y-3.0372
X5.4311Y-3.2734
X5.4331Y-2.0079
X5.4375Y-3.0293
X5.4926Y-3.0293
X5.5004Y-2.1496
X5.5084Y-3.2065
X5.5276Y-2.422
X5.541Y-3.171
X5.5512Y-2.0079
X5.5689Y-3.2734
X5.5709Y-2.6142
X5.5709Y-2.6594
X5.5709Y-2.7047
X5.5984Y-2.1216
X5.6161Y-2.6142
X5.6161Y-2.6594
X5.6161Y-2.7047
X5.6299Y-2.4063
X5.6344Y-3.2065
X5.6614Y-2.6142
X5.6614Y-2.6594
X5.6614Y-2.7047
X5.685Y-2.1417
X5.689Y-3.1553
X5.7603Y-3.2025
X5.7854Y-2.0079
X5.7913Y-2.335
X5.8524Y-2.6142
X5.8898Y-2.4646
X5.8937Y-2.7244
X5.9193Y-2.0866
X5.9213Y-2.5276
X5.9232Y-2.0079
X6.0Y-2.5276
X6.0591Y-3.1024
X6.0787Y-2.3937
X6.1004Y-2.0079
X6.1762Y-2.7953
X6.1791Y-2.0472
X6.2283Y-3.0236
X6.2283Y-3.2126
X6.252Y-3.189
X6.3071Y-2.8307
X6.378Y-3.2677
X6.4764Y-2.0079
X6.4961Y-2.3622
X6.5157Y-3.2677
X6.6142Y-2.0079
X6.6339Y-2.3425
X6.6339Y-2.4213
X6.6339Y-2.874
X6.6339Y-2.9528
X6.6339Y-3.2677
T4
X5.1969Y-2.5661
X5.1969Y-2.6661
X5.1969Y-2.7661
X5.1969Y-2.8661
T3
G00X5.1685Y-2.0583
M15
G01X5.2Y-2.0583
M16
G05
G00X5.1685Y-2.3984
M15
G01X5.2Y-2.3984
M16
G05
G00X5.3272Y-2.0583
M15
G01X5.3705Y-2.0583
M16
G05
G00X5.3272Y-2.3984
M15
G01X5.3705Y-2.3984
M16
G05
T5
G00X6.5748Y-2.1457
M15
G01X6.5748Y-2.1457
M16
G05
G00X6.5748Y-2.6378
M15
G01X6.5748Y-2.6378
M16
G05
G00X6.5748Y-3.1299
M15
G01X6.5748Y-3.1299
M16
G05
T0
M30
