%TF.GenerationSoftware,KiCad,Pcbnew,7.0.5*%
%TF.CreationDate,2024-02-18T20:54:14+09:00*%
%TF.ProjectId,tdc-tdt-kicad,7464632d-7464-4742-9d6b-696361642e6b,rev?*%
%TF.SameCoordinates,Original*%
%TF.FileFunction,Copper,L1,Top*%
%TF.FilePolarity,Positive*%
%FSLAX46Y46*%
G04 Gerber Fmt 4.6, Leading zero omitted, Abs format (unit mm)*
G04 Created by KiCad (PCBNEW 7.0.5) date 2024-02-18 20:54:14*
%MOMM*%
%LPD*%
G01*
G04 APERTURE LIST*
G04 Aperture macros list*
%AMRoundRect*
0 Rectangle with rounded corners*
0 $1 Rounding radius*
0 $2 $3 $4 $5 $6 $7 $8 $9 X,Y pos of 4 corners*
0 Add a 4 corners polygon primitive as box body*
4,1,4,$2,$3,$4,$5,$6,$7,$8,$9,$2,$3,0*
0 Add four circle primitives for the rounded corners*
1,1,$1+$1,$2,$3*
1,1,$1+$1,$4,$5*
1,1,$1+$1,$6,$7*
1,1,$1+$1,$8,$9*
0 Add four rect primitives between the rounded corners*
20,1,$1+$1,$2,$3,$4,$5,0*
20,1,$1+$1,$4,$5,$6,$7,0*
20,1,$1+$1,$6,$7,$8,$9,0*
20,1,$1+$1,$8,$9,$2,$3,0*%
G04 Aperture macros list end*
%TA.AperFunction,SMDPad,CuDef*%
%ADD10R,0.750000X1.000000*%
%TD*%
%TA.AperFunction,SMDPad,CuDef*%
%ADD11RoundRect,0.150000X-0.150000X0.587500X-0.150000X-0.587500X0.150000X-0.587500X0.150000X0.587500X0*%
%TD*%
%TA.AperFunction,SMDPad,CuDef*%
%ADD12RoundRect,0.150000X-0.587500X-0.150000X0.587500X-0.150000X0.587500X0.150000X-0.587500X0.150000X0*%
%TD*%
%TA.AperFunction,SMDPad,CuDef*%
%ADD13RoundRect,0.150000X0.150000X-0.587500X0.150000X0.587500X-0.150000X0.587500X-0.150000X-0.587500X0*%
%TD*%
%TA.AperFunction,SMDPad,CuDef*%
%ADD14RoundRect,0.112500X0.112500X-0.187500X0.112500X0.187500X-0.112500X0.187500X-0.112500X-0.187500X0*%
%TD*%
%TA.AperFunction,SMDPad,CuDef*%
%ADD15RoundRect,0.112500X0.187500X0.112500X-0.187500X0.112500X-0.187500X-0.112500X0.187500X-0.112500X0*%
%TD*%
%TA.AperFunction,SMDPad,CuDef*%
%ADD16RoundRect,0.200000X-0.275000X0.200000X-0.275000X-0.200000X0.275000X-0.200000X0.275000X0.200000X0*%
%TD*%
%TA.AperFunction,SMDPad,CuDef*%
%ADD17RoundRect,0.135000X0.185000X-0.135000X0.185000X0.135000X-0.185000X0.135000X-0.185000X-0.135000X0*%
%TD*%
%TA.AperFunction,SMDPad,CuDef*%
%ADD18RoundRect,0.135000X0.135000X0.185000X-0.135000X0.185000X-0.135000X-0.185000X0.135000X-0.185000X0*%
%TD*%
%TA.AperFunction,SMDPad,CuDef*%
%ADD19RoundRect,0.135000X-0.135000X-0.185000X0.135000X-0.185000X0.135000X0.185000X-0.135000X0.185000X0*%
%TD*%
%TA.AperFunction,SMDPad,CuDef*%
%ADD20RoundRect,0.140000X0.170000X-0.140000X0.170000X0.140000X-0.170000X0.140000X-0.170000X-0.140000X0*%
%TD*%
%TA.AperFunction,SMDPad,CuDef*%
%ADD21RoundRect,0.200000X0.275000X-0.200000X0.275000X0.200000X-0.275000X0.200000X-0.275000X-0.200000X0*%
%TD*%
%TA.AperFunction,SMDPad,CuDef*%
%ADD22RoundRect,0.140000X-0.170000X0.140000X-0.170000X-0.140000X0.170000X-0.140000X0.170000X0.140000X0*%
%TD*%
%TA.AperFunction,SMDPad,CuDef*%
%ADD23RoundRect,0.218750X-0.256250X0.218750X-0.256250X-0.218750X0.256250X-0.218750X0.256250X0.218750X0*%
%TD*%
%TA.AperFunction,SMDPad,CuDef*%
%ADD24R,0.450000X1.475000*%
%TD*%
%TA.AperFunction,SMDPad,CuDef*%
%ADD25RoundRect,0.140000X-0.140000X-0.170000X0.140000X-0.170000X0.140000X0.170000X-0.140000X0.170000X0*%
%TD*%
%TA.AperFunction,SMDPad,CuDef*%
%ADD26RoundRect,0.140000X0.140000X0.170000X-0.140000X0.170000X-0.140000X-0.170000X0.140000X-0.170000X0*%
%TD*%
%TA.AperFunction,SMDPad,CuDef*%
%ADD27R,1.200000X1.400000*%
%TD*%
%TA.AperFunction,SMDPad,CuDef*%
%ADD28RoundRect,0.225000X0.225000X0.250000X-0.225000X0.250000X-0.225000X-0.250000X0.225000X-0.250000X0*%
%TD*%
%TA.AperFunction,SMDPad,CuDef*%
%ADD29R,1.050000X0.400000*%
%TD*%
%TA.AperFunction,SMDPad,CuDef*%
%ADD30R,1.100000X0.400000*%
%TD*%
%TA.AperFunction,SMDPad,CuDef*%
%ADD31RoundRect,0.225000X-0.225000X-0.250000X0.225000X-0.250000X0.225000X0.250000X-0.225000X0.250000X0*%
%TD*%
%TA.AperFunction,SMDPad,CuDef*%
%ADD32RoundRect,0.150000X-0.512500X-0.150000X0.512500X-0.150000X0.512500X0.150000X-0.512500X0.150000X0*%
%TD*%
%TA.AperFunction,SMDPad,CuDef*%
%ADD33RoundRect,0.050000X0.050000X-0.387500X0.050000X0.387500X-0.050000X0.387500X-0.050000X-0.387500X0*%
%TD*%
%TA.AperFunction,SMDPad,CuDef*%
%ADD34RoundRect,0.050000X0.387500X-0.050000X0.387500X0.050000X-0.387500X0.050000X-0.387500X-0.050000X0*%
%TD*%
%TA.AperFunction,SMDPad,CuDef*%
%ADD35R,3.200000X3.200000*%
%TD*%
%TA.AperFunction,SMDPad,CuDef*%
%ADD36R,0.300000X0.900000*%
%TD*%
%TA.AperFunction,SMDPad,CuDef*%
%ADD37R,1.650000X0.250000*%
%TD*%
%TA.AperFunction,ComponentPad*%
%ADD38R,1.700000X1.700000*%
%TD*%
%TA.AperFunction,ComponentPad*%
%ADD39O,1.700000X1.700000*%
%TD*%
%TA.AperFunction,SMDPad,CuDef*%
%ADD40RoundRect,0.218750X0.256250X-0.218750X0.256250X0.218750X-0.256250X0.218750X-0.256250X-0.218750X0*%
%TD*%
%TA.AperFunction,ComponentPad*%
%ADD41RoundRect,1.250000X1.250000X-1.250000X1.250000X1.250000X-1.250000X1.250000X-1.250000X-1.250000X0*%
%TD*%
%TA.AperFunction,ComponentPad*%
%ADD42RoundRect,1.250000X1.250000X-2.750000X1.250000X2.750000X-1.250000X2.750000X-1.250000X-2.750000X0*%
%TD*%
%TA.AperFunction,SMDPad,CuDef*%
%ADD43RoundRect,0.225000X0.250000X-0.225000X0.250000X0.225000X-0.250000X0.225000X-0.250000X-0.225000X0*%
%TD*%
%TA.AperFunction,SMDPad,CuDef*%
%ADD44R,1.140000X0.600000*%
%TD*%
%TA.AperFunction,SMDPad,CuDef*%
%ADD45R,1.140000X0.300000*%
%TD*%
%TA.AperFunction,ComponentPad*%
%ADD46O,2.100000X1.000000*%
%TD*%
%TA.AperFunction,ComponentPad*%
%ADD47O,1.800000X1.000000*%
%TD*%
%TA.AperFunction,SMDPad,CuDef*%
%ADD48RoundRect,0.218750X-0.218750X-0.256250X0.218750X-0.256250X0.218750X0.256250X-0.218750X0.256250X0*%
%TD*%
%TA.AperFunction,SMDPad,CuDef*%
%ADD49RoundRect,0.135000X-0.185000X0.135000X-0.185000X-0.135000X0.185000X-0.135000X0.185000X0.135000X0*%
%TD*%
%TA.AperFunction,ViaPad*%
%ADD50C,0.600000*%
%TD*%
%TA.AperFunction,ViaPad*%
%ADD51C,0.800000*%
%TD*%
%TA.AperFunction,Conductor*%
%ADD52C,0.500000*%
%TD*%
%TA.AperFunction,Conductor*%
%ADD53C,0.200000*%
%TD*%
%TA.AperFunction,Conductor*%
%ADD54C,0.800000*%
%TD*%
%TA.AperFunction,Conductor*%
%ADD55C,0.350000*%
%TD*%
%TA.AperFunction,Conductor*%
%ADD56C,0.280000*%
%TD*%
%TA.AperFunction,Conductor*%
%ADD57C,0.160000*%
%TD*%
%TA.AperFunction,Conductor*%
%ADD58C,0.250000*%
%TD*%
G04 APERTURE END LIST*
D10*
%TO.P,S1,A1,COM_1*%
%TO.N,Net-(S1-COM_1)*%
X151775000Y-75900000D03*
%TO.P,S1,B1,COM_2*%
X151775000Y-81900000D03*
%TO.P,S1,C1,NO_1*%
%TO.N,GND*%
X148025000Y-75900000D03*
%TO.P,S1,D1,NO_2*%
X148025000Y-81900000D03*
%TD*%
D11*
%TO.P,Q4,1,G*%
%TO.N,Net-(Q4-G)*%
X156550000Y-78762500D03*
%TO.P,Q4,2,S*%
%TO.N,GND*%
X154650000Y-78762500D03*
%TO.P,Q4,3,D*%
%TO.N,Net-(Q4-D)*%
X155600000Y-80637500D03*
%TD*%
D12*
%TO.P,Q3,1,G*%
%TO.N,Net-(Q3-G)*%
X159562500Y-78850000D03*
%TO.P,Q3,2,S*%
%TO.N,+3.3VA*%
X159562500Y-80750000D03*
%TO.P,Q3,3,D*%
%TO.N,+3.3V*%
X161437500Y-79800000D03*
%TD*%
D13*
%TO.P,Q1,1,G*%
%TO.N,VBUS*%
X132000000Y-78400000D03*
%TO.P,Q1,2,S*%
%TO.N,Net-(D1-K)*%
X133900000Y-78400000D03*
%TO.P,Q1,3,D*%
%TO.N,VCC*%
X132950000Y-76525000D03*
%TD*%
D14*
%TO.P,D3,1,K*%
%TO.N,TRAN_STOP*%
X164600000Y-74850000D03*
%TO.P,D3,2,A*%
%TO.N,GND*%
X164600000Y-72750000D03*
%TD*%
D15*
%TO.P,D1,1,K*%
%TO.N,Net-(D1-K)*%
X133950000Y-80800000D03*
%TO.P,D1,2,A*%
%TO.N,VBUS*%
X131850000Y-80800000D03*
%TD*%
D14*
%TO.P,D4,1,K*%
%TO.N,+2V8*%
X157200000Y-62650000D03*
%TO.P,D4,2,A*%
%TO.N,+3.3VA*%
X157200000Y-60550000D03*
%TD*%
D16*
%TO.P,R2,1*%
%TO.N,/USB_D_N*%
X140500000Y-57550000D03*
%TO.P,R2,2*%
%TO.N,/USB_BD_N*%
X140500000Y-59200000D03*
%TD*%
%TO.P,R1,1*%
%TO.N,/USB_D_P*%
X138700000Y-57575000D03*
%TO.P,R1,2*%
%TO.N,/USB_BD_P*%
X138700000Y-59225000D03*
%TD*%
D17*
%TO.P,R10,1*%
%TO.N,Net-(Q4-D)*%
X158000000Y-80310000D03*
%TO.P,R10,2*%
%TO.N,Net-(Q3-G)*%
X158000000Y-79290000D03*
%TD*%
D18*
%TO.P,R9,2*%
%TO.N,Net-(Q4-G)*%
X156290000Y-76800000D03*
%TO.P,R9,1*%
%TO.N,GND*%
X157310000Y-76800000D03*
%TD*%
D19*
%TO.P,R5,1*%
%TO.N,PM_VCC*%
X154090000Y-76800000D03*
%TO.P,R5,2*%
%TO.N,Net-(Q4-G)*%
X155110000Y-76800000D03*
%TD*%
D17*
%TO.P,R15,1*%
%TO.N,Net-(U2-GPIO21)*%
X145800000Y-59310000D03*
%TO.P,R15,2*%
%TO.N,TRIG_PULSE*%
X145800000Y-58290000D03*
%TD*%
D20*
%TO.P,C13,1*%
%TO.N,GND*%
X157000000Y-73280000D03*
%TO.P,C13,2*%
%TO.N,+2V8*%
X157000000Y-72320000D03*
%TD*%
D21*
%TO.P,R19,1*%
%TO.N,/TDC_START*%
X155400000Y-62425000D03*
%TO.P,R19,2*%
%TO.N,GND*%
X155400000Y-60775000D03*
%TD*%
D22*
%TO.P,C10,1*%
%TO.N,+3.3V*%
X143620000Y-72680000D03*
%TO.P,C10,2*%
%TO.N,GND*%
X143620000Y-73640000D03*
%TD*%
D23*
%TO.P,D2,1,K*%
%TO.N,GND*%
X142200000Y-54912500D03*
%TO.P,D2,2,A*%
%TO.N,Net-(D2-A)*%
X142200000Y-56487500D03*
%TD*%
D20*
%TO.P,C14,1*%
%TO.N,GND*%
X155600000Y-73280000D03*
%TO.P,C14,2*%
%TO.N,Net-(IC2-VREG)*%
X155600000Y-72320000D03*
%TD*%
D24*
%TO.P,IC2,1,ENABLE*%
%TO.N,+2V8*%
X156700000Y-64374000D03*
%TO.P,IC2,2,TRIGG*%
%TO.N,Net-(IC2-TRIGG)*%
X156050000Y-64374000D03*
%TO.P,IC2,3,START*%
%TO.N,/TDC_START*%
X155400000Y-64374000D03*
%TO.P,IC2,4,STOP*%
%TO.N,/TDC_STOP*%
X154750000Y-64374000D03*
%TO.P,IC2,5,CLOCK*%
%TO.N,XIN*%
X154100000Y-64374000D03*
%TO.P,IC2,6,NC*%
%TO.N,unconnected-(IC2-NC-Pad6)*%
X153450000Y-64374000D03*
%TO.P,IC2,7,GND*%
%TO.N,GND*%
X152800000Y-64374000D03*
%TO.P,IC2,8,INTB*%
%TO.N,INT_TDC_DONE*%
X152800000Y-70250000D03*
%TO.P,IC2,9,DOUT*%
%TO.N,SPI1_MISO*%
X153450000Y-70250000D03*
%TO.P,IC2,10,DIN*%
%TO.N,SPI1_MOSI*%
X154100000Y-70250000D03*
%TO.P,IC2,11,CSB*%
%TO.N,SPI1_CS*%
X154750000Y-70250000D03*
%TO.P,IC2,12,SCLK*%
%TO.N,SPI1_SCK*%
X155400000Y-70250000D03*
%TO.P,IC2,13,VREG*%
%TO.N,Net-(IC2-VREG)*%
X156050000Y-70250000D03*
%TO.P,IC2,14,VDD*%
%TO.N,+2V8*%
X156700000Y-70250000D03*
%TD*%
D25*
%TO.P,C27,1*%
%TO.N,/AND_OUT*%
X162720000Y-54600000D03*
%TO.P,C27,2*%
%TO.N,TRAN_START*%
X163680000Y-54600000D03*
%TD*%
D20*
%TO.P,C9,1*%
%TO.N,+3.3V*%
X143600000Y-62080000D03*
%TO.P,C9,2*%
%TO.N,GND*%
X143600000Y-61120000D03*
%TD*%
D22*
%TO.P,C22,2*%
%TO.N,Net-(U4-SW)*%
X142712500Y-78024227D03*
%TO.P,C22,1*%
%TO.N,Net-(U4-BST)*%
X142712500Y-77064227D03*
%TD*%
D26*
%TO.P,C1,1*%
%TO.N,+1V1*%
X136680000Y-67260000D03*
%TO.P,C1,2*%
%TO.N,GND*%
X135720000Y-67260000D03*
%TD*%
D27*
%TO.P,Y1,1,1*%
%TO.N,XIN*%
X150350000Y-66400000D03*
%TO.P,Y1,2,2*%
%TO.N,GND*%
X150350000Y-64200000D03*
%TO.P,Y1,3,3*%
%TO.N,XOUT*%
X148650000Y-64200000D03*
%TO.P,Y1,4,4*%
%TO.N,GND*%
X148650000Y-66400000D03*
%TD*%
D28*
%TO.P,C23,2*%
%TO.N,GND*%
X140742500Y-81444227D03*
%TO.P,C23,1*%
%TO.N,+3.3V*%
X142292500Y-81444227D03*
%TD*%
D20*
%TO.P,C21,1*%
%TO.N,+3.3VA*%
X144350000Y-53680000D03*
%TO.P,C21,2*%
%TO.N,GND*%
X144350000Y-52720000D03*
%TD*%
D29*
%TO.P,IC6,1,OE*%
%TO.N,GND*%
X153650000Y-54700000D03*
%TO.P,IC6,2,A*%
%TO.N,Net-(IC6-A)*%
X153650000Y-55350000D03*
%TO.P,IC6,3,GND*%
%TO.N,GND*%
X153650000Y-56000000D03*
%TO.P,IC6,4,Y*%
%TO.N,/AND_IN_ALL*%
X155550000Y-56000000D03*
%TO.P,IC6,5,VCC*%
%TO.N,+3.3VA*%
X155550000Y-54700000D03*
%TD*%
D24*
%TO.P,IC5,1,NO_2*%
%TO.N,unconnected-(IC5-NO_2-Pad1)*%
X158725000Y-70188000D03*
%TO.P,IC5,2,COM_2*%
%TO.N,unconnected-(IC5-COM_2-Pad2)*%
X159375000Y-70188000D03*
%TO.P,IC5,3,NC_2*%
%TO.N,unconnected-(IC5-NC_2-Pad3)*%
X160025000Y-70188000D03*
%TO.P,IC5,4,GND*%
%TO.N,GND*%
X160675000Y-70188000D03*
%TO.P,IC5,5,NO_3*%
%TO.N,TRAN_STOP*%
X161325000Y-70188000D03*
%TO.P,IC5,6,COM_3*%
%TO.N,/TDC_STOP*%
X161975000Y-70188000D03*
%TO.P,IC5,7,NC_3*%
%TO.N,TRAN_START*%
X162625000Y-70188000D03*
%TO.P,IC5,8,IN_3-4*%
%TO.N,MUX2*%
X163275000Y-70188000D03*
%TO.P,IC5,9,NO_4*%
%TO.N,unconnected-(IC5-NO_4-Pad9)*%
X163275000Y-64312000D03*
%TO.P,IC5,10,COM_4*%
%TO.N,unconnected-(IC5-COM_4-Pad10)*%
X162625000Y-64312000D03*
%TO.P,IC5,11,NC_4*%
%TO.N,unconnected-(IC5-NC_4-Pad11)*%
X161975000Y-64312000D03*
%TO.P,IC5,12,VCC*%
%TO.N,+3.3VA*%
X161325000Y-64312000D03*
%TO.P,IC5,13,NO1*%
%TO.N,TRAN_START*%
X160675000Y-64312000D03*
%TO.P,IC5,14,COM1*%
%TO.N,/TDC_START*%
X160025000Y-64312000D03*
%TO.P,IC5,15,NC_1*%
%TO.N,REF_START*%
X159375000Y-64312000D03*
%TO.P,IC5,16,IN_1-2*%
%TO.N,MUX1*%
X158725000Y-64312000D03*
%TD*%
D18*
%TO.P,R13,1*%
%TO.N,XIN*%
X149220000Y-68000000D03*
%TO.P,R13,2*%
%TO.N,Net-(U2-XIN)*%
X148200000Y-68000000D03*
%TD*%
D22*
%TO.P,C20,1*%
%TO.N,+3.3VA*%
X153600000Y-51920000D03*
%TO.P,C20,2*%
%TO.N,GND*%
X153600000Y-52880000D03*
%TD*%
D26*
%TO.P,C4,1*%
%TO.N,XIN*%
X150880000Y-62600000D03*
%TO.P,C4,2*%
%TO.N,GND*%
X149920000Y-62600000D03*
%TD*%
D20*
%TO.P,C8,1*%
%TO.N,+3.3V*%
X141000000Y-62480000D03*
%TO.P,C8,2*%
%TO.N,GND*%
X141000000Y-61520000D03*
%TD*%
%TO.P,C12,1*%
%TO.N,+3.3V*%
X142400000Y-62080000D03*
%TO.P,C12,2*%
%TO.N,GND*%
X142400000Y-61120000D03*
%TD*%
D30*
%TO.P,U3,1,~{A}*%
%TO.N,GND*%
X146000000Y-53825000D03*
%TO.P,U3,2,B*%
%TO.N,TRIG_PULSE*%
X146000000Y-54475000D03*
%TO.P,U3,3,~{CLR}*%
%TO.N,+3.3VA*%
X146000000Y-55125000D03*
%TO.P,U3,4,GND*%
%TO.N,GND*%
X146000000Y-55775000D03*
%TO.P,U3,5,Q*%
%TO.N,Net-(IC6-A)*%
X150300000Y-55775000D03*
%TO.P,U3,6,Cext*%
%TO.N,Net-(U3A-Cext)*%
X150300000Y-55125000D03*
%TO.P,U3,7,RCext*%
%TO.N,Net-(U3A-RCext)*%
X150300000Y-54475000D03*
%TO.P,U3,8,VCC*%
%TO.N,+3.3VA*%
X150300000Y-53825000D03*
%TD*%
D31*
%TO.P,C24,2*%
%TO.N,GND*%
X145407500Y-81434227D03*
%TO.P,C24,1*%
%TO.N,+3.3V*%
X143857500Y-81434227D03*
%TD*%
D21*
%TO.P,R20,1*%
%TO.N,/TDC_STOP*%
X153400000Y-62425000D03*
%TO.P,R20,2*%
%TO.N,GND*%
X153400000Y-60775000D03*
%TD*%
D32*
%TO.P,U4,6,BST*%
%TO.N,Net-(U4-BST)*%
X141050000Y-77594227D03*
%TO.P,U4,5,SW*%
%TO.N,Net-(U4-SW)*%
X141050000Y-78544227D03*
%TO.P,U4,4,GND*%
%TO.N,GND*%
X141050000Y-79494227D03*
%TO.P,U4,3,IN*%
%TO.N,Net-(U4-IN)*%
X138775000Y-79494227D03*
%TO.P,U4,2,EN*%
%TO.N,unconnected-(U4-EN-Pad2)*%
X138775000Y-78544227D03*
%TO.P,U4,1,FB*%
%TO.N,+3.3V*%
X138775000Y-77594227D03*
%TD*%
D22*
%TO.P,C7,1*%
%TO.N,+3.3V*%
X140050000Y-72690000D03*
%TO.P,C7,2*%
%TO.N,GND*%
X140050000Y-73650000D03*
%TD*%
D33*
%TO.P,U2,1,IOVDD*%
%TO.N,+3.3V*%
X140050000Y-71000000D03*
%TO.P,U2,2,GPIO0*%
%TO.N,unconnected-(U2-GPIO0-Pad2)*%
X140450000Y-71000000D03*
%TO.P,U2,3,GPIO1*%
%TO.N,unconnected-(U2-GPIO1-Pad3)*%
X140850000Y-71000000D03*
%TO.P,U2,4,GPIO2*%
%TO.N,unconnected-(U2-GPIO2-Pad4)*%
X141250000Y-71000000D03*
%TO.P,U2,5,GPIO3*%
%TO.N,unconnected-(U2-GPIO3-Pad5)*%
X141650000Y-71000000D03*
%TO.P,U2,6,GPIO4*%
%TO.N,UART1_TX*%
X142050000Y-71000000D03*
%TO.P,U2,7,GPIO5*%
%TO.N,UART1_RX*%
X142450000Y-71000000D03*
%TO.P,U2,8,GPIO6*%
%TO.N,PM_VCC*%
X142850000Y-71000000D03*
%TO.P,U2,9,GPIO7*%
%TO.N,unconnected-(U2-GPIO7-Pad9)*%
X143250000Y-71000000D03*
%TO.P,U2,10,IOVDD*%
%TO.N,+3.3V*%
X143650000Y-71000000D03*
%TO.P,U2,11,GPIO8*%
%TO.N,MUX2*%
X144050000Y-71000000D03*
%TO.P,U2,12,GPIO9*%
%TO.N,SPI1_CS*%
X144450000Y-71000000D03*
%TO.P,U2,13,GPIO10*%
%TO.N,SPI1_SCK*%
X144850000Y-71000000D03*
%TO.P,U2,14,GPIO11*%
%TO.N,SPI1_MOSI*%
X145250000Y-71000000D03*
D34*
%TO.P,U2,15,GPIO12*%
%TO.N,SPI1_MISO*%
X146087500Y-70162500D03*
%TO.P,U2,16,GPIO13*%
%TO.N,INT_TDC_DONE*%
X146087500Y-69762500D03*
%TO.P,U2,17,GPIO14*%
%TO.N,unconnected-(U2-GPIO14-Pad17)*%
X146087500Y-69362500D03*
%TO.P,U2,18,GPIO15*%
%TO.N,unconnected-(U2-GPIO15-Pad18)*%
X146087500Y-68962500D03*
%TO.P,U2,19,TESTEN*%
%TO.N,GND*%
X146087500Y-68562500D03*
%TO.P,U2,20,XIN*%
%TO.N,Net-(U2-XIN)*%
X146087500Y-68162500D03*
%TO.P,U2,21,XOUT*%
%TO.N,XOUT*%
X146087500Y-67762500D03*
%TO.P,U2,22,IOVDD*%
%TO.N,+3.3V*%
X146087500Y-67362500D03*
%TO.P,U2,23,DVDD*%
%TO.N,+1V1*%
X146087500Y-66962500D03*
%TO.P,U2,24,SWCLK*%
%TO.N,SWCLK*%
X146087500Y-66562500D03*
%TO.P,U2,25,SWD*%
%TO.N,SWD*%
X146087500Y-66162500D03*
%TO.P,U2,26,RUN*%
%TO.N,RUN*%
X146087500Y-65762500D03*
%TO.P,U2,27,GPIO16*%
%TO.N,unconnected-(U2-GPIO16-Pad27)*%
X146087500Y-65362500D03*
%TO.P,U2,28,GPIO17*%
%TO.N,unconnected-(U2-GPIO17-Pad28)*%
X146087500Y-64962500D03*
D33*
%TO.P,U2,29,GPIO18*%
%TO.N,MUX1*%
X145250000Y-64125000D03*
%TO.P,U2,30,GPIO19*%
%TO.N,REF_START*%
X144850000Y-64125000D03*
%TO.P,U2,31,GPIO20*%
%TO.N,unconnected-(U2-GPIO20-Pad31)*%
X144450000Y-64125000D03*
%TO.P,U2,32,GPIO21*%
%TO.N,Net-(U2-GPIO21)*%
X144050000Y-64125000D03*
%TO.P,U2,33,IOVDD*%
%TO.N,+3.3V*%
X143650000Y-64125000D03*
%TO.P,U2,34,GPIO22*%
%TO.N,unconnected-(U2-GPIO22-Pad34)*%
X143250000Y-64125000D03*
%TO.P,U2,35,GPIO23*%
%TO.N,unconnected-(U2-GPIO23-Pad35)*%
X142850000Y-64125000D03*
%TO.P,U2,36,GPIO24*%
%TO.N,unconnected-(U2-GPIO24-Pad36)*%
X142450000Y-64125000D03*
%TO.P,U2,37,GPIO25*%
%TO.N,Net-(U2-GPIO25)*%
X142050000Y-64125000D03*
%TO.P,U2,38,GPIO26_ADC0*%
%TO.N,unconnected-(U2-GPIO26_ADC0-Pad38)*%
X141650000Y-64125000D03*
%TO.P,U2,39,GPIO27_ADC1*%
%TO.N,unconnected-(U2-GPIO27_ADC1-Pad39)*%
X141250000Y-64125000D03*
%TO.P,U2,40,GPIO28_ADC2*%
%TO.N,unconnected-(U2-GPIO28_ADC2-Pad40)*%
X140850000Y-64125000D03*
%TO.P,U2,41,GPIO29_ADC3*%
%TO.N,unconnected-(U2-GPIO29_ADC3-Pad41)*%
X140450000Y-64125000D03*
%TO.P,U2,42,IOVDD*%
%TO.N,+3.3V*%
X140050000Y-64125000D03*
D34*
%TO.P,U2,43,ADC_AVDD*%
X139212500Y-64962500D03*
%TO.P,U2,44,VREG_IN*%
X139212500Y-65362500D03*
%TO.P,U2,45,VREG_VOUT*%
%TO.N,+1V1*%
X139212500Y-65762500D03*
%TO.P,U2,46,USB_DM*%
%TO.N,/USB_BD_N*%
X139212500Y-66162500D03*
%TO.P,U2,47,USB_DP*%
%TO.N,/USB_BD_P*%
X139212500Y-66562500D03*
%TO.P,U2,48,USB_VDD*%
%TO.N,+3.3V*%
X139212500Y-66962500D03*
%TO.P,U2,49,IOVDD*%
X139212500Y-67362500D03*
%TO.P,U2,50,DVDD*%
%TO.N,+1V1*%
X139212500Y-67762500D03*
%TO.P,U2,51,QSPI_SD3*%
%TO.N,/QSPI_SD3*%
X139212500Y-68162500D03*
%TO.P,U2,52,QSPI_SCLK*%
%TO.N,/QSPI_SCLK*%
X139212500Y-68562500D03*
%TO.P,U2,53,QSPI_SD0*%
%TO.N,/QSPI_SD0*%
X139212500Y-68962500D03*
%TO.P,U2,54,QSPI_SD2*%
%TO.N,/QSPI_SD2*%
X139212500Y-69362500D03*
%TO.P,U2,55,QSPI_SD1*%
%TO.N,/QSPI_SD1*%
X139212500Y-69762500D03*
%TO.P,U2,56,QSPI_SS*%
%TO.N,/QSPI_SS*%
X139212500Y-70162500D03*
D35*
%TO.P,U2,57,GND*%
%TO.N,GND*%
X142650000Y-67562500D03*
%TD*%
D19*
%TO.P,R6,1*%
%TO.N,Net-(Q3-G)*%
X159290000Y-76800000D03*
%TO.P,R6,2*%
%TO.N,+3.3V*%
X160310000Y-76800000D03*
%TD*%
D18*
%TO.P,R14,2*%
%TO.N,/QSPI_SS*%
X143990000Y-75900000D03*
%TO.P,R14,1*%
%TO.N,Net-(S1-COM_1)*%
X145010000Y-75900000D03*
%TD*%
D36*
%TO.P,IC1,1,~{CS}*%
%TO.N,/QSPI_SS*%
X135300000Y-71800000D03*
%TO.P,IC1,2,DO_(IO1)*%
%TO.N,/QSPI_SD1*%
X135800000Y-71800000D03*
%TO.P,IC1,3,~{WP_(IO2)}*%
%TO.N,/QSPI_SD2*%
X136300000Y-71800000D03*
%TO.P,IC1,4,GND*%
%TO.N,GND*%
X136800000Y-71800000D03*
%TO.P,IC1,5,DI_(IO0)*%
%TO.N,/QSPI_SD0*%
X136800000Y-69000000D03*
%TO.P,IC1,6,CLK*%
%TO.N,/QSPI_SCLK*%
X136300000Y-69000000D03*
%TO.P,IC1,7,~{HOLD_OR_RESET_(IO3)}*%
%TO.N,/QSPI_SD3*%
X135800000Y-69000000D03*
%TO.P,IC1,8,VCC*%
%TO.N,+3.3V*%
X135300000Y-69000000D03*
D37*
%TO.P,IC1,9,EP*%
%TO.N,GND*%
X136050000Y-70400000D03*
%TD*%
D20*
%TO.P,C3,1*%
%TO.N,+1V1*%
X136400000Y-65880000D03*
%TO.P,C3,2*%
%TO.N,GND*%
X136400000Y-64920000D03*
%TD*%
D38*
%TO.P,J2,1,Pin_1*%
%TO.N,VCC*%
X132000000Y-72800000D03*
D39*
%TO.P,J2,2,Pin_2*%
%TO.N,UART1_RX*%
X132000000Y-70260000D03*
%TO.P,J2,3,Pin_3*%
%TO.N,UART1_TX*%
X132000000Y-67720000D03*
%TO.P,J2,4,Pin_4*%
%TO.N,GND*%
X132000000Y-65180000D03*
%TD*%
D25*
%TO.P,C5,1*%
%TO.N,XOUT*%
X148120000Y-62600000D03*
%TO.P,C5,2*%
%TO.N,GND*%
X149080000Y-62600000D03*
%TD*%
D22*
%TO.P,C16,1*%
%TO.N,+3.3VA*%
X144400000Y-55120000D03*
%TO.P,C16,2*%
%TO.N,GND*%
X144400000Y-56080000D03*
%TD*%
D25*
%TO.P,C2,1*%
%TO.N,+1V1*%
X148200000Y-69150000D03*
%TO.P,C2,2*%
%TO.N,GND*%
X149160000Y-69150000D03*
%TD*%
D19*
%TO.P,R4,1*%
%TO.N,Net-(U1-B5_CC2)*%
X138690000Y-53800000D03*
%TO.P,R4,2*%
%TO.N,GND*%
X139710000Y-53800000D03*
%TD*%
D17*
%TO.P,R8,1*%
%TO.N,Net-(U2-GPIO25)*%
X142200000Y-59200000D03*
%TO.P,R8,2*%
%TO.N,Net-(D2-A)*%
X142200000Y-58180000D03*
%TD*%
D40*
%TO.P,F1,1*%
%TO.N,Net-(D1-K)*%
X135400000Y-81187500D03*
%TO.P,F1,2*%
%TO.N,Net-(U4-IN)*%
X135400000Y-79612500D03*
%TD*%
D41*
%TO.P,J1,1,Pin_1*%
%TO.N,TRAN_START*%
X167000000Y-54500000D03*
D42*
%TO.P,J1,2,Pin_2*%
%TO.N,GND*%
X167000000Y-67000000D03*
D41*
%TO.P,J1,3,Pin_3*%
%TO.N,TRAN_STOP*%
X167000000Y-79500000D03*
%TD*%
D31*
%TO.P,C18,2*%
%TO.N,GND*%
X139067500Y-81414227D03*
%TO.P,C18,1*%
%TO.N,Net-(U4-IN)*%
X137517500Y-81414227D03*
%TD*%
D17*
%TO.P,R16,1*%
%TO.N,Net-(IC2-TRIGG)*%
X147100000Y-59310000D03*
%TO.P,R16,2*%
%TO.N,TRIG_PULSE*%
X147100000Y-58290000D03*
%TD*%
D25*
%TO.P,C19,1*%
%TO.N,+3.3VA*%
X162500000Y-62570000D03*
%TO.P,C19,2*%
%TO.N,GND*%
X163460000Y-62570000D03*
%TD*%
D20*
%TO.P,C6,1*%
%TO.N,+3.3V*%
X139800000Y-62480000D03*
%TO.P,C6,2*%
%TO.N,GND*%
X139800000Y-61520000D03*
%TD*%
D22*
%TO.P,C15,1*%
%TO.N,Net-(U3A-RCext)*%
X151950000Y-53920000D03*
%TO.P,C15,2*%
%TO.N,Net-(U3A-Cext)*%
X151950000Y-54880000D03*
%TD*%
D26*
%TO.P,C25,1*%
%TO.N,+3.3VA*%
X156180000Y-52000000D03*
%TO.P,C25,2*%
%TO.N,GND*%
X155220000Y-52000000D03*
%TD*%
D24*
%TO.P,IC4,1,1A*%
%TO.N,/AND_IN_ALL*%
X157500000Y-57938000D03*
%TO.P,IC4,2,1B*%
X158150000Y-57938000D03*
%TO.P,IC4,3,1Y*%
%TO.N,/AND_OUT*%
X158800000Y-57938000D03*
%TO.P,IC4,4,2A*%
%TO.N,/AND_IN_ALL*%
X159450000Y-57938000D03*
%TO.P,IC4,5,2B*%
X160100000Y-57938000D03*
%TO.P,IC4,6,2Y*%
%TO.N,/AND_OUT*%
X160750000Y-57938000D03*
%TO.P,IC4,7,GND*%
%TO.N,GND*%
X161400000Y-57938000D03*
%TO.P,IC4,8,3Y*%
%TO.N,/AND_OUT*%
X161400000Y-52062000D03*
%TO.P,IC4,9,3A*%
%TO.N,/AND_IN_ALL*%
X160750000Y-52062000D03*
%TO.P,IC4,10,3B*%
X160100000Y-52062000D03*
%TO.P,IC4,11,4Y*%
%TO.N,/AND_OUT*%
X159450000Y-52062000D03*
%TO.P,IC4,12,4A*%
%TO.N,/AND_IN_ALL*%
X158800000Y-52062000D03*
%TO.P,IC4,13,4B*%
X158150000Y-52062000D03*
%TO.P,IC4,14,VCC*%
%TO.N,+3.3VA*%
X157500000Y-52062000D03*
%TD*%
D43*
%TO.P,C17,2*%
%TO.N,GND*%
X136912500Y-78169227D03*
%TO.P,C17,1*%
%TO.N,Net-(U4-IN)*%
X136912500Y-79719227D03*
%TD*%
D44*
%TO.P,U1,1,A1-B12_GND*%
%TO.N,GND*%
X136430000Y-53400000D03*
%TO.P,U1,2,A4-B9_VBUS*%
%TO.N,VBUS*%
X136430000Y-54200000D03*
D45*
%TO.P,U1,3,B8_SBU2*%
%TO.N,unconnected-(U1-B8_SBU2-Pad3)*%
X136430000Y-54850000D03*
%TO.P,U1,4,A5_CC1*%
%TO.N,Net-(U1-A5_CC1)*%
X136430000Y-55350000D03*
%TO.P,U1,5,B7_DN2*%
%TO.N,/USB_D_N*%
X136430000Y-55850000D03*
%TO.P,U1,6,A6_DP1*%
%TO.N,/USB_D_P*%
X136430000Y-56350000D03*
%TO.P,U1,7,A7_DN1*%
%TO.N,/USB_D_N*%
X136430000Y-56850000D03*
%TO.P,U1,8,B6_DP2*%
%TO.N,/USB_D_P*%
X136430000Y-57350000D03*
%TO.P,U1,9,A8_SBU1*%
%TO.N,unconnected-(U1-A8_SBU1-Pad9)*%
X136430000Y-57850000D03*
%TO.P,U1,10,B5_CC2*%
%TO.N,Net-(U1-B5_CC2)*%
X136430000Y-58350000D03*
D44*
%TO.P,U1,11,A9-B4_VBUS*%
%TO.N,VBUS*%
X136430000Y-59000000D03*
%TO.P,U1,12,A12-B1_GND*%
%TO.N,GND*%
X136430000Y-59800000D03*
D46*
%TO.P,U1,S,SHIELD*%
X135860000Y-52280000D03*
D47*
X131680000Y-52280000D03*
D46*
X135860000Y-60920000D03*
D47*
X131680000Y-60920000D03*
%TD*%
D20*
%TO.P,C11,1*%
%TO.N,+3.3V*%
X135000000Y-65880000D03*
%TO.P,C11,2*%
%TO.N,GND*%
X135000000Y-64920000D03*
%TD*%
D19*
%TO.P,R3,1*%
%TO.N,Net-(U1-A5_CC1)*%
X138690000Y-55200000D03*
%TO.P,R3,2*%
%TO.N,GND*%
X139710000Y-55200000D03*
%TD*%
D26*
%TO.P,C26,1*%
%TO.N,+3.3VA*%
X156150000Y-53200000D03*
%TO.P,C26,2*%
%TO.N,GND*%
X155190000Y-53200000D03*
%TD*%
D48*
%TO.P,L1,2,2*%
%TO.N,+3.3V*%
X144500000Y-79344227D03*
%TO.P,L1,1,1*%
%TO.N,Net-(U4-SW)*%
X142925000Y-79344227D03*
%TD*%
D49*
%TO.P,R7,1*%
%TO.N,+3.3VA*%
X151950000Y-51890000D03*
%TO.P,R7,2*%
%TO.N,Net-(U3A-RCext)*%
X151950000Y-52910000D03*
%TD*%
D50*
%TO.N,GND*%
X147400000Y-75900000D03*
D51*
X139710000Y-54600000D03*
X153900000Y-78800000D03*
X160200000Y-71900000D03*
%TO.N,Net-(IC2-TRIGG)*%
X147100000Y-59310000D03*
%TO.N,GND*%
X142200000Y-53887500D03*
X143000000Y-61120000D03*
X140400000Y-61520000D03*
X158200000Y-76800000D03*
%TO.N,+3.3VA*%
X158200000Y-81600000D03*
X158800000Y-81000000D03*
D50*
%TO.N,+1V1*%
X137920000Y-67583000D03*
X147580000Y-69163000D03*
X144749502Y-66994268D03*
X140400000Y-66000000D03*
X147150500Y-66367326D03*
D51*
%TO.N,GND*%
X141500000Y-68700000D03*
X165000000Y-60000000D03*
D50*
X153650000Y-53800000D03*
D51*
X168500000Y-59500000D03*
X140742500Y-80544227D03*
X149600000Y-62600000D03*
X130000000Y-76000000D03*
X136912500Y-77144227D03*
X150450000Y-51000000D03*
D50*
X136050000Y-70400000D03*
X144200000Y-73800000D03*
D51*
X152400000Y-64200000D03*
X141450000Y-83144227D03*
X143800000Y-66400000D03*
X141500000Y-67550000D03*
X168500000Y-73000000D03*
X138000000Y-51000000D03*
D50*
X163945000Y-63055000D03*
X153550000Y-56600000D03*
D51*
X168500000Y-83000000D03*
D50*
X145150000Y-56200000D03*
D51*
X141500000Y-66400000D03*
X142650000Y-66400000D03*
X168000000Y-51000000D03*
X162000000Y-83000000D03*
X142650000Y-68700000D03*
X130000000Y-81000000D03*
X132000000Y-51000000D03*
D50*
X135800000Y-64920000D03*
X156400000Y-73280000D03*
X145362500Y-53187500D03*
D51*
X154400000Y-60800000D03*
X141000000Y-51000000D03*
X143800000Y-67550000D03*
X131500000Y-83000000D03*
X139912500Y-81444227D03*
X146950000Y-51000000D03*
X146312500Y-81344227D03*
X164500000Y-51000000D03*
X165500000Y-83000000D03*
D50*
X140000000Y-74200000D03*
D51*
X148650000Y-66400000D03*
D50*
X161350000Y-59200000D03*
D51*
X168500000Y-61500000D03*
X149700000Y-69200000D03*
X142650000Y-67550000D03*
X150400000Y-64200000D03*
X130000000Y-78500000D03*
X134600000Y-83100000D03*
D50*
X153600000Y-58200000D03*
D51*
X168500000Y-75000000D03*
X154950000Y-51000000D03*
X143800000Y-68700000D03*
X137950000Y-83144227D03*
%TO.N,+3.3V*%
X143112500Y-81444227D03*
X138112500Y-76944227D03*
D50*
X139975000Y-63335000D03*
X140050000Y-72000000D03*
X135000000Y-68000000D03*
X143482475Y-72057023D03*
D51*
X144500000Y-80144227D03*
X139512500Y-76944227D03*
%TO.N,+3.3VA*%
X156950000Y-52000000D03*
D50*
X156600000Y-60500000D03*
X161979500Y-62570000D03*
D51*
X144400000Y-54400000D03*
X150350000Y-53000000D03*
D50*
X152800000Y-51920000D03*
%TO.N,VBUS*%
X136430000Y-54200000D03*
X136400000Y-59000498D03*
X131950000Y-78150000D03*
%TO.N,/QSPI_SS*%
X137570882Y-73495389D03*
X142000000Y-75000000D03*
D51*
%TO.N,+2V8*%
X156874332Y-71001770D03*
D50*
X156700000Y-63000000D03*
%TO.N,MUX2*%
X162880000Y-71480000D03*
X160160000Y-74200000D03*
%TO.N,Net-(IC2-TRIGG)*%
X156000000Y-64200000D03*
%TD*%
D52*
%TO.N,VCC*%
X132950000Y-74950000D02*
X132950000Y-76525000D01*
X132000000Y-74000000D02*
X132950000Y-74950000D01*
X132000000Y-72800000D02*
X132000000Y-74000000D01*
D53*
%TO.N,GND*%
X147725000Y-75900000D02*
X147400000Y-75900000D01*
%TO.N,Net-(S1-COM_1)*%
X151775000Y-76775000D02*
X151800000Y-76800000D01*
X151775000Y-75900000D02*
X151775000Y-76775000D01*
X146310000Y-77200000D02*
X145010000Y-75900000D01*
X151400000Y-77200000D02*
X146310000Y-77200000D01*
X151800000Y-76800000D02*
X151400000Y-77200000D01*
X151800000Y-81575000D02*
X151800000Y-76800000D01*
%TO.N,/QSPI_SS*%
X143990000Y-75900000D02*
X142900000Y-75900000D01*
X142900000Y-75900000D02*
X142000000Y-75000000D01*
D54*
%TO.N,GND*%
X146868273Y-81900000D02*
X146312500Y-81344227D01*
X147725000Y-81900000D02*
X146868273Y-81900000D01*
%TO.N,+3.3V*%
X143857500Y-81525953D02*
X143857500Y-81434227D01*
X159300000Y-83200000D02*
X145531547Y-83200000D01*
X161600000Y-80900000D02*
X159300000Y-83200000D01*
X145531547Y-83200000D02*
X143857500Y-81525953D01*
X161600000Y-79800000D02*
X161600000Y-80900000D01*
X143857500Y-81434227D02*
X143857500Y-81657500D01*
D53*
%TO.N,PM_VCC*%
X154090000Y-75590000D02*
X154090000Y-76800000D01*
X153500000Y-75000000D02*
X154090000Y-75590000D01*
X145800000Y-75000000D02*
X153500000Y-75000000D01*
X143423873Y-74600000D02*
X145400000Y-74600000D01*
X142850000Y-74026127D02*
X143423873Y-74600000D01*
X142850000Y-71000000D02*
X142850000Y-74026127D01*
X145400000Y-74600000D02*
X145800000Y-75000000D01*
D54*
%TO.N,Net-(D1-K)*%
X134337500Y-81187500D02*
X133950000Y-80800000D01*
X135400000Y-81187500D02*
X134337500Y-81187500D01*
%TO.N,Net-(U4-IN)*%
X135400000Y-79612500D02*
X136805773Y-79612500D01*
X136805773Y-79612500D02*
X136912500Y-79719227D01*
%TO.N,Net-(D1-K)*%
X133850000Y-80700000D02*
X133950000Y-80800000D01*
X133850000Y-78150000D02*
X133850000Y-80700000D01*
D52*
%TO.N,VBUS*%
X132000000Y-80650000D02*
X132000000Y-78850000D01*
X131850000Y-80800000D02*
X132000000Y-80650000D01*
D55*
%TO.N,+2V8*%
X156850000Y-63000000D02*
X157200000Y-62650000D01*
X156700000Y-63000000D02*
X156850000Y-63000000D01*
%TO.N,+3.3VA*%
X157150000Y-60500000D02*
X157200000Y-60550000D01*
X156600000Y-60500000D02*
X157150000Y-60500000D01*
D53*
%TO.N,MUX1*%
X148485686Y-59800000D02*
X145250000Y-63035686D01*
X157434314Y-59800000D02*
X148485686Y-59800000D01*
X145250000Y-63035686D02*
X145250000Y-64125000D01*
X158725000Y-61090686D02*
X157434314Y-59800000D01*
X158725000Y-64312000D02*
X158725000Y-61090686D01*
%TO.N,Net-(U2-GPIO25)*%
X142050000Y-63050000D02*
X141700000Y-62700000D01*
X141700000Y-62700000D02*
X141700000Y-59700000D01*
X141700000Y-59700000D02*
X142200000Y-59200000D01*
X142050000Y-64125000D02*
X142050000Y-63050000D01*
%TO.N,Net-(D2-A)*%
X142200000Y-58180000D02*
X142200000Y-56487500D01*
D56*
%TO.N,/USB_BD_N*%
X137640000Y-62499412D02*
X137640000Y-65600000D01*
X140500000Y-59290001D02*
X140500000Y-59639412D01*
X140200000Y-58990001D02*
X140500000Y-59290001D01*
X140500000Y-59639412D02*
X137640000Y-62499412D01*
%TO.N,/USB_BD_P*%
X137160000Y-62300588D02*
X137160000Y-65600000D01*
X139000000Y-59190001D02*
X139000000Y-60460588D01*
X138800000Y-58990001D02*
X139000000Y-59190001D01*
X139000000Y-60460588D02*
X137160000Y-62300588D01*
D53*
%TO.N,GND*%
X139710000Y-55200000D02*
X139710000Y-53800000D01*
%TO.N,UART1_TX*%
X133520000Y-67720000D02*
X132000000Y-67720000D01*
X134189950Y-68389950D02*
X133520000Y-67720000D01*
%TO.N,UART1_RX*%
X133789950Y-70600000D02*
X133449950Y-70260000D01*
X133449950Y-70260000D02*
X132000000Y-70260000D01*
X133789950Y-73420618D02*
X133789950Y-70600000D01*
D55*
%TO.N,GND*%
X154650000Y-78800000D02*
X153900000Y-78800000D01*
X160675000Y-71425000D02*
X160200000Y-71900000D01*
X160675000Y-70188000D02*
X160675000Y-71425000D01*
D53*
%TO.N,TRIG_PULSE*%
X147000000Y-57500000D02*
X146210000Y-58290000D01*
X146675000Y-54475000D02*
X147000000Y-54800000D01*
X147000000Y-54800000D02*
X147000000Y-57500000D01*
X146000000Y-54475000D02*
X146675000Y-54475000D01*
X146210000Y-58290000D02*
X145800000Y-58290000D01*
X145800000Y-58290000D02*
X147100000Y-58290000D01*
%TO.N,Net-(U2-GPIO21)*%
X145800000Y-61100000D02*
X145800000Y-59310000D01*
X144050000Y-62850000D02*
X145800000Y-61100000D01*
X144050000Y-64125000D02*
X144050000Y-62850000D01*
%TO.N,GND*%
X142200000Y-54912500D02*
X142200000Y-53887500D01*
D55*
%TO.N,+3.3V*%
X139975000Y-63335000D02*
X139975000Y-62655000D01*
X139975000Y-62655000D02*
X139800000Y-62480000D01*
X140145000Y-63335000D02*
X141000000Y-62480000D01*
X139975000Y-63335000D02*
X140145000Y-63335000D01*
X141000000Y-62480000D02*
X139800000Y-62480000D01*
X142400000Y-62080000D02*
X143600000Y-62080000D01*
D53*
X143650000Y-62130000D02*
X143600000Y-62080000D01*
X143650000Y-64125000D02*
X143650000Y-62130000D01*
D55*
%TO.N,GND*%
X142400000Y-61120000D02*
X143600000Y-61120000D01*
X139800000Y-61520000D02*
X141000000Y-61520000D01*
X157310000Y-76800000D02*
X158200000Y-76800000D01*
%TO.N,+3.3V*%
X161600000Y-78090000D02*
X161600000Y-79800000D01*
X160310000Y-76800000D02*
X161600000Y-78090000D01*
%TO.N,Net-(Q3-G)*%
X159500000Y-77010000D02*
X159290000Y-76800000D01*
X159500000Y-78850000D02*
X159500000Y-77010000D01*
X159060000Y-79290000D02*
X159500000Y-78850000D01*
X158000000Y-79290000D02*
X159060000Y-79290000D01*
%TO.N,Net-(Q4-D)*%
X157410000Y-80900000D02*
X158000000Y-80310000D01*
X155600000Y-80900000D02*
X157410000Y-80900000D01*
D53*
%TO.N,Net-(Q4-G)*%
X156290000Y-76800000D02*
X156550000Y-77060000D01*
X156550000Y-77060000D02*
X156550000Y-78800000D01*
X155110000Y-76800000D02*
X156290000Y-76800000D01*
D54*
%TO.N,+3.3VA*%
X159050000Y-80750000D02*
X158200000Y-81600000D01*
X159500000Y-80750000D02*
X159050000Y-80750000D01*
%TO.N,TRAN_STOP*%
X164600000Y-77100000D02*
X167000000Y-79500000D01*
X164600000Y-74950000D02*
X164600000Y-77100000D01*
%TO.N,GND*%
X167000000Y-67000000D02*
X167000000Y-70250000D01*
X167000000Y-70250000D02*
X164600000Y-72650000D01*
D53*
%TO.N,+1V1*%
X139962500Y-65762500D02*
X140200000Y-66000000D01*
X140200000Y-66000000D02*
X140400000Y-66000000D01*
D55*
X148140000Y-69150000D02*
X147593000Y-69150000D01*
D53*
X147150500Y-66367326D02*
X147150500Y-66431975D01*
X139212500Y-65762500D02*
X139962500Y-65762500D01*
X139212500Y-67762500D02*
X138099500Y-67762500D01*
D55*
X147593000Y-69150000D02*
X147580000Y-69163000D01*
X136680000Y-67260000D02*
X136680000Y-66160000D01*
D53*
X147150500Y-66431975D02*
X146619975Y-66962500D01*
X146619975Y-66962500D02*
X146087500Y-66962500D01*
X138099500Y-67762500D02*
X137920000Y-67583000D01*
D55*
X136910000Y-67260000D02*
X137597000Y-67260000D01*
X137597000Y-67260000D02*
X137920000Y-67583000D01*
X136680000Y-66160000D02*
X136400000Y-65880000D01*
%TO.N,GND*%
X149160000Y-69150000D02*
X149650000Y-69150000D01*
X144895000Y-52720000D02*
X144350000Y-52720000D01*
X149920000Y-62600000D02*
X149600000Y-62600000D01*
D53*
X148510000Y-69800000D02*
X149160000Y-69150000D01*
D55*
X167000000Y-66110000D02*
X167000000Y-67000000D01*
X136400000Y-64920000D02*
X135000000Y-64920000D01*
D52*
X136430000Y-59800000D02*
X136430000Y-60350000D01*
D57*
X136800000Y-71150000D02*
X136050000Y-70400000D01*
D52*
X136430000Y-53400000D02*
X136430000Y-52850000D01*
D55*
X152800000Y-64374000D02*
X152574000Y-64374000D01*
D52*
X155220000Y-51270000D02*
X154950000Y-51000000D01*
D55*
X145030000Y-56080000D02*
X145150000Y-56200000D01*
X136250000Y-70400000D02*
X136825000Y-70975000D01*
X144040000Y-73640000D02*
X144200000Y-73800000D01*
X135715000Y-67255000D02*
X135715000Y-65005000D01*
D52*
X136430000Y-52850000D02*
X135860000Y-52280000D01*
X155220000Y-52000000D02*
X155220000Y-51270000D01*
D54*
X140742500Y-81444227D02*
X140742500Y-79801727D01*
D55*
X153650000Y-52930000D02*
X153600000Y-52880000D01*
X161400000Y-59150000D02*
X161350000Y-59200000D01*
X140050000Y-73650000D02*
X140050000Y-74150000D01*
X140050000Y-74150000D02*
X140000000Y-74200000D01*
X153400000Y-60775000D02*
X155400000Y-60775000D01*
D54*
X145407500Y-81434227D02*
X146222500Y-81434227D01*
D53*
X146980000Y-69411529D02*
X147368471Y-69800000D01*
D55*
X152574000Y-64374000D02*
X152400000Y-64200000D01*
X136050000Y-70400000D02*
X136250000Y-70400000D01*
X155190000Y-53200000D02*
X155190000Y-52030000D01*
X146000000Y-53825000D02*
X144895000Y-52720000D01*
D54*
X139097500Y-81444227D02*
X139067500Y-81414227D01*
D55*
X163460000Y-62570000D02*
X167000000Y-66110000D01*
X155600000Y-73280000D02*
X157000000Y-73280000D01*
X135720000Y-67260000D02*
X135715000Y-67255000D01*
D57*
X136800000Y-71800000D02*
X136800000Y-71150000D01*
D55*
X149650000Y-69150000D02*
X149700000Y-69200000D01*
X143620000Y-73640000D02*
X144040000Y-73640000D01*
D54*
X146222500Y-81434227D02*
X146312500Y-81344227D01*
D55*
X135715000Y-65005000D02*
X135800000Y-64920000D01*
D53*
X146619975Y-68562500D02*
X146980000Y-68922525D01*
D55*
X145575000Y-55775000D02*
X145150000Y-56200000D01*
D54*
X140742500Y-79801727D02*
X141000000Y-79544227D01*
X140742500Y-81444227D02*
X139097500Y-81444227D01*
D55*
X136825000Y-70975000D02*
X136825000Y-71800000D01*
D54*
X136912500Y-78169227D02*
X136912500Y-77144227D01*
D55*
X149080000Y-62600000D02*
X149600000Y-62600000D01*
D53*
X146087500Y-68562500D02*
X146619975Y-68562500D01*
D55*
X161400000Y-57938000D02*
X161400000Y-59150000D01*
X144400000Y-56080000D02*
X145030000Y-56080000D01*
X150350000Y-64200000D02*
X150400000Y-64200000D01*
D53*
X146980000Y-68922525D02*
X146980000Y-69411529D01*
D52*
X136430000Y-60350000D02*
X135860000Y-60920000D01*
D55*
X153650000Y-54700000D02*
X153650000Y-52930000D01*
X153550000Y-56000000D02*
X153550000Y-56600000D01*
X146000000Y-55775000D02*
X145575000Y-55775000D01*
D54*
X141000000Y-79544227D02*
X141050000Y-79544227D01*
D53*
X147368471Y-69800000D02*
X148510000Y-69800000D01*
%TO.N,XIN*%
X151400000Y-65350000D02*
X151400000Y-63120000D01*
X150350000Y-66400000D02*
X151400000Y-65350000D01*
X154100000Y-65311500D02*
X154100000Y-64374000D01*
X149220000Y-68000000D02*
X150350000Y-66870000D01*
X153011500Y-66400000D02*
X154100000Y-65311500D01*
X150350000Y-66870000D02*
X150350000Y-66400000D01*
X151400000Y-63120000D02*
X150880000Y-62600000D01*
X150350000Y-66400000D02*
X153011500Y-66400000D01*
%TO.N,XOUT*%
X146087500Y-67762500D02*
X146619975Y-67762500D01*
X147750000Y-66632475D02*
X147750000Y-65100000D01*
X146619975Y-67762500D02*
X147750000Y-66632475D01*
X148120000Y-62600000D02*
X148120000Y-63670000D01*
X147750000Y-65100000D02*
X148650000Y-64200000D01*
X148120000Y-63670000D02*
X148650000Y-64200000D01*
D57*
%TO.N,+3.3V*%
X145370000Y-67370000D02*
X145370000Y-67000000D01*
D53*
X146087500Y-67362500D02*
X145844975Y-67362500D01*
X140050000Y-71000000D02*
X140050000Y-70250000D01*
D55*
X139975000Y-63335000D02*
X139975000Y-64125000D01*
D53*
X143650000Y-72000000D02*
X143650000Y-72650000D01*
X143650000Y-71000000D02*
X143650000Y-72000000D01*
X140050000Y-65150000D02*
X140000000Y-65200000D01*
X139212500Y-66962500D02*
X139212500Y-67362500D01*
D54*
X143857500Y-81342500D02*
X144500000Y-80700000D01*
X138775000Y-77594227D02*
X138762500Y-77594227D01*
D55*
X135000000Y-68000000D02*
X135275000Y-68275000D01*
D54*
X144500000Y-80700000D02*
X144500000Y-79344227D01*
D53*
X139962500Y-67362500D02*
X140000000Y-67400000D01*
D55*
X135000000Y-65880000D02*
X135000000Y-68000000D01*
D53*
X139562500Y-66962500D02*
X139962500Y-67362500D01*
X145200000Y-67717525D02*
X145200000Y-67800000D01*
D57*
X143650000Y-72000000D02*
X143539498Y-72000000D01*
D53*
X145458762Y-67458762D02*
X145200000Y-67717525D01*
X139212500Y-67362500D02*
X139962500Y-67362500D01*
X143650000Y-72650000D02*
X143620000Y-72680000D01*
X145844975Y-67362500D02*
X145637500Y-67362500D01*
X139762500Y-64962500D02*
X140000000Y-65200000D01*
D57*
X145370000Y-67000000D02*
X145370000Y-65575810D01*
D53*
X145637500Y-67362500D02*
X145555025Y-67362500D01*
D54*
X143857500Y-81434227D02*
X143857500Y-81342500D01*
D53*
X139212500Y-66962500D02*
X139562500Y-66962500D01*
D54*
X138862500Y-77594227D02*
X139512500Y-76944227D01*
D53*
X139837500Y-65362500D02*
X140000000Y-65200000D01*
D57*
X145458762Y-67458762D02*
X145370000Y-67370000D01*
D53*
X139212500Y-65362500D02*
X139837500Y-65362500D01*
X140050000Y-64125000D02*
X140050000Y-65150000D01*
X145555025Y-67362500D02*
X145458762Y-67458762D01*
D54*
X138762500Y-77594227D02*
X138112500Y-76944227D01*
D55*
X135275000Y-68275000D02*
X135275000Y-69000000D01*
D53*
X143650000Y-64125000D02*
X143650000Y-64850000D01*
D54*
X138775000Y-77594227D02*
X138862500Y-77594227D01*
D53*
X139212500Y-64962500D02*
X139762500Y-64962500D01*
D57*
X143539498Y-72000000D02*
X143482475Y-72057023D01*
D54*
X143847500Y-81444227D02*
X143857500Y-81434227D01*
D53*
X140050000Y-70250000D02*
X140000000Y-70200000D01*
X143650000Y-64850000D02*
X143800000Y-65000000D01*
X140050000Y-72690000D02*
X140050000Y-71000000D01*
X143650000Y-71000000D02*
X143650000Y-70250000D01*
D54*
X142292500Y-81444227D02*
X143847500Y-81444227D01*
D55*
%TO.N,+3.3VA*%
X151980000Y-51920000D02*
X151950000Y-51890000D01*
X155550000Y-54700000D02*
X156150000Y-54100000D01*
X151950000Y-51890000D02*
X151460000Y-51890000D01*
X156150000Y-54100000D02*
X156150000Y-53200000D01*
X150300000Y-53050000D02*
X150350000Y-53000000D01*
X157438000Y-52000000D02*
X157500000Y-52062000D01*
X162500000Y-62570000D02*
X161979500Y-62570000D01*
X156950000Y-52000000D02*
X157438000Y-52000000D01*
X156150000Y-52030000D02*
X156180000Y-52000000D01*
X144400000Y-55120000D02*
X144400000Y-53880000D01*
X153600000Y-51920000D02*
X151980000Y-51920000D01*
X150300000Y-53825000D02*
X150300000Y-53050000D01*
X146000000Y-55125000D02*
X144405000Y-55125000D01*
X156180000Y-52000000D02*
X156950000Y-52000000D01*
X151460000Y-51890000D02*
X150350000Y-53000000D01*
X161979500Y-62570000D02*
X161325000Y-63224500D01*
X144405000Y-55125000D02*
X144400000Y-55120000D01*
X156150000Y-53200000D02*
X156150000Y-52030000D01*
X161325000Y-63224500D02*
X161325000Y-64312000D01*
%TO.N,Net-(IC2-VREG)*%
X156050000Y-71870000D02*
X155600000Y-72320000D01*
X156050000Y-70250000D02*
X156050000Y-71870000D01*
%TO.N,Net-(U3A-RCext)*%
X151950000Y-52910000D02*
X151950000Y-53920000D01*
X151871680Y-53920000D02*
X151950000Y-53920000D01*
X150300000Y-54475000D02*
X151316680Y-54475000D01*
X151316680Y-54475000D02*
X151871680Y-53920000D01*
%TO.N,Net-(U3A-Cext)*%
X151950000Y-54880000D02*
X151705000Y-55125000D01*
X151705000Y-55125000D02*
X150300000Y-55125000D01*
D54*
%TO.N,Net-(U4-IN)*%
X137712500Y-79494227D02*
X137712500Y-81219227D01*
X137137500Y-79494227D02*
X136912500Y-79719227D01*
X137712500Y-79494227D02*
X137137500Y-79494227D01*
X137712500Y-81219227D02*
X137517500Y-81414227D01*
X138775000Y-79494227D02*
X137712500Y-79494227D01*
D52*
%TO.N,Net-(U4-BST)*%
X142712500Y-77064227D02*
X141580000Y-77064227D01*
X141580000Y-77064227D02*
X141050000Y-77594227D01*
D54*
%TO.N,Net-(U4-SW)*%
X142192500Y-78544227D02*
X142712500Y-78024227D01*
X142925000Y-79344227D02*
X142125000Y-78544227D01*
X142125000Y-78544227D02*
X141050000Y-78544227D01*
X141050000Y-78544227D02*
X142192500Y-78544227D01*
D52*
%TO.N,VBUS*%
X136400498Y-59000000D02*
X136400000Y-59000498D01*
X136430000Y-59000000D02*
X136400498Y-59000000D01*
D57*
%TO.N,/QSPI_SS*%
X137498233Y-73320000D02*
X136141768Y-73320000D01*
D53*
X136317157Y-73495389D02*
X136141768Y-73320000D01*
D57*
X135300000Y-72478232D02*
X135300000Y-71800000D01*
X139212500Y-71605732D02*
X137498233Y-73320000D01*
D53*
X137570882Y-73495389D02*
X136317157Y-73495389D01*
D57*
X136141768Y-73320000D02*
X135300000Y-72478232D01*
X139212500Y-70162500D02*
X139212500Y-71605732D01*
%TO.N,/QSPI_SD1*%
X138200000Y-72109116D02*
X137349116Y-72960000D01*
X138708310Y-69762500D02*
X138200000Y-70270810D01*
X137349116Y-72960000D02*
X136290884Y-72960000D01*
X136290884Y-72960000D02*
X135800000Y-72469116D01*
X139212500Y-69762500D02*
X138708310Y-69762500D01*
X138200000Y-70270810D02*
X138200000Y-72109116D01*
X135800000Y-72469116D02*
X135800000Y-71800000D01*
%TO.N,/QSPI_SD2*%
X139212500Y-69362500D02*
X138479120Y-69362500D01*
X136300000Y-72460000D02*
X136300000Y-71800000D01*
X137200000Y-72600000D02*
X136440000Y-72600000D01*
X137840000Y-70001620D02*
X137840000Y-71960000D01*
X138479120Y-69362500D02*
X137840000Y-70001620D01*
X137840000Y-71960000D02*
X137200000Y-72600000D01*
X136440000Y-72600000D02*
X136300000Y-72460000D01*
%TO.N,/QSPI_SD0*%
X136837500Y-68962500D02*
X139212500Y-68962500D01*
X136800000Y-69000000D02*
X136837500Y-68962500D01*
%TO.N,/QSPI_SCLK*%
X137200000Y-68200000D02*
X136440000Y-68200000D01*
X139212500Y-68562500D02*
X137562500Y-68562500D01*
X137562500Y-68562500D02*
X137200000Y-68200000D01*
X136440000Y-68200000D02*
X136300000Y-68340000D01*
X136300000Y-68340000D02*
X136300000Y-69000000D01*
%TO.N,/QSPI_SD3*%
X135800000Y-68330884D02*
X136290883Y-67840000D01*
X137671616Y-68162500D02*
X139212500Y-68162500D01*
X136290883Y-67840000D02*
X137349116Y-67840000D01*
X137349116Y-67840000D02*
X137671616Y-68162500D01*
X135800000Y-69000000D02*
X135800000Y-68330884D01*
D55*
%TO.N,/TDC_START*%
X159600000Y-66000000D02*
X160025000Y-65575000D01*
X155938500Y-66000000D02*
X159600000Y-66000000D01*
X155400000Y-64374000D02*
X155400000Y-65461500D01*
X155400000Y-65461500D02*
X155938500Y-66000000D01*
X160025000Y-65575000D02*
X160025000Y-64312000D01*
X155400000Y-62425000D02*
X155400000Y-63845405D01*
%TO.N,/TDC_STOP*%
X161975000Y-68975000D02*
X161975000Y-70188000D01*
X154750000Y-64374000D02*
X154750000Y-63518250D01*
X156400000Y-68000000D02*
X161000000Y-68000000D01*
X161000000Y-68000000D02*
X161975000Y-68975000D01*
X154750000Y-63518250D02*
X153656750Y-62425000D01*
X154750000Y-64374000D02*
X154750000Y-66350000D01*
X153656750Y-62425000D02*
X153400000Y-62425000D01*
X154750000Y-66350000D02*
X156400000Y-68000000D01*
D53*
%TO.N,INT_TDC_DONE*%
X147357475Y-70500000D02*
X152550000Y-70500000D01*
X152550000Y-70500000D02*
X152800000Y-70250000D01*
X146619975Y-69762500D02*
X147357475Y-70500000D01*
X146087500Y-69762500D02*
X146619975Y-69762500D01*
%TO.N,SPI1_MISO*%
X153237500Y-71400000D02*
X147325000Y-71400000D01*
X153450000Y-71187500D02*
X153237500Y-71400000D01*
X147325000Y-71400000D02*
X146087500Y-70162500D01*
X153450000Y-70250000D02*
X153450000Y-71187500D01*
%TO.N,SPI1_MOSI*%
X145800000Y-71800000D02*
X145250000Y-71250000D01*
X145250000Y-71250000D02*
X145250000Y-71000000D01*
X154100000Y-71187500D02*
X153487500Y-71800000D01*
X153487500Y-71800000D02*
X145800000Y-71800000D01*
X154100000Y-70250000D02*
X154100000Y-71187500D01*
%TO.N,SPI1_CS*%
X145351839Y-72600000D02*
X144450000Y-71698160D01*
X154750000Y-69312500D02*
X155062500Y-69000000D01*
X144450000Y-71698160D02*
X144450000Y-71000000D01*
X157400000Y-74000000D02*
X155400000Y-74000000D01*
X157200000Y-69000000D02*
X157800000Y-69600000D01*
X154750000Y-70250000D02*
X154750000Y-69312500D01*
X157800000Y-73600000D02*
X157400000Y-74000000D01*
X155400000Y-74000000D02*
X154000000Y-72600000D01*
X154000000Y-72600000D02*
X145351839Y-72600000D01*
X155062500Y-69000000D02*
X157200000Y-69000000D01*
X157800000Y-69600000D02*
X157800000Y-73600000D01*
%TO.N,SPI1_SCK*%
X154387500Y-72200000D02*
X145517525Y-72200000D01*
X144850000Y-71532475D02*
X144850000Y-71000000D01*
X155400000Y-71187500D02*
X154387500Y-72200000D01*
X145517525Y-72200000D02*
X144850000Y-71532475D01*
X155400000Y-70250000D02*
X155400000Y-71187500D01*
D55*
%TO.N,/AND_OUT*%
X159450000Y-52062000D02*
X159450000Y-53650000D01*
X158800000Y-57938000D02*
X158800000Y-56600000D01*
X161400000Y-52062000D02*
X161400000Y-54200000D01*
X158800000Y-56600000D02*
X160000000Y-55400000D01*
X160750000Y-57938000D02*
X160750000Y-55650000D01*
X159450000Y-53650000D02*
X160000000Y-54200000D01*
X161400000Y-54200000D02*
X161800000Y-54600000D01*
X162720000Y-54600000D02*
X161800000Y-54600000D01*
X160750000Y-55650000D02*
X161000000Y-55400000D01*
%TO.N,/AND_IN_ALL*%
X158150000Y-57938000D02*
X158150000Y-59025500D01*
X160100000Y-57938000D02*
X159450000Y-57938000D01*
X158800000Y-50974500D02*
X158800000Y-52062000D01*
X158374500Y-59250000D02*
X159200500Y-59250000D01*
X158150000Y-52062000D02*
X158800000Y-52062000D01*
X158150000Y-55800000D02*
X158150000Y-57288000D01*
X160100000Y-50974500D02*
X159875500Y-50750000D01*
X159200500Y-59250000D02*
X159450000Y-59000500D01*
X158150000Y-57288000D02*
X157500000Y-57938000D01*
X158150000Y-59025500D02*
X158374500Y-59250000D01*
X159875500Y-50750000D02*
X159024500Y-50750000D01*
X160100000Y-52062000D02*
X160100000Y-50974500D01*
X155450000Y-56000000D02*
X157950000Y-56000000D01*
X159024500Y-50750000D02*
X158800000Y-50974500D01*
X157950000Y-56000000D02*
X158150000Y-55800000D01*
X158150000Y-57938000D02*
X157500000Y-57938000D01*
X158150000Y-52062000D02*
X158150000Y-55800000D01*
X160750000Y-52062000D02*
X160100000Y-52062000D01*
X159450000Y-59000500D02*
X159450000Y-57938000D01*
%TO.N,Net-(IC6-A)*%
X152293320Y-55775000D02*
X152718320Y-55350000D01*
X152293320Y-55775000D02*
X150300000Y-55775000D01*
X152718320Y-55350000D02*
X153650000Y-55350000D01*
%TO.N,+2V8*%
X157000000Y-72320000D02*
X157000000Y-71127438D01*
X157000000Y-71127438D02*
X156874332Y-71001770D01*
X156700000Y-70250000D02*
X156700000Y-70827438D01*
X156700000Y-64374000D02*
X156700000Y-63000000D01*
X156700000Y-70827438D02*
X156874332Y-71001770D01*
%TO.N,TRAN_START*%
X160675000Y-62600000D02*
X163680000Y-59595000D01*
X163680000Y-54600000D02*
X166900000Y-54600000D01*
X160675000Y-66275000D02*
X160675000Y-64312000D01*
X162625000Y-70188000D02*
X162625000Y-68225000D01*
X163680000Y-59595000D02*
X163680000Y-54600000D01*
X166900000Y-54600000D02*
X167000000Y-54500000D01*
X162625000Y-68225000D02*
X160675000Y-66275000D01*
X160675000Y-64312000D02*
X160675000Y-62600000D01*
%TO.N,TRAN_STOP*%
X165700000Y-79500000D02*
X161325000Y-75125000D01*
X167000000Y-79500000D02*
X165700000Y-79500000D01*
X161325000Y-75125000D02*
X161325000Y-70188000D01*
D53*
%TO.N,/USB_D_P*%
X138800000Y-57490000D02*
X138610000Y-57300000D01*
X136480000Y-57300000D02*
X136430000Y-57350000D01*
X138610000Y-57300000D02*
X136480000Y-57300000D01*
X135400000Y-56600000D02*
X135650000Y-56350000D01*
X136430000Y-57350000D02*
X135610000Y-57350000D01*
X135650000Y-56350000D02*
X136430000Y-56350000D01*
X135610000Y-57350000D02*
X135400000Y-57140000D01*
X135400000Y-57140000D02*
X135400000Y-56600000D01*
%TO.N,/USB_BD_P*%
X138519754Y-66562500D02*
X138511960Y-66570294D01*
X138511960Y-66570294D02*
X137988040Y-66570294D01*
X137988040Y-66570294D02*
X137160000Y-65742254D01*
X137160000Y-65742254D02*
X137160000Y-65600000D01*
X139212500Y-66562500D02*
X138519754Y-66562500D01*
%TO.N,/USB_D_N*%
X137400000Y-56000000D02*
X137400000Y-56850000D01*
X136430000Y-55850000D02*
X137250000Y-55850000D01*
X140200000Y-57490000D02*
X139560000Y-56850000D01*
X139560000Y-56850000D02*
X137400000Y-56850000D01*
X137250000Y-55850000D02*
X137400000Y-56000000D01*
X137400000Y-56850000D02*
X136430000Y-56850000D01*
%TO.N,/USB_BD_N*%
X137640000Y-65600000D02*
X137640000Y-65640294D01*
X137640000Y-65640294D02*
X138162206Y-66162500D01*
X138162206Y-66162500D02*
X139212500Y-66162500D01*
D58*
%TO.N,Net-(U1-A5_CC1)*%
X138540000Y-55350000D02*
X138690000Y-55200000D01*
X136430000Y-55350000D02*
X138540000Y-55350000D01*
%TO.N,Net-(U1-B5_CC2)*%
X135560000Y-58350000D02*
X134000000Y-56790000D01*
X137000000Y-51200000D02*
X138690000Y-52890000D01*
X134800000Y-51200000D02*
X137000000Y-51200000D01*
X138690000Y-52890000D02*
X138690000Y-53800000D01*
X136430000Y-58350000D02*
X135560000Y-58350000D01*
X134000000Y-56790000D02*
X134000000Y-52000000D01*
X134000000Y-52000000D02*
X134800000Y-51200000D01*
D53*
%TO.N,REF_START*%
X159375000Y-64312000D02*
X159375000Y-61175000D01*
X159375000Y-61175000D02*
X157600000Y-59400000D01*
X148320000Y-59400000D02*
X144850000Y-62870000D01*
X144850000Y-62870000D02*
X144850000Y-64125000D01*
X157600000Y-59400000D02*
X148320000Y-59400000D01*
%TO.N,MUX2*%
X144050000Y-71000000D02*
X144050000Y-71863847D01*
X159760000Y-74600000D02*
X160160000Y-74200000D01*
X146786153Y-74600000D02*
X159760000Y-74600000D01*
X144050000Y-71863847D02*
X146786153Y-74600000D01*
X163275000Y-71085000D02*
X163275000Y-70188000D01*
X162880000Y-71480000D02*
X163275000Y-71085000D01*
%TO.N,UART1_TX*%
X136300000Y-74800000D02*
X140248529Y-74800000D01*
X134189950Y-68389950D02*
X134189950Y-72689950D01*
X134189950Y-72689950D02*
X136300000Y-74800000D01*
X140248529Y-74800000D02*
X142050000Y-72998529D01*
X142050000Y-72998529D02*
X142050000Y-71000000D01*
%TO.N,UART1_RX*%
X142450000Y-73164215D02*
X140414214Y-75200000D01*
X140414214Y-75200000D02*
X135569332Y-75200000D01*
X135569332Y-75200000D02*
X133789950Y-73420618D01*
X142450000Y-71000000D02*
X142450000Y-73164215D01*
%TO.N,Net-(U2-XIN)*%
X148037500Y-68162500D02*
X146087500Y-68162500D01*
X148200000Y-68000000D02*
X148037500Y-68162500D01*
%TD*%
%TA.AperFunction,Conductor*%
%TO.N,/AND_OUT*%
G36*
X161943039Y-53819685D02*
G01*
X161988794Y-53872489D01*
X162000000Y-53924000D01*
X162000000Y-54120322D01*
X161989801Y-54169569D01*
X161987967Y-54173806D01*
X161942855Y-54329081D01*
X161942854Y-54329087D01*
X161941209Y-54349999D01*
X161941210Y-54350000D01*
X162000000Y-54350000D01*
X162000000Y-54850000D01*
X161941210Y-54850000D01*
X161942854Y-54870910D01*
X161987968Y-55026195D01*
X161989798Y-55030423D01*
X162000000Y-55079677D01*
X162000000Y-56076000D01*
X161980315Y-56143039D01*
X161927511Y-56188794D01*
X161876000Y-56200000D01*
X159324000Y-56200000D01*
X159256961Y-56180315D01*
X159211206Y-56127511D01*
X159200000Y-56076000D01*
X159200000Y-53924000D01*
X159219685Y-53856961D01*
X159272489Y-53811206D01*
X159324000Y-53800000D01*
X161876000Y-53800000D01*
X161943039Y-53819685D01*
G37*
%TD.AperFunction*%
%TD*%
%TA.AperFunction,Conductor*%
%TO.N,+1V1*%
G36*
X140848166Y-65567313D02*
G01*
X140873476Y-65611150D01*
X140874600Y-65624000D01*
X140874600Y-65841666D01*
X140863742Y-65877460D01*
X140863922Y-65877535D01*
X140863166Y-65879359D01*
X140862130Y-65882776D01*
X140861133Y-65884267D01*
X140849500Y-65942753D01*
X140849500Y-69182246D01*
X140861133Y-69240732D01*
X140862125Y-69242216D01*
X140863158Y-69245621D01*
X140863923Y-69247468D01*
X140863741Y-69247543D01*
X140874600Y-69283333D01*
X140874600Y-69378600D01*
X144477800Y-69378600D01*
X144477800Y-66624000D01*
X144495113Y-66576434D01*
X144538950Y-66551124D01*
X144551800Y-66550000D01*
X145015500Y-66550000D01*
X145063066Y-66567313D01*
X145088376Y-66611150D01*
X145089500Y-66624000D01*
X145089500Y-67276000D01*
X145072187Y-67323566D01*
X145028350Y-67348876D01*
X145015500Y-67350000D01*
X144900000Y-67350000D01*
X144900000Y-67651821D01*
X144899500Y-67657218D01*
X144899500Y-67674076D01*
X144897535Y-67691015D01*
X144894621Y-67703407D01*
X144899145Y-67735840D01*
X144899500Y-67740950D01*
X144899500Y-67827839D01*
X144899842Y-67831527D01*
X144900000Y-67834946D01*
X144900000Y-69676000D01*
X144882687Y-69723566D01*
X144838850Y-69748876D01*
X144826000Y-69750000D01*
X140574000Y-69750000D01*
X140526434Y-69732687D01*
X140501124Y-69688850D01*
X140500000Y-69676000D01*
X140500000Y-66950000D01*
X140374000Y-66950000D01*
X140326434Y-66932687D01*
X140301124Y-66888850D01*
X140300000Y-66876000D01*
X140300000Y-66550000D01*
X139974000Y-66550000D01*
X139926434Y-66532687D01*
X139901124Y-66488850D01*
X139900000Y-66476000D01*
X139900000Y-65716821D01*
X139917313Y-65669255D01*
X139942249Y-65651411D01*
X139942101Y-65651172D01*
X139945688Y-65648950D01*
X139947274Y-65647816D01*
X139947926Y-65647562D01*
X139947933Y-65647561D01*
X139975781Y-65630318D01*
X139980294Y-65627938D01*
X140010265Y-65614706D01*
X140019261Y-65605708D01*
X140032638Y-65595114D01*
X140043452Y-65588419D01*
X140050256Y-65579407D01*
X140092735Y-65551881D01*
X140109312Y-65550000D01*
X140800600Y-65550000D01*
X140848166Y-65567313D01*
G37*
%TD.AperFunction*%
%TD*%
%TA.AperFunction,Conductor*%
%TO.N,+3.3V*%
G36*
X140332201Y-64754421D02*
G01*
X140375326Y-64763000D01*
X140375328Y-64763000D01*
X140524672Y-64763000D01*
X140524674Y-64763000D01*
X140567798Y-64754421D01*
X140582234Y-64753000D01*
X140717766Y-64753000D01*
X140732201Y-64754421D01*
X140775326Y-64763000D01*
X140775328Y-64763000D01*
X140924672Y-64763000D01*
X140924674Y-64763000D01*
X140967798Y-64754421D01*
X140982234Y-64753000D01*
X141117766Y-64753000D01*
X141132201Y-64754421D01*
X141175326Y-64763000D01*
X141175328Y-64763000D01*
X141324672Y-64763000D01*
X141324674Y-64763000D01*
X141367798Y-64754421D01*
X141382234Y-64753000D01*
X141517766Y-64753000D01*
X141532201Y-64754421D01*
X141575326Y-64763000D01*
X141575328Y-64763000D01*
X141724672Y-64763000D01*
X141724674Y-64763000D01*
X141767798Y-64754421D01*
X141782234Y-64753000D01*
X141917766Y-64753000D01*
X141932201Y-64754421D01*
X141975326Y-64763000D01*
X141975328Y-64763000D01*
X142124672Y-64763000D01*
X142124674Y-64763000D01*
X142167798Y-64754421D01*
X142182234Y-64753000D01*
X142317766Y-64753000D01*
X142332201Y-64754421D01*
X142375326Y-64763000D01*
X142375328Y-64763000D01*
X142524672Y-64763000D01*
X142524674Y-64763000D01*
X142567798Y-64754421D01*
X142582234Y-64753000D01*
X142717766Y-64753000D01*
X142732201Y-64754421D01*
X142775326Y-64763000D01*
X142775328Y-64763000D01*
X142924672Y-64763000D01*
X142924674Y-64763000D01*
X142967798Y-64754421D01*
X142982234Y-64753000D01*
X143117766Y-64753000D01*
X143132201Y-64754421D01*
X143175326Y-64763000D01*
X143175328Y-64763000D01*
X143324672Y-64763000D01*
X143324674Y-64763000D01*
X143367798Y-64754421D01*
X143382234Y-64753000D01*
X143917766Y-64753000D01*
X143932201Y-64754421D01*
X143975326Y-64763000D01*
X143975328Y-64763000D01*
X144124672Y-64763000D01*
X144124674Y-64763000D01*
X144167798Y-64754421D01*
X144182234Y-64753000D01*
X144317766Y-64753000D01*
X144332201Y-64754421D01*
X144375326Y-64763000D01*
X144375328Y-64763000D01*
X144524672Y-64763000D01*
X144524674Y-64763000D01*
X144567798Y-64754421D01*
X144582234Y-64753000D01*
X144717766Y-64753000D01*
X144732201Y-64754421D01*
X144775326Y-64763000D01*
X144775328Y-64763000D01*
X144924672Y-64763000D01*
X144924674Y-64763000D01*
X144967798Y-64754421D01*
X144982234Y-64753000D01*
X145117766Y-64753000D01*
X145132201Y-64754421D01*
X145175326Y-64763000D01*
X145175328Y-64763000D01*
X145324672Y-64763000D01*
X145324674Y-64763000D01*
X145367798Y-64754421D01*
X145382234Y-64753000D01*
X145386150Y-64753000D01*
X145433716Y-64770313D01*
X145459026Y-64814150D01*
X145458728Y-64841437D01*
X145449500Y-64887827D01*
X145449500Y-65037172D01*
X145464034Y-65110241D01*
X145466367Y-65115873D01*
X145472000Y-65144191D01*
X145472000Y-65180808D01*
X145466369Y-65209122D01*
X145464034Y-65214758D01*
X145464033Y-65214760D01*
X145464034Y-65214760D01*
X145449500Y-65287826D01*
X145449500Y-65437174D01*
X145454438Y-65462000D01*
X145464034Y-65510241D01*
X145466367Y-65515873D01*
X145472000Y-65544191D01*
X145472000Y-65580808D01*
X145466369Y-65609122D01*
X145464034Y-65614758D01*
X145449500Y-65687827D01*
X145449500Y-65837172D01*
X145464034Y-65910241D01*
X145466367Y-65915873D01*
X145472000Y-65944191D01*
X145472000Y-65980808D01*
X145466369Y-66009122D01*
X145464034Y-66014758D01*
X145449500Y-66087827D01*
X145449500Y-66237172D01*
X145464034Y-66310241D01*
X145466367Y-66315873D01*
X145472000Y-66344191D01*
X145472000Y-66380808D01*
X145466369Y-66409122D01*
X145464034Y-66414758D01*
X145449500Y-66487827D01*
X145449500Y-66637172D01*
X145464034Y-66710241D01*
X145466367Y-66715873D01*
X145472000Y-66744191D01*
X145472000Y-66780808D01*
X145466369Y-66809122D01*
X145464034Y-66814758D01*
X145464033Y-66814760D01*
X145464034Y-66814760D01*
X145450964Y-66880469D01*
X145449500Y-66887827D01*
X145449500Y-67037172D01*
X145464034Y-67110241D01*
X145466367Y-67115873D01*
X145472000Y-67144191D01*
X145472000Y-67580808D01*
X145466369Y-67609122D01*
X145464034Y-67614758D01*
X145449500Y-67687827D01*
X145449500Y-67837172D01*
X145464034Y-67910241D01*
X145466367Y-67915873D01*
X145472000Y-67944191D01*
X145472000Y-67980808D01*
X145466369Y-68009122D01*
X145464034Y-68014758D01*
X145449500Y-68087827D01*
X145449500Y-68237172D01*
X145464034Y-68310241D01*
X145466367Y-68315873D01*
X145472000Y-68344191D01*
X145472000Y-68380808D01*
X145466369Y-68409122D01*
X145464034Y-68414758D01*
X145449500Y-68487827D01*
X145449500Y-68637172D01*
X145464034Y-68710241D01*
X145466367Y-68715873D01*
X145472000Y-68744191D01*
X145472000Y-68780808D01*
X145466369Y-68809122D01*
X145464034Y-68814758D01*
X145449500Y-68887827D01*
X145449500Y-69037172D01*
X145464034Y-69110241D01*
X145466367Y-69115873D01*
X145472000Y-69144191D01*
X145472000Y-69180808D01*
X145466369Y-69209122D01*
X145464034Y-69214758D01*
X145449500Y-69287827D01*
X145449500Y-69437172D01*
X145464034Y-69510241D01*
X145466367Y-69515873D01*
X145472000Y-69544191D01*
X145472000Y-69580808D01*
X145466369Y-69609122D01*
X145464034Y-69614758D01*
X145464033Y-69614760D01*
X145464034Y-69614760D01*
X145449500Y-69687826D01*
X145449500Y-69837174D01*
X145456165Y-69870680D01*
X145464034Y-69910241D01*
X145466367Y-69915873D01*
X145472000Y-69944191D01*
X145472000Y-69980808D01*
X145466369Y-70009122D01*
X145464034Y-70014758D01*
X145449500Y-70087827D01*
X145449500Y-70237173D01*
X145454948Y-70264564D01*
X145447247Y-70314594D01*
X145409190Y-70347969D01*
X145382370Y-70353000D01*
X139946000Y-70353000D01*
X139898434Y-70335687D01*
X139873124Y-70291850D01*
X139872000Y-70279000D01*
X139872000Y-66825704D01*
X139889313Y-66778138D01*
X139933150Y-66752828D01*
X139958853Y-66752829D01*
X139973992Y-66755499D01*
X139973996Y-66755499D01*
X139974000Y-66755500D01*
X140020500Y-66755500D01*
X140068066Y-66772813D01*
X140093376Y-66816650D01*
X140094500Y-66829500D01*
X140094500Y-66880469D01*
X140094501Y-66880523D01*
X140094891Y-66889447D01*
X140094891Y-66889451D01*
X140096405Y-66906753D01*
X140096407Y-66906761D01*
X140123157Y-66991602D01*
X140123158Y-66991604D01*
X140148469Y-67035442D01*
X140179319Y-67076171D01*
X140179320Y-67076171D01*
X140179322Y-67076174D01*
X140256147Y-67125793D01*
X140256148Y-67125793D01*
X140259639Y-67128048D01*
X140258508Y-67129797D01*
X140288302Y-67161065D01*
X140294500Y-67190711D01*
X140294500Y-69680469D01*
X140294501Y-69680523D01*
X140294891Y-69689447D01*
X140294891Y-69689451D01*
X140296405Y-69706753D01*
X140296407Y-69706761D01*
X140323157Y-69791602D01*
X140323158Y-69791604D01*
X140348469Y-69835442D01*
X140379319Y-69876171D01*
X140379320Y-69876171D01*
X140379322Y-69876174D01*
X140456147Y-69925793D01*
X140503713Y-69943106D01*
X140574000Y-69955500D01*
X140574003Y-69955500D01*
X144830470Y-69955500D01*
X144830483Y-69955500D01*
X144839441Y-69955109D01*
X144856757Y-69953594D01*
X144941602Y-69926843D01*
X144985439Y-69901533D01*
X145026174Y-69870678D01*
X145075793Y-69793853D01*
X145093106Y-69746287D01*
X145105500Y-69676000D01*
X145105500Y-67832573D01*
X145105390Y-67827830D01*
X145105038Y-67820226D01*
X145105000Y-67818523D01*
X145105000Y-67737372D01*
X145104999Y-67737365D01*
X145104753Y-67730275D01*
X145104753Y-67730269D01*
X145103906Y-67718082D01*
X145103904Y-67718049D01*
X145103505Y-67714232D01*
X145103599Y-67698021D01*
X145104315Y-67691861D01*
X145105000Y-67680011D01*
X145105000Y-67668254D01*
X145105039Y-67666546D01*
X145105499Y-67656593D01*
X145105500Y-67656563D01*
X145105500Y-67584348D01*
X145122813Y-67536782D01*
X145142499Y-67520263D01*
X145150558Y-67515609D01*
X145174939Y-67501533D01*
X145215674Y-67470678D01*
X145265293Y-67393853D01*
X145282606Y-67346287D01*
X145295000Y-67276000D01*
X145295000Y-66619517D01*
X145294609Y-66610559D01*
X145293094Y-66593243D01*
X145266343Y-66508398D01*
X145241033Y-66464561D01*
X145210178Y-66423826D01*
X145133353Y-66374207D01*
X145133350Y-66374206D01*
X145133349Y-66374205D01*
X145085786Y-66356893D01*
X145015503Y-66344500D01*
X145015500Y-66344500D01*
X144547317Y-66344500D01*
X144547307Y-66344500D01*
X144547276Y-66344501D01*
X144538357Y-66344890D01*
X144530944Y-66345539D01*
X144482051Y-66332434D01*
X144453020Y-66290967D01*
X144450500Y-66271820D01*
X144450500Y-65942753D01*
X144444033Y-65910240D01*
X144438867Y-65884269D01*
X144394552Y-65817948D01*
X144372343Y-65803108D01*
X144328232Y-65773633D01*
X144328233Y-65773633D01*
X144298989Y-65767816D01*
X144269748Y-65762000D01*
X144269746Y-65762000D01*
X141154100Y-65762000D01*
X141106534Y-65744687D01*
X141081224Y-65700850D01*
X141080100Y-65688000D01*
X141080100Y-65619530D01*
X141080098Y-65619476D01*
X141079892Y-65614758D01*
X141079709Y-65610559D01*
X141078194Y-65593243D01*
X141051443Y-65508398D01*
X141026133Y-65464561D01*
X141010937Y-65444499D01*
X140995280Y-65423828D01*
X140995279Y-65423827D01*
X140995278Y-65423826D01*
X140918453Y-65374207D01*
X140918450Y-65374206D01*
X140918449Y-65374205D01*
X140870886Y-65356893D01*
X140800603Y-65344500D01*
X140800600Y-65344500D01*
X140103506Y-65344500D01*
X140103493Y-65344500D01*
X140091917Y-65345155D01*
X140091894Y-65345157D01*
X140069569Y-65347690D01*
X140066877Y-65348013D01*
X140066875Y-65348013D01*
X139980983Y-65379422D01*
X139979033Y-65380396D01*
X139978000Y-65380513D01*
X139977081Y-65380850D01*
X139976999Y-65380628D01*
X139928741Y-65386137D01*
X139886524Y-65358208D01*
X139872000Y-65314178D01*
X139872000Y-64827000D01*
X139889313Y-64779434D01*
X139933150Y-64754124D01*
X139946000Y-64753000D01*
X140317766Y-64753000D01*
X140332201Y-64754421D01*
G37*
%TD.AperFunction*%
%TD*%
M02*
