%TF.GenerationSoftware,KiCad,Pcbnew,7.0.5*%
%TF.CreationDate,2024-02-18T20:54:15+09:00*%
%TF.ProjectId,tdc-tdt-kicad,7464632d-7464-4742-9d6b-696361642e6b,rev?*%
%TF.SameCoordinates,Original*%
%TF.FileFunction,Legend,Bot*%
%TF.FilePolarity,Positive*%
%FSLAX46Y46*%
G04 Gerber Fmt 4.6, Leading zero omitted, Abs format (unit mm)*
G04 Created by KiCad (PCBNEW 7.0.5) date 2024-02-18 20:54:15*
%MOMM*%
%LPD*%
G01*
G04 APERTURE LIST*
G04 Aperture macros list*
%AMRoundRect*
0 Rectangle with rounded corners*
0 $1 Rounding radius*
0 $2 $3 $4 $5 $6 $7 $8 $9 X,Y pos of 4 corners*
0 Add a 4 corners polygon primitive as box body*
4,1,4,$2,$3,$4,$5,$6,$7,$8,$9,$2,$3,0*
0 Add four circle primitives for the rounded corners*
1,1,$1+$1,$2,$3*
1,1,$1+$1,$4,$5*
1,1,$1+$1,$6,$7*
1,1,$1+$1,$8,$9*
0 Add four rect primitives between the rounded corners*
20,1,$1+$1,$2,$3,$4,$5,0*
20,1,$1+$1,$4,$5,$6,$7,0*
20,1,$1+$1,$6,$7,$8,$9,0*
20,1,$1+$1,$8,$9,$2,$3,0*%
G04 Aperture macros list end*
%ADD10C,0.100000*%
%ADD11C,0.250000*%
%ADD12R,1.700000X1.700000*%
%ADD13O,1.700000X1.700000*%
%ADD14RoundRect,1.250000X1.250000X-1.250000X1.250000X1.250000X-1.250000X1.250000X-1.250000X-1.250000X0*%
%ADD15RoundRect,1.250000X1.250000X-2.750000X1.250000X2.750000X-1.250000X2.750000X-1.250000X-2.750000X0*%
%ADD16C,0.650000*%
%ADD17O,2.100000X1.000000*%
%ADD18O,1.800000X1.000000*%
G04 APERTURE END LIST*
D10*
X129000000Y-50000000D02*
X170000000Y-50000000D01*
X170000000Y-84000000D01*
X129000000Y-84000000D01*
X129000000Y-50000000D01*
D11*
X160240288Y-74394619D02*
X159668860Y-74394619D01*
X159954574Y-75394619D02*
X159954574Y-74394619D01*
X159335526Y-75394619D02*
X159335526Y-74394619D01*
X159335526Y-74394619D02*
X159097431Y-74394619D01*
X159097431Y-74394619D02*
X158954574Y-74442238D01*
X158954574Y-74442238D02*
X158859336Y-74537476D01*
X158859336Y-74537476D02*
X158811717Y-74632714D01*
X158811717Y-74632714D02*
X158764098Y-74823190D01*
X158764098Y-74823190D02*
X158764098Y-74966047D01*
X158764098Y-74966047D02*
X158811717Y-75156523D01*
X158811717Y-75156523D02*
X158859336Y-75251761D01*
X158859336Y-75251761D02*
X158954574Y-75347000D01*
X158954574Y-75347000D02*
X159097431Y-75394619D01*
X159097431Y-75394619D02*
X159335526Y-75394619D01*
X157764098Y-75299380D02*
X157811717Y-75347000D01*
X157811717Y-75347000D02*
X157954574Y-75394619D01*
X157954574Y-75394619D02*
X158049812Y-75394619D01*
X158049812Y-75394619D02*
X158192669Y-75347000D01*
X158192669Y-75347000D02*
X158287907Y-75251761D01*
X158287907Y-75251761D02*
X158335526Y-75156523D01*
X158335526Y-75156523D02*
X158383145Y-74966047D01*
X158383145Y-74966047D02*
X158383145Y-74823190D01*
X158383145Y-74823190D02*
X158335526Y-74632714D01*
X158335526Y-74632714D02*
X158287907Y-74537476D01*
X158287907Y-74537476D02*
X158192669Y-74442238D01*
X158192669Y-74442238D02*
X158049812Y-74394619D01*
X158049812Y-74394619D02*
X157954574Y-74394619D01*
X157954574Y-74394619D02*
X157811717Y-74442238D01*
X157811717Y-74442238D02*
X157764098Y-74489857D01*
X157335526Y-75013666D02*
X156573622Y-75013666D01*
X156240288Y-74394619D02*
X155668860Y-74394619D01*
X155954574Y-75394619D02*
X155954574Y-74394619D01*
X155335526Y-75394619D02*
X155335526Y-74394619D01*
X155335526Y-74394619D02*
X155097431Y-74394619D01*
X155097431Y-74394619D02*
X154954574Y-74442238D01*
X154954574Y-74442238D02*
X154859336Y-74537476D01*
X154859336Y-74537476D02*
X154811717Y-74632714D01*
X154811717Y-74632714D02*
X154764098Y-74823190D01*
X154764098Y-74823190D02*
X154764098Y-74966047D01*
X154764098Y-74966047D02*
X154811717Y-75156523D01*
X154811717Y-75156523D02*
X154859336Y-75251761D01*
X154859336Y-75251761D02*
X154954574Y-75347000D01*
X154954574Y-75347000D02*
X155097431Y-75394619D01*
X155097431Y-75394619D02*
X155335526Y-75394619D01*
X154478383Y-74394619D02*
X153906955Y-74394619D01*
X154192669Y-75394619D02*
X154192669Y-74394619D01*
X152811716Y-75394619D02*
X152811716Y-74727952D01*
X152811716Y-74918428D02*
X152764097Y-74823190D01*
X152764097Y-74823190D02*
X152716478Y-74775571D01*
X152716478Y-74775571D02*
X152621240Y-74727952D01*
X152621240Y-74727952D02*
X152526002Y-74727952D01*
X151811716Y-75347000D02*
X151906954Y-75394619D01*
X151906954Y-75394619D02*
X152097430Y-75394619D01*
X152097430Y-75394619D02*
X152192668Y-75347000D01*
X152192668Y-75347000D02*
X152240287Y-75251761D01*
X152240287Y-75251761D02*
X152240287Y-74870809D01*
X152240287Y-74870809D02*
X152192668Y-74775571D01*
X152192668Y-74775571D02*
X152097430Y-74727952D01*
X152097430Y-74727952D02*
X151906954Y-74727952D01*
X151906954Y-74727952D02*
X151811716Y-74775571D01*
X151811716Y-74775571D02*
X151764097Y-74870809D01*
X151764097Y-74870809D02*
X151764097Y-74966047D01*
X151764097Y-74966047D02*
X152240287Y-75061285D01*
X151430763Y-74727952D02*
X151192668Y-75394619D01*
X151192668Y-75394619D02*
X150954573Y-74727952D01*
X150573620Y-75299380D02*
X150526001Y-75347000D01*
X150526001Y-75347000D02*
X150573620Y-75394619D01*
X150573620Y-75394619D02*
X150621239Y-75347000D01*
X150621239Y-75347000D02*
X150573620Y-75299380D01*
X150573620Y-75299380D02*
X150573620Y-75394619D01*
X149573621Y-75394619D02*
X150145049Y-75394619D01*
X149859335Y-75394619D02*
X149859335Y-74394619D01*
X149859335Y-74394619D02*
X149954573Y-74537476D01*
X149954573Y-74537476D02*
X150049811Y-74632714D01*
X150049811Y-74632714D02*
X150145049Y-74680333D01*
X148716478Y-75394619D02*
X148716478Y-74870809D01*
X148716478Y-74870809D02*
X148764097Y-74775571D01*
X148764097Y-74775571D02*
X148859335Y-74727952D01*
X148859335Y-74727952D02*
X149049811Y-74727952D01*
X149049811Y-74727952D02*
X149145049Y-74775571D01*
X148716478Y-75347000D02*
X148811716Y-75394619D01*
X148811716Y-75394619D02*
X149049811Y-75394619D01*
X149049811Y-75394619D02*
X149145049Y-75347000D01*
X149145049Y-75347000D02*
X149192668Y-75251761D01*
X149192668Y-75251761D02*
X149192668Y-75156523D01*
X149192668Y-75156523D02*
X149145049Y-75061285D01*
X149145049Y-75061285D02*
X149049811Y-75013666D01*
X149049811Y-75013666D02*
X148811716Y-75013666D01*
X148811716Y-75013666D02*
X148716478Y-74966047D01*
X160097431Y-77004619D02*
X160097431Y-76004619D01*
X160097431Y-76004619D02*
X159859336Y-76004619D01*
X159859336Y-76004619D02*
X159716479Y-76052238D01*
X159716479Y-76052238D02*
X159621241Y-76147476D01*
X159621241Y-76147476D02*
X159573622Y-76242714D01*
X159573622Y-76242714D02*
X159526003Y-76433190D01*
X159526003Y-76433190D02*
X159526003Y-76576047D01*
X159526003Y-76576047D02*
X159573622Y-76766523D01*
X159573622Y-76766523D02*
X159621241Y-76861761D01*
X159621241Y-76861761D02*
X159716479Y-76957000D01*
X159716479Y-76957000D02*
X159859336Y-77004619D01*
X159859336Y-77004619D02*
X160097431Y-77004619D01*
X158668860Y-77004619D02*
X158668860Y-76480809D01*
X158668860Y-76480809D02*
X158716479Y-76385571D01*
X158716479Y-76385571D02*
X158811717Y-76337952D01*
X158811717Y-76337952D02*
X159002193Y-76337952D01*
X159002193Y-76337952D02*
X159097431Y-76385571D01*
X158668860Y-76957000D02*
X158764098Y-77004619D01*
X158764098Y-77004619D02*
X159002193Y-77004619D01*
X159002193Y-77004619D02*
X159097431Y-76957000D01*
X159097431Y-76957000D02*
X159145050Y-76861761D01*
X159145050Y-76861761D02*
X159145050Y-76766523D01*
X159145050Y-76766523D02*
X159097431Y-76671285D01*
X159097431Y-76671285D02*
X159002193Y-76623666D01*
X159002193Y-76623666D02*
X158764098Y-76623666D01*
X158764098Y-76623666D02*
X158668860Y-76576047D01*
X158335526Y-76337952D02*
X157954574Y-76337952D01*
X158192669Y-76004619D02*
X158192669Y-76861761D01*
X158192669Y-76861761D02*
X158145050Y-76957000D01*
X158145050Y-76957000D02*
X158049812Y-77004619D01*
X158049812Y-77004619D02*
X157954574Y-77004619D01*
X157240288Y-76957000D02*
X157335526Y-77004619D01*
X157335526Y-77004619D02*
X157526002Y-77004619D01*
X157526002Y-77004619D02*
X157621240Y-76957000D01*
X157621240Y-76957000D02*
X157668859Y-76861761D01*
X157668859Y-76861761D02*
X157668859Y-76480809D01*
X157668859Y-76480809D02*
X157621240Y-76385571D01*
X157621240Y-76385571D02*
X157526002Y-76337952D01*
X157526002Y-76337952D02*
X157335526Y-76337952D01*
X157335526Y-76337952D02*
X157240288Y-76385571D01*
X157240288Y-76385571D02*
X157192669Y-76480809D01*
X157192669Y-76480809D02*
X157192669Y-76576047D01*
X157192669Y-76576047D02*
X157668859Y-76671285D01*
X156764097Y-76909380D02*
X156716478Y-76957000D01*
X156716478Y-76957000D02*
X156764097Y-77004619D01*
X156764097Y-77004619D02*
X156811716Y-76957000D01*
X156811716Y-76957000D02*
X156764097Y-76909380D01*
X156764097Y-76909380D02*
X156764097Y-77004619D01*
X156764097Y-76385571D02*
X156716478Y-76433190D01*
X156716478Y-76433190D02*
X156764097Y-76480809D01*
X156764097Y-76480809D02*
X156811716Y-76433190D01*
X156811716Y-76433190D02*
X156764097Y-76385571D01*
X156764097Y-76385571D02*
X156764097Y-76480809D01*
X155573621Y-76099857D02*
X155526002Y-76052238D01*
X155526002Y-76052238D02*
X155430764Y-76004619D01*
X155430764Y-76004619D02*
X155192669Y-76004619D01*
X155192669Y-76004619D02*
X155097431Y-76052238D01*
X155097431Y-76052238D02*
X155049812Y-76099857D01*
X155049812Y-76099857D02*
X155002193Y-76195095D01*
X155002193Y-76195095D02*
X155002193Y-76290333D01*
X155002193Y-76290333D02*
X155049812Y-76433190D01*
X155049812Y-76433190D02*
X155621240Y-77004619D01*
X155621240Y-77004619D02*
X155002193Y-77004619D01*
X154383145Y-76004619D02*
X154287907Y-76004619D01*
X154287907Y-76004619D02*
X154192669Y-76052238D01*
X154192669Y-76052238D02*
X154145050Y-76099857D01*
X154145050Y-76099857D02*
X154097431Y-76195095D01*
X154097431Y-76195095D02*
X154049812Y-76385571D01*
X154049812Y-76385571D02*
X154049812Y-76623666D01*
X154049812Y-76623666D02*
X154097431Y-76814142D01*
X154097431Y-76814142D02*
X154145050Y-76909380D01*
X154145050Y-76909380D02*
X154192669Y-76957000D01*
X154192669Y-76957000D02*
X154287907Y-77004619D01*
X154287907Y-77004619D02*
X154383145Y-77004619D01*
X154383145Y-77004619D02*
X154478383Y-76957000D01*
X154478383Y-76957000D02*
X154526002Y-76909380D01*
X154526002Y-76909380D02*
X154573621Y-76814142D01*
X154573621Y-76814142D02*
X154621240Y-76623666D01*
X154621240Y-76623666D02*
X154621240Y-76385571D01*
X154621240Y-76385571D02*
X154573621Y-76195095D01*
X154573621Y-76195095D02*
X154526002Y-76099857D01*
X154526002Y-76099857D02*
X154478383Y-76052238D01*
X154478383Y-76052238D02*
X154383145Y-76004619D01*
X153668859Y-76099857D02*
X153621240Y-76052238D01*
X153621240Y-76052238D02*
X153526002Y-76004619D01*
X153526002Y-76004619D02*
X153287907Y-76004619D01*
X153287907Y-76004619D02*
X153192669Y-76052238D01*
X153192669Y-76052238D02*
X153145050Y-76099857D01*
X153145050Y-76099857D02*
X153097431Y-76195095D01*
X153097431Y-76195095D02*
X153097431Y-76290333D01*
X153097431Y-76290333D02*
X153145050Y-76433190D01*
X153145050Y-76433190D02*
X153716478Y-77004619D01*
X153716478Y-77004619D02*
X153097431Y-77004619D01*
X152240288Y-76337952D02*
X152240288Y-77004619D01*
X152478383Y-75957000D02*
X152716478Y-76671285D01*
X152716478Y-76671285D02*
X152097431Y-76671285D01*
X151716478Y-76909380D02*
X151668859Y-76957000D01*
X151668859Y-76957000D02*
X151716478Y-77004619D01*
X151716478Y-77004619D02*
X151764097Y-76957000D01*
X151764097Y-76957000D02*
X151716478Y-76909380D01*
X151716478Y-76909380D02*
X151716478Y-77004619D01*
X151287907Y-76099857D02*
X151240288Y-76052238D01*
X151240288Y-76052238D02*
X151145050Y-76004619D01*
X151145050Y-76004619D02*
X150906955Y-76004619D01*
X150906955Y-76004619D02*
X150811717Y-76052238D01*
X150811717Y-76052238D02*
X150764098Y-76099857D01*
X150764098Y-76099857D02*
X150716479Y-76195095D01*
X150716479Y-76195095D02*
X150716479Y-76290333D01*
X150716479Y-76290333D02*
X150764098Y-76433190D01*
X150764098Y-76433190D02*
X151335526Y-77004619D01*
X151335526Y-77004619D02*
X150716479Y-77004619D01*
X150287907Y-76909380D02*
X150240288Y-76957000D01*
X150240288Y-76957000D02*
X150287907Y-77004619D01*
X150287907Y-77004619D02*
X150335526Y-76957000D01*
X150335526Y-76957000D02*
X150287907Y-76909380D01*
X150287907Y-76909380D02*
X150287907Y-77004619D01*
X149287908Y-77004619D02*
X149859336Y-77004619D01*
X149573622Y-77004619D02*
X149573622Y-76004619D01*
X149573622Y-76004619D02*
X149668860Y-76147476D01*
X149668860Y-76147476D02*
X149764098Y-76242714D01*
X149764098Y-76242714D02*
X149859336Y-76290333D01*
X148716479Y-76433190D02*
X148811717Y-76385571D01*
X148811717Y-76385571D02*
X148859336Y-76337952D01*
X148859336Y-76337952D02*
X148906955Y-76242714D01*
X148906955Y-76242714D02*
X148906955Y-76195095D01*
X148906955Y-76195095D02*
X148859336Y-76099857D01*
X148859336Y-76099857D02*
X148811717Y-76052238D01*
X148811717Y-76052238D02*
X148716479Y-76004619D01*
X148716479Y-76004619D02*
X148526003Y-76004619D01*
X148526003Y-76004619D02*
X148430765Y-76052238D01*
X148430765Y-76052238D02*
X148383146Y-76099857D01*
X148383146Y-76099857D02*
X148335527Y-76195095D01*
X148335527Y-76195095D02*
X148335527Y-76242714D01*
X148335527Y-76242714D02*
X148383146Y-76337952D01*
X148383146Y-76337952D02*
X148430765Y-76385571D01*
X148430765Y-76385571D02*
X148526003Y-76433190D01*
X148526003Y-76433190D02*
X148716479Y-76433190D01*
X148716479Y-76433190D02*
X148811717Y-76480809D01*
X148811717Y-76480809D02*
X148859336Y-76528428D01*
X148859336Y-76528428D02*
X148906955Y-76623666D01*
X148906955Y-76623666D02*
X148906955Y-76814142D01*
X148906955Y-76814142D02*
X148859336Y-76909380D01*
X148859336Y-76909380D02*
X148811717Y-76957000D01*
X148811717Y-76957000D02*
X148716479Y-77004619D01*
X148716479Y-77004619D02*
X148526003Y-77004619D01*
X148526003Y-77004619D02*
X148430765Y-76957000D01*
X148430765Y-76957000D02*
X148383146Y-76909380D01*
X148383146Y-76909380D02*
X148335527Y-76814142D01*
X148335527Y-76814142D02*
X148335527Y-76623666D01*
X148335527Y-76623666D02*
X148383146Y-76528428D01*
X148383146Y-76528428D02*
X148430765Y-76480809D01*
X148430765Y-76480809D02*
X148526003Y-76433190D01*
X160097431Y-78614619D02*
X160097431Y-77614619D01*
X160097431Y-77614619D02*
X159859336Y-77614619D01*
X159859336Y-77614619D02*
X159716479Y-77662238D01*
X159716479Y-77662238D02*
X159621241Y-77757476D01*
X159621241Y-77757476D02*
X159573622Y-77852714D01*
X159573622Y-77852714D02*
X159526003Y-78043190D01*
X159526003Y-78043190D02*
X159526003Y-78186047D01*
X159526003Y-78186047D02*
X159573622Y-78376523D01*
X159573622Y-78376523D02*
X159621241Y-78471761D01*
X159621241Y-78471761D02*
X159716479Y-78567000D01*
X159716479Y-78567000D02*
X159859336Y-78614619D01*
X159859336Y-78614619D02*
X160097431Y-78614619D01*
X158716479Y-78567000D02*
X158811717Y-78614619D01*
X158811717Y-78614619D02*
X159002193Y-78614619D01*
X159002193Y-78614619D02*
X159097431Y-78567000D01*
X159097431Y-78567000D02*
X159145050Y-78471761D01*
X159145050Y-78471761D02*
X159145050Y-78090809D01*
X159145050Y-78090809D02*
X159097431Y-77995571D01*
X159097431Y-77995571D02*
X159002193Y-77947952D01*
X159002193Y-77947952D02*
X158811717Y-77947952D01*
X158811717Y-77947952D02*
X158716479Y-77995571D01*
X158716479Y-77995571D02*
X158668860Y-78090809D01*
X158668860Y-78090809D02*
X158668860Y-78186047D01*
X158668860Y-78186047D02*
X159145050Y-78281285D01*
X158287907Y-78567000D02*
X158192669Y-78614619D01*
X158192669Y-78614619D02*
X158002193Y-78614619D01*
X158002193Y-78614619D02*
X157906955Y-78567000D01*
X157906955Y-78567000D02*
X157859336Y-78471761D01*
X157859336Y-78471761D02*
X157859336Y-78424142D01*
X157859336Y-78424142D02*
X157906955Y-78328904D01*
X157906955Y-78328904D02*
X158002193Y-78281285D01*
X158002193Y-78281285D02*
X158145050Y-78281285D01*
X158145050Y-78281285D02*
X158240288Y-78233666D01*
X158240288Y-78233666D02*
X158287907Y-78138428D01*
X158287907Y-78138428D02*
X158287907Y-78090809D01*
X158287907Y-78090809D02*
X158240288Y-77995571D01*
X158240288Y-77995571D02*
X158145050Y-77947952D01*
X158145050Y-77947952D02*
X158002193Y-77947952D01*
X158002193Y-77947952D02*
X157906955Y-77995571D01*
X157430764Y-78614619D02*
X157430764Y-77947952D01*
X157430764Y-77614619D02*
X157478383Y-77662238D01*
X157478383Y-77662238D02*
X157430764Y-77709857D01*
X157430764Y-77709857D02*
X157383145Y-77662238D01*
X157383145Y-77662238D02*
X157430764Y-77614619D01*
X157430764Y-77614619D02*
X157430764Y-77709857D01*
X156526003Y-77947952D02*
X156526003Y-78757476D01*
X156526003Y-78757476D02*
X156573622Y-78852714D01*
X156573622Y-78852714D02*
X156621241Y-78900333D01*
X156621241Y-78900333D02*
X156716479Y-78947952D01*
X156716479Y-78947952D02*
X156859336Y-78947952D01*
X156859336Y-78947952D02*
X156954574Y-78900333D01*
X156526003Y-78567000D02*
X156621241Y-78614619D01*
X156621241Y-78614619D02*
X156811717Y-78614619D01*
X156811717Y-78614619D02*
X156906955Y-78567000D01*
X156906955Y-78567000D02*
X156954574Y-78519380D01*
X156954574Y-78519380D02*
X157002193Y-78424142D01*
X157002193Y-78424142D02*
X157002193Y-78138428D01*
X157002193Y-78138428D02*
X156954574Y-78043190D01*
X156954574Y-78043190D02*
X156906955Y-77995571D01*
X156906955Y-77995571D02*
X156811717Y-77947952D01*
X156811717Y-77947952D02*
X156621241Y-77947952D01*
X156621241Y-77947952D02*
X156526003Y-77995571D01*
X156049812Y-77947952D02*
X156049812Y-78614619D01*
X156049812Y-78043190D02*
X156002193Y-77995571D01*
X156002193Y-77995571D02*
X155906955Y-77947952D01*
X155906955Y-77947952D02*
X155764098Y-77947952D01*
X155764098Y-77947952D02*
X155668860Y-77995571D01*
X155668860Y-77995571D02*
X155621241Y-78090809D01*
X155621241Y-78090809D02*
X155621241Y-78614619D01*
X155145050Y-78519380D02*
X155097431Y-78567000D01*
X155097431Y-78567000D02*
X155145050Y-78614619D01*
X155145050Y-78614619D02*
X155192669Y-78567000D01*
X155192669Y-78567000D02*
X155145050Y-78519380D01*
X155145050Y-78519380D02*
X155145050Y-78614619D01*
X155145050Y-77995571D02*
X155097431Y-78043190D01*
X155097431Y-78043190D02*
X155145050Y-78090809D01*
X155145050Y-78090809D02*
X155192669Y-78043190D01*
X155192669Y-78043190D02*
X155145050Y-77995571D01*
X155145050Y-77995571D02*
X155145050Y-78090809D01*
X153954574Y-78328904D02*
X153478384Y-78328904D01*
X154049812Y-78614619D02*
X153716479Y-77614619D01*
X153716479Y-77614619D02*
X153383146Y-78614619D01*
X153049812Y-78614619D02*
X153049812Y-77614619D01*
X152954574Y-78233666D02*
X152668860Y-78614619D01*
X152668860Y-77947952D02*
X153049812Y-78328904D01*
X152240288Y-78614619D02*
X152240288Y-77947952D01*
X152240288Y-77614619D02*
X152287907Y-77662238D01*
X152287907Y-77662238D02*
X152240288Y-77709857D01*
X152240288Y-77709857D02*
X152192669Y-77662238D01*
X152192669Y-77662238D02*
X152240288Y-77614619D01*
X152240288Y-77614619D02*
X152240288Y-77709857D01*
X151621241Y-78614619D02*
X151716479Y-78567000D01*
X151716479Y-78567000D02*
X151764098Y-78519380D01*
X151764098Y-78519380D02*
X151811717Y-78424142D01*
X151811717Y-78424142D02*
X151811717Y-78138428D01*
X151811717Y-78138428D02*
X151764098Y-78043190D01*
X151764098Y-78043190D02*
X151716479Y-77995571D01*
X151716479Y-77995571D02*
X151621241Y-77947952D01*
X151621241Y-77947952D02*
X151478384Y-77947952D01*
X151478384Y-77947952D02*
X151383146Y-77995571D01*
X151383146Y-77995571D02*
X151335527Y-78043190D01*
X151335527Y-78043190D02*
X151287908Y-78138428D01*
X151287908Y-78138428D02*
X151287908Y-78424142D01*
X151287908Y-78424142D02*
X151335527Y-78519380D01*
X151335527Y-78519380D02*
X151383146Y-78567000D01*
X151383146Y-78567000D02*
X151478384Y-78614619D01*
X151478384Y-78614619D02*
X151621241Y-78614619D01*
X150097431Y-78614619D02*
X150097431Y-77614619D01*
X150097431Y-77614619D02*
X149764098Y-78328904D01*
X149764098Y-78328904D02*
X149430765Y-77614619D01*
X149430765Y-77614619D02*
X149430765Y-78614619D01*
%LPC*%
D12*
%TO.C,J2*%
X132000000Y-72800000D03*
D13*
X132000000Y-70260000D03*
X132000000Y-67720000D03*
X132000000Y-65180000D03*
%TD*%
D14*
%TO.C,J1*%
X167000000Y-54500000D03*
D15*
X167000000Y-67000000D03*
D14*
X167000000Y-79500000D03*
%TD*%
D16*
%TO.C,U1*%
X135360000Y-53710000D03*
X135360000Y-59490000D03*
D17*
X135860000Y-52280000D03*
D18*
X131680000Y-52280000D03*
D17*
X135860000Y-60920000D03*
D18*
X131680000Y-60920000D03*
%TD*%
%LPD*%
M02*
