%TF.GenerationSoftware,KiCad,Pcbnew,7.0.5*%
%TF.CreationDate,2024-02-18T20:54:15+09:00*%
%TF.ProjectId,tdc-tdt-kicad,7464632d-7464-4742-9d6b-696361642e6b,rev?*%
%TF.SameCoordinates,Original*%
%TF.FileFunction,Copper,L2,Inr*%
%TF.FilePolarity,Positive*%
%FSLAX46Y46*%
G04 Gerber Fmt 4.6, Leading zero omitted, Abs format (unit mm)*
G04 Created by KiCad (PCBNEW 7.0.5) date 2024-02-18 20:54:15*
%MOMM*%
%LPD*%
G01*
G04 APERTURE LIST*
G04 Aperture macros list*
%AMRoundRect*
0 Rectangle with rounded corners*
0 $1 Rounding radius*
0 $2 $3 $4 $5 $6 $7 $8 $9 X,Y pos of 4 corners*
0 Add a 4 corners polygon primitive as box body*
4,1,4,$2,$3,$4,$5,$6,$7,$8,$9,$2,$3,0*
0 Add four circle primitives for the rounded corners*
1,1,$1+$1,$2,$3*
1,1,$1+$1,$4,$5*
1,1,$1+$1,$6,$7*
1,1,$1+$1,$8,$9*
0 Add four rect primitives between the rounded corners*
20,1,$1+$1,$2,$3,$4,$5,0*
20,1,$1+$1,$4,$5,$6,$7,0*
20,1,$1+$1,$6,$7,$8,$9,0*
20,1,$1+$1,$8,$9,$2,$3,0*%
G04 Aperture macros list end*
%TA.AperFunction,ComponentPad*%
%ADD10R,1.700000X1.700000*%
%TD*%
%TA.AperFunction,ComponentPad*%
%ADD11O,1.700000X1.700000*%
%TD*%
%TA.AperFunction,ComponentPad*%
%ADD12RoundRect,1.250000X1.250000X-1.250000X1.250000X1.250000X-1.250000X1.250000X-1.250000X-1.250000X0*%
%TD*%
%TA.AperFunction,ComponentPad*%
%ADD13RoundRect,1.250000X1.250000X-2.750000X1.250000X2.750000X-1.250000X2.750000X-1.250000X-2.750000X0*%
%TD*%
%TA.AperFunction,ComponentPad*%
%ADD14O,2.100000X1.000000*%
%TD*%
%TA.AperFunction,ComponentPad*%
%ADD15O,1.800000X1.000000*%
%TD*%
%TA.AperFunction,ViaPad*%
%ADD16C,0.600000*%
%TD*%
%TA.AperFunction,ViaPad*%
%ADD17C,0.800000*%
%TD*%
G04 APERTURE END LIST*
D10*
%TO.N,VCC*%
%TO.C,J2*%
X132000000Y-72800000D03*
D11*
%TO.N,UART1_RX*%
X132000000Y-70260000D03*
%TO.N,UART1_TX*%
X132000000Y-67720000D03*
%TO.N,GND*%
X132000000Y-65180000D03*
%TD*%
D12*
%TO.N,TRAN_START*%
%TO.C,J1*%
X167000000Y-54500000D03*
D13*
%TO.N,GND*%
X167000000Y-67000000D03*
D12*
%TO.N,TRAN_STOP*%
X167000000Y-79500000D03*
%TD*%
D14*
%TO.N,GND*%
%TO.C,U1*%
X135860000Y-52280000D03*
D15*
X131680000Y-52280000D03*
D14*
X135860000Y-60920000D03*
D15*
X131680000Y-60920000D03*
%TD*%
D16*
%TO.N,GND*%
X147400000Y-75900000D03*
D17*
X139710000Y-54600000D03*
X153900000Y-78800000D03*
X160200000Y-71900000D03*
%TO.N,Net-(IC2-TRIGG)*%
X147100000Y-59310000D03*
%TO.N,GND*%
X142200000Y-53887500D03*
X143000000Y-61120000D03*
X140400000Y-61520000D03*
X158200000Y-76800000D03*
%TO.N,+3.3VA*%
X158200000Y-81600000D03*
X158800000Y-81000000D03*
D16*
%TO.N,+1V1*%
X137920000Y-67583000D03*
X147580000Y-69163000D03*
X144749502Y-66994268D03*
X140400000Y-66000000D03*
X147150500Y-66367326D03*
D17*
%TO.N,GND*%
X141500000Y-68700000D03*
X165000000Y-60000000D03*
D16*
X153650000Y-53800000D03*
D17*
X168500000Y-59500000D03*
X140742500Y-80544227D03*
X149600000Y-62600000D03*
X130000000Y-76000000D03*
X136912500Y-77144227D03*
X150450000Y-51000000D03*
D16*
X136050000Y-70400000D03*
X144200000Y-73800000D03*
D17*
X152400000Y-64200000D03*
X141450000Y-83144227D03*
X143800000Y-66400000D03*
X141500000Y-67550000D03*
X168500000Y-73000000D03*
X138000000Y-51000000D03*
D16*
X163945000Y-63055000D03*
X153550000Y-56600000D03*
D17*
X168500000Y-83000000D03*
D16*
X145150000Y-56200000D03*
D17*
X141500000Y-66400000D03*
X142650000Y-66400000D03*
X168000000Y-51000000D03*
X162000000Y-83000000D03*
X142650000Y-68700000D03*
X130000000Y-81000000D03*
X132000000Y-51000000D03*
D16*
X135800000Y-64920000D03*
X156400000Y-73280000D03*
X145362500Y-53187500D03*
D17*
X154400000Y-60800000D03*
X141000000Y-51000000D03*
X143800000Y-67550000D03*
X131500000Y-83000000D03*
X139912500Y-81444227D03*
X146950000Y-51000000D03*
X146312500Y-81344227D03*
X164500000Y-51000000D03*
X165500000Y-83000000D03*
D16*
X140000000Y-74200000D03*
D17*
X148650000Y-66400000D03*
D16*
X161350000Y-59200000D03*
D17*
X168500000Y-61500000D03*
X149700000Y-69200000D03*
X142650000Y-67550000D03*
X150400000Y-64200000D03*
X130000000Y-78500000D03*
X134600000Y-83100000D03*
D16*
X153600000Y-58200000D03*
D17*
X168500000Y-75000000D03*
X154950000Y-51000000D03*
X143800000Y-68700000D03*
X137950000Y-83144227D03*
%TO.N,+3.3V*%
X143112500Y-81444227D03*
X138112500Y-76944227D03*
D16*
X139975000Y-63335000D03*
X140050000Y-72000000D03*
X135000000Y-68000000D03*
X143482475Y-72057023D03*
D17*
X144500000Y-80144227D03*
X139512500Y-76944227D03*
%TO.N,+3.3VA*%
X156950000Y-52000000D03*
D16*
X156600000Y-60500000D03*
X161979500Y-62570000D03*
D17*
X144400000Y-54400000D03*
X150350000Y-53000000D03*
D16*
X152800000Y-51920000D03*
%TO.N,VBUS*%
X136430000Y-54200000D03*
X136400000Y-59000498D03*
X131950000Y-78150000D03*
%TO.N,/QSPI_SS*%
X137570882Y-73495389D03*
X142000000Y-75000000D03*
D17*
%TO.N,+2V8*%
X156874332Y-71001770D03*
D16*
X156700000Y-63000000D03*
%TO.N,MUX2*%
X162880000Y-71480000D03*
X160160000Y-74200000D03*
%TO.N,Net-(IC2-TRIGG)*%
X156000000Y-64200000D03*
%TD*%
%TA.AperFunction,Conductor*%
%TO.N,GND*%
G36*
X168004131Y-50200770D02*
G01*
X168226607Y-50215352D01*
X168243013Y-50217512D01*
X168397768Y-50248294D01*
X168457605Y-50260197D01*
X168473599Y-50264482D01*
X168680779Y-50334811D01*
X168696081Y-50341149D01*
X168892308Y-50437917D01*
X168906652Y-50446199D01*
X169088578Y-50567758D01*
X169101699Y-50577827D01*
X169266204Y-50722093D01*
X169277906Y-50733795D01*
X169422168Y-50898295D01*
X169432242Y-50911423D01*
X169536487Y-51067437D01*
X169553799Y-51093345D01*
X169562082Y-51107691D01*
X169658850Y-51303918D01*
X169665189Y-51319222D01*
X169735514Y-51526393D01*
X169739801Y-51542392D01*
X169757201Y-51629863D01*
X169757202Y-51728579D01*
X169719426Y-51819780D01*
X169649624Y-51889584D01*
X169558423Y-51927361D01*
X169459707Y-51927362D01*
X169368506Y-51889586D01*
X169358826Y-51882786D01*
X169188208Y-51756864D01*
X169188197Y-51756857D01*
X168955180Y-51633705D01*
X168706418Y-51546658D01*
X168706406Y-51546655D01*
X168447439Y-51497656D01*
X168447441Y-51497656D01*
X168337806Y-51491500D01*
X165662193Y-51491500D01*
X165552566Y-51497656D01*
X165552558Y-51497656D01*
X165552558Y-51497657D01*
X165552556Y-51497657D01*
X165552551Y-51497658D01*
X165293593Y-51546655D01*
X165293581Y-51546658D01*
X165044819Y-51633705D01*
X164811802Y-51756857D01*
X164811791Y-51756864D01*
X164599735Y-51913369D01*
X164413369Y-52099735D01*
X164256864Y-52311791D01*
X164256857Y-52311802D01*
X164133705Y-52544819D01*
X164046658Y-52793581D01*
X164046655Y-52793593D01*
X163997656Y-53052559D01*
X163991500Y-53162176D01*
X163991500Y-55837806D01*
X163997656Y-55947433D01*
X163997658Y-55947448D01*
X164046655Y-56206406D01*
X164046658Y-56206418D01*
X164133705Y-56455180D01*
X164133706Y-56455182D01*
X164256860Y-56688202D01*
X164413369Y-56900264D01*
X164599736Y-57086631D01*
X164811798Y-57243140D01*
X165044818Y-57366294D01*
X165293590Y-57453344D01*
X165552558Y-57502343D01*
X165662176Y-57508499D01*
X165662177Y-57508499D01*
X165662195Y-57508500D01*
X168337804Y-57508499D01*
X168337806Y-57508499D01*
X168357738Y-57507379D01*
X168447442Y-57502343D01*
X168706410Y-57453344D01*
X168955182Y-57366294D01*
X169188202Y-57243140D01*
X169396266Y-57089581D01*
X169485599Y-57047585D01*
X169584207Y-57042972D01*
X169677074Y-57076445D01*
X169750063Y-57142909D01*
X169792061Y-57232245D01*
X169799500Y-57293146D01*
X169799500Y-62707474D01*
X169780242Y-62804293D01*
X169725398Y-62886372D01*
X169643319Y-62941216D01*
X169546500Y-62960474D01*
X169449681Y-62941216D01*
X169396264Y-62911038D01*
X169187934Y-62757284D01*
X169187930Y-62757281D01*
X168954987Y-62634167D01*
X168954969Y-62634160D01*
X168706284Y-62547141D01*
X168706277Y-62547139D01*
X168447383Y-62498154D01*
X168447385Y-62498154D01*
X168337805Y-62492000D01*
X167254000Y-62492000D01*
X167254000Y-66031300D01*
X167101690Y-66000000D01*
X166949288Y-66000000D01*
X166797663Y-66015419D01*
X166746000Y-66031628D01*
X166746000Y-62492000D01*
X165662194Y-62492000D01*
X165552615Y-62498154D01*
X165293722Y-62547139D01*
X165293715Y-62547141D01*
X165045030Y-62634160D01*
X165045012Y-62634167D01*
X164812069Y-62757281D01*
X164812056Y-62757290D01*
X164600065Y-62913746D01*
X164413746Y-63100065D01*
X164257290Y-63312056D01*
X164257281Y-63312069D01*
X164134167Y-63545012D01*
X164134160Y-63545030D01*
X164047141Y-63793715D01*
X164047139Y-63793722D01*
X163998154Y-64052615D01*
X163992000Y-64162194D01*
X163992000Y-66746000D01*
X166032790Y-66746000D01*
X166006434Y-66847791D01*
X165996133Y-67050910D01*
X166026931Y-67251945D01*
X166027692Y-67254000D01*
X163992000Y-67254000D01*
X163992000Y-69837805D01*
X163998154Y-69947384D01*
X164047139Y-70206277D01*
X164047141Y-70206284D01*
X164134160Y-70454969D01*
X164134167Y-70454987D01*
X164257281Y-70687930D01*
X164257290Y-70687943D01*
X164413746Y-70899934D01*
X164600065Y-71086253D01*
X164812056Y-71242709D01*
X164812069Y-71242718D01*
X165045012Y-71365832D01*
X165045030Y-71365839D01*
X165293715Y-71452858D01*
X165293722Y-71452860D01*
X165552616Y-71501845D01*
X165552614Y-71501845D01*
X165662194Y-71507999D01*
X165662230Y-71508000D01*
X166746000Y-71508000D01*
X166746000Y-67968699D01*
X166898310Y-68000000D01*
X167050712Y-68000000D01*
X167202337Y-67984581D01*
X167254000Y-67968371D01*
X167254000Y-71508000D01*
X168337770Y-71508000D01*
X168337805Y-71507999D01*
X168447384Y-71501845D01*
X168706277Y-71452860D01*
X168706284Y-71452858D01*
X168954969Y-71365839D01*
X168954987Y-71365832D01*
X169187930Y-71242718D01*
X169187936Y-71242714D01*
X169396263Y-71088962D01*
X169485600Y-71046964D01*
X169584207Y-71042351D01*
X169677075Y-71075824D01*
X169750063Y-71142288D01*
X169792061Y-71231625D01*
X169799500Y-71292525D01*
X169799500Y-76706853D01*
X169780242Y-76803672D01*
X169725398Y-76885751D01*
X169643319Y-76940595D01*
X169546500Y-76959853D01*
X169449681Y-76940595D01*
X169396263Y-76910416D01*
X169188208Y-76756864D01*
X169188197Y-76756857D01*
X168955180Y-76633705D01*
X168706418Y-76546658D01*
X168706406Y-76546655D01*
X168447439Y-76497656D01*
X168447441Y-76497656D01*
X168337806Y-76491500D01*
X165662193Y-76491500D01*
X165552566Y-76497656D01*
X165552558Y-76497656D01*
X165552558Y-76497657D01*
X165552556Y-76497657D01*
X165552551Y-76497658D01*
X165293593Y-76546655D01*
X165293581Y-76546658D01*
X165044819Y-76633705D01*
X164811802Y-76756857D01*
X164811791Y-76756864D01*
X164599735Y-76913369D01*
X164413369Y-77099735D01*
X164256864Y-77311791D01*
X164256857Y-77311802D01*
X164133705Y-77544819D01*
X164046658Y-77793581D01*
X164046655Y-77793593D01*
X163997656Y-78052559D01*
X163991500Y-78162176D01*
X163991500Y-80837806D01*
X163997656Y-80947433D01*
X163997658Y-80947448D01*
X164046655Y-81206406D01*
X164046658Y-81206418D01*
X164133705Y-81455180D01*
X164256857Y-81688197D01*
X164256864Y-81688208D01*
X164411208Y-81897336D01*
X164413369Y-81900264D01*
X164599736Y-82086631D01*
X164811798Y-82243140D01*
X165044818Y-82366294D01*
X165293590Y-82453344D01*
X165552558Y-82502343D01*
X165662176Y-82508499D01*
X165662177Y-82508499D01*
X165662195Y-82508500D01*
X168337804Y-82508499D01*
X168337806Y-82508499D01*
X168357738Y-82507379D01*
X168447442Y-82502343D01*
X168706410Y-82453344D01*
X168955182Y-82366294D01*
X169188202Y-82243140D01*
X169358828Y-82117211D01*
X169448162Y-82075215D01*
X169546770Y-82070602D01*
X169639637Y-82104075D01*
X169712626Y-82170539D01*
X169754624Y-82259875D01*
X169759237Y-82358483D01*
X169757201Y-82370136D01*
X169739801Y-82457607D01*
X169735514Y-82473606D01*
X169665189Y-82680777D01*
X169658850Y-82696081D01*
X169562082Y-82892308D01*
X169553799Y-82906654D01*
X169478669Y-83019094D01*
X169432247Y-83088568D01*
X169422168Y-83101704D01*
X169277912Y-83266198D01*
X169266198Y-83277912D01*
X169101704Y-83422168D01*
X169088568Y-83432247D01*
X169019094Y-83478669D01*
X168906654Y-83553799D01*
X168892308Y-83562082D01*
X168696081Y-83658850D01*
X168680777Y-83665189D01*
X168473606Y-83735515D01*
X168457605Y-83739802D01*
X168243019Y-83782485D01*
X168226596Y-83784648D01*
X168171451Y-83788262D01*
X168004130Y-83799229D01*
X167995862Y-83799500D01*
X131004138Y-83799500D01*
X130995868Y-83799229D01*
X130773403Y-83784648D01*
X130756980Y-83782485D01*
X130542394Y-83739802D01*
X130526393Y-83735515D01*
X130319222Y-83665189D01*
X130303918Y-83658850D01*
X130107691Y-83562082D01*
X130093345Y-83553799D01*
X130067437Y-83536487D01*
X129911423Y-83432242D01*
X129898295Y-83422168D01*
X129733795Y-83277906D01*
X129722093Y-83266204D01*
X129577827Y-83101699D01*
X129567758Y-83088578D01*
X129446199Y-82906652D01*
X129437917Y-82892308D01*
X129341149Y-82696081D01*
X129334810Y-82680777D01*
X129274239Y-82502343D01*
X129264482Y-82473599D01*
X129260197Y-82457605D01*
X129217514Y-82243019D01*
X129215352Y-82226609D01*
X129200768Y-82004101D01*
X129200500Y-81995886D01*
X129200500Y-81960118D01*
X129200500Y-81960117D01*
X129200500Y-81444227D01*
X142198996Y-81444227D01*
X142218958Y-81634157D01*
X142277973Y-81815785D01*
X142373460Y-81981172D01*
X142501244Y-82123091D01*
X142501248Y-82123094D01*
X142655747Y-82235344D01*
X142655748Y-82235345D01*
X142830212Y-82313021D01*
X142830217Y-82313022D01*
X142830220Y-82313023D01*
X143017008Y-82352726D01*
X143017013Y-82352727D01*
X143017015Y-82352727D01*
X143207985Y-82352727D01*
X143207987Y-82352727D01*
X143394788Y-82313021D01*
X143569252Y-82235345D01*
X143723753Y-82123093D01*
X143729048Y-82117213D01*
X143851539Y-81981172D01*
X143863696Y-81960117D01*
X143947027Y-81815783D01*
X144006042Y-81634155D01*
X144009632Y-81600000D01*
X157286496Y-81600000D01*
X157306458Y-81789930D01*
X157365473Y-81971558D01*
X157460960Y-82136945D01*
X157588744Y-82278864D01*
X157588748Y-82278867D01*
X157743247Y-82391117D01*
X157743248Y-82391118D01*
X157917712Y-82468794D01*
X157917717Y-82468795D01*
X157917720Y-82468796D01*
X158104508Y-82508499D01*
X158104513Y-82508500D01*
X158104515Y-82508500D01*
X158295485Y-82508500D01*
X158295487Y-82508500D01*
X158413654Y-82483382D01*
X158482279Y-82468796D01*
X158482279Y-82468795D01*
X158482288Y-82468794D01*
X158656752Y-82391118D01*
X158811253Y-82278866D01*
X158939040Y-82136944D01*
X159034527Y-81971556D01*
X159034528Y-81971551D01*
X159034531Y-81971547D01*
X159039920Y-81959444D01*
X159043268Y-81960934D01*
X159078860Y-81897336D01*
X159156364Y-81836197D01*
X159168390Y-81830459D01*
X159256752Y-81791118D01*
X159411253Y-81678866D01*
X159539040Y-81536944D01*
X159634527Y-81371556D01*
X159693542Y-81189928D01*
X159713504Y-81000000D01*
X159693542Y-80810072D01*
X159634527Y-80628444D01*
X159634526Y-80628443D01*
X159634526Y-80628441D01*
X159539039Y-80463054D01*
X159411255Y-80321135D01*
X159411251Y-80321132D01*
X159256752Y-80208882D01*
X159256753Y-80208882D01*
X159082288Y-80131206D01*
X159082279Y-80131203D01*
X158895491Y-80091500D01*
X158895487Y-80091500D01*
X158704513Y-80091500D01*
X158704508Y-80091500D01*
X158517720Y-80131203D01*
X158517711Y-80131206D01*
X158343246Y-80208882D01*
X158188748Y-80321132D01*
X158188744Y-80321135D01*
X158060960Y-80463054D01*
X157965474Y-80628440D01*
X157960083Y-80640550D01*
X157956751Y-80639066D01*
X157921009Y-80702817D01*
X157843456Y-80763894D01*
X157831612Y-80769539D01*
X157743248Y-80808881D01*
X157743247Y-80808882D01*
X157588748Y-80921132D01*
X157588744Y-80921135D01*
X157460960Y-81063054D01*
X157365473Y-81228441D01*
X157306458Y-81410069D01*
X157286496Y-81600000D01*
X144009632Y-81600000D01*
X144026004Y-81444227D01*
X144011665Y-81307801D01*
X144020697Y-81209504D01*
X144066661Y-81122142D01*
X144142557Y-81059019D01*
X144236833Y-81029745D01*
X144315880Y-81033888D01*
X144404508Y-81052726D01*
X144404513Y-81052727D01*
X144404515Y-81052727D01*
X144595485Y-81052727D01*
X144595487Y-81052727D01*
X144782288Y-81013021D01*
X144956752Y-80935345D01*
X145111253Y-80823093D01*
X145239040Y-80681171D01*
X145334527Y-80515783D01*
X145393542Y-80334155D01*
X145413504Y-80144227D01*
X145393542Y-79954299D01*
X145334527Y-79772671D01*
X145334526Y-79772670D01*
X145334526Y-79772668D01*
X145239039Y-79607281D01*
X145111255Y-79465362D01*
X145111251Y-79465359D01*
X144956752Y-79353109D01*
X144956753Y-79353109D01*
X144782288Y-79275433D01*
X144782279Y-79275430D01*
X144595491Y-79235727D01*
X144595487Y-79235727D01*
X144404513Y-79235727D01*
X144404508Y-79235727D01*
X144217720Y-79275430D01*
X144217711Y-79275433D01*
X144043246Y-79353109D01*
X143888748Y-79465359D01*
X143888744Y-79465362D01*
X143760960Y-79607281D01*
X143665473Y-79772668D01*
X143606458Y-79954296D01*
X143586496Y-80144227D01*
X143586496Y-80144228D01*
X143600834Y-80280649D01*
X143591801Y-80378951D01*
X143545837Y-80466313D01*
X143469941Y-80529435D01*
X143375665Y-80558708D01*
X143296621Y-80554566D01*
X143207987Y-80535727D01*
X143017013Y-80535727D01*
X143017008Y-80535727D01*
X142830220Y-80575430D01*
X142830211Y-80575433D01*
X142655746Y-80653109D01*
X142501248Y-80765359D01*
X142501244Y-80765362D01*
X142373460Y-80907281D01*
X142277973Y-81072668D01*
X142218958Y-81254296D01*
X142198996Y-81444227D01*
X129200500Y-81444227D01*
X129200500Y-78150001D01*
X131136384Y-78150001D01*
X131156783Y-78331046D01*
X131216957Y-78503016D01*
X131313886Y-78657277D01*
X131313889Y-78657281D01*
X131442719Y-78786111D01*
X131596985Y-78883043D01*
X131768953Y-78943217D01*
X131931665Y-78961550D01*
X131949999Y-78963616D01*
X131950000Y-78963616D01*
X131950001Y-78963616D01*
X131966648Y-78961740D01*
X132131047Y-78943217D01*
X132303015Y-78883043D01*
X132457281Y-78786111D01*
X132586111Y-78657281D01*
X132683043Y-78503015D01*
X132743217Y-78331047D01*
X132763616Y-78150000D01*
X132743217Y-77968953D01*
X132683043Y-77796985D01*
X132586111Y-77642719D01*
X132457281Y-77513889D01*
X132457277Y-77513886D01*
X132303016Y-77416957D01*
X132217031Y-77386869D01*
X132131047Y-77356783D01*
X132040523Y-77346583D01*
X131950001Y-77336384D01*
X131949999Y-77336384D01*
X131768953Y-77356783D01*
X131596983Y-77416957D01*
X131442722Y-77513886D01*
X131442718Y-77513889D01*
X131313889Y-77642718D01*
X131313886Y-77642722D01*
X131216957Y-77796983D01*
X131156783Y-77968953D01*
X131136384Y-78149998D01*
X131136384Y-78150001D01*
X129200500Y-78150001D01*
X129200500Y-76944227D01*
X137198996Y-76944227D01*
X137218958Y-77134157D01*
X137277973Y-77315785D01*
X137373460Y-77481172D01*
X137501244Y-77623091D01*
X137501248Y-77623094D01*
X137655747Y-77735344D01*
X137655748Y-77735345D01*
X137830212Y-77813021D01*
X137830217Y-77813022D01*
X137830220Y-77813023D01*
X138017008Y-77852726D01*
X138017013Y-77852727D01*
X138017015Y-77852727D01*
X138207985Y-77852727D01*
X138207987Y-77852727D01*
X138394788Y-77813021D01*
X138569252Y-77735345D01*
X138663792Y-77666656D01*
X138753436Y-77625330D01*
X138852076Y-77621453D01*
X138944690Y-77655620D01*
X138961189Y-77666644D01*
X139055748Y-77735345D01*
X139230212Y-77813021D01*
X139230217Y-77813022D01*
X139230220Y-77813023D01*
X139417008Y-77852726D01*
X139417013Y-77852727D01*
X139417015Y-77852727D01*
X139607985Y-77852727D01*
X139607987Y-77852727D01*
X139794788Y-77813021D01*
X139969252Y-77735345D01*
X140123753Y-77623093D01*
X140251540Y-77481171D01*
X140347027Y-77315783D01*
X140406042Y-77134155D01*
X140426004Y-76944227D01*
X140406042Y-76754299D01*
X140347027Y-76572671D01*
X140347026Y-76572670D01*
X140347026Y-76572668D01*
X140251539Y-76407281D01*
X140123755Y-76265362D01*
X140123751Y-76265359D01*
X139969252Y-76153109D01*
X139969253Y-76153109D01*
X139794788Y-76075433D01*
X139794779Y-76075430D01*
X139607991Y-76035727D01*
X139607987Y-76035727D01*
X139417013Y-76035727D01*
X139417008Y-76035727D01*
X139230220Y-76075430D01*
X139230211Y-76075433D01*
X139055747Y-76153109D01*
X138961209Y-76221795D01*
X138871561Y-76263123D01*
X138772921Y-76266998D01*
X138680307Y-76232831D01*
X138663791Y-76221795D01*
X138569252Y-76153109D01*
X138394788Y-76075433D01*
X138394779Y-76075430D01*
X138207991Y-76035727D01*
X138207987Y-76035727D01*
X138017013Y-76035727D01*
X138017008Y-76035727D01*
X137830220Y-76075430D01*
X137830211Y-76075433D01*
X137655746Y-76153109D01*
X137501248Y-76265359D01*
X137501244Y-76265362D01*
X137373460Y-76407281D01*
X137277973Y-76572668D01*
X137218958Y-76754296D01*
X137198996Y-76944227D01*
X129200500Y-76944227D01*
X129200500Y-75000001D01*
X141186384Y-75000001D01*
X141206783Y-75181046D01*
X141266957Y-75353016D01*
X141363886Y-75507277D01*
X141363889Y-75507281D01*
X141492719Y-75636111D01*
X141646985Y-75733043D01*
X141818953Y-75793217D01*
X141981665Y-75811550D01*
X141999999Y-75813616D01*
X142000000Y-75813616D01*
X142000001Y-75813616D01*
X142016648Y-75811740D01*
X142181047Y-75793217D01*
X142353015Y-75733043D01*
X142507281Y-75636111D01*
X142636111Y-75507281D01*
X142733043Y-75353015D01*
X142793217Y-75181047D01*
X142813616Y-75000000D01*
X142793217Y-74818953D01*
X142733043Y-74646985D01*
X142636111Y-74492719D01*
X142507281Y-74363889D01*
X142507277Y-74363886D01*
X142353016Y-74266957D01*
X142242916Y-74228432D01*
X142181047Y-74206783D01*
X142120857Y-74200001D01*
X159346384Y-74200001D01*
X159353928Y-74266957D01*
X159364849Y-74363886D01*
X159366783Y-74381046D01*
X159426957Y-74553016D01*
X159486001Y-74646983D01*
X159523889Y-74707281D01*
X159652719Y-74836111D01*
X159806985Y-74933043D01*
X159978953Y-74993217D01*
X160141665Y-75011550D01*
X160159999Y-75013616D01*
X160160000Y-75013616D01*
X160160001Y-75013616D01*
X160176648Y-75011740D01*
X160341047Y-74993217D01*
X160513015Y-74933043D01*
X160667281Y-74836111D01*
X160796111Y-74707281D01*
X160893043Y-74553015D01*
X160953217Y-74381047D01*
X160973616Y-74200000D01*
X160953217Y-74018953D01*
X160893043Y-73846985D01*
X160837881Y-73759196D01*
X160796113Y-73692722D01*
X160796110Y-73692718D01*
X160667281Y-73563889D01*
X160667277Y-73563886D01*
X160513016Y-73466957D01*
X160427030Y-73436869D01*
X160341047Y-73406783D01*
X160250523Y-73396583D01*
X160160001Y-73386384D01*
X160159999Y-73386384D01*
X159978953Y-73406783D01*
X159806983Y-73466957D01*
X159652722Y-73563886D01*
X159652718Y-73563889D01*
X159523889Y-73692718D01*
X159523886Y-73692722D01*
X159426957Y-73846983D01*
X159366783Y-74018953D01*
X159346384Y-74199998D01*
X159346384Y-74200001D01*
X142120857Y-74200001D01*
X142090523Y-74196583D01*
X142000001Y-74186384D01*
X141999999Y-74186384D01*
X141818953Y-74206783D01*
X141646983Y-74266957D01*
X141492722Y-74363886D01*
X141492718Y-74363889D01*
X141363889Y-74492718D01*
X141363886Y-74492722D01*
X141266957Y-74646983D01*
X141206783Y-74818953D01*
X141186384Y-74999998D01*
X141186384Y-75000001D01*
X129200500Y-75000001D01*
X129200500Y-70260000D01*
X130636844Y-70260000D01*
X130655435Y-70484365D01*
X130655436Y-70484370D01*
X130710703Y-70702612D01*
X130710706Y-70702620D01*
X130801138Y-70908789D01*
X130924278Y-71097269D01*
X130945238Y-71120037D01*
X130996644Y-71204312D01*
X131011885Y-71301844D01*
X130988642Y-71397785D01*
X130930454Y-71477527D01*
X130910720Y-71493925D01*
X130786742Y-71586735D01*
X130786737Y-71586740D01*
X130699113Y-71703791D01*
X130648009Y-71840803D01*
X130641501Y-71901345D01*
X130641500Y-71901365D01*
X130641500Y-73698634D01*
X130641501Y-73698654D01*
X130648009Y-73759196D01*
X130648011Y-73759201D01*
X130699111Y-73896204D01*
X130699112Y-73896205D01*
X130699113Y-73896208D01*
X130786737Y-74013259D01*
X130786740Y-74013262D01*
X130903791Y-74100886D01*
X130903792Y-74100886D01*
X130903796Y-74100889D01*
X131040799Y-74151989D01*
X131040802Y-74151989D01*
X131040804Y-74151990D01*
X131040802Y-74151990D01*
X131089065Y-74157178D01*
X131101362Y-74158500D01*
X131101365Y-74158500D01*
X132898635Y-74158500D01*
X132898638Y-74158500D01*
X132921479Y-74156044D01*
X132959196Y-74151990D01*
X132959197Y-74151989D01*
X132959201Y-74151989D01*
X133096204Y-74100889D01*
X133213261Y-74013261D01*
X133300889Y-73896204D01*
X133351989Y-73759201D01*
X133358500Y-73698638D01*
X133358500Y-73495389D01*
X136757266Y-73495389D01*
X136777665Y-73676436D01*
X136806624Y-73759196D01*
X136837839Y-73848405D01*
X136934768Y-74002666D01*
X136934771Y-74002670D01*
X137063600Y-74131499D01*
X137063604Y-74131502D01*
X137172614Y-74199998D01*
X137217867Y-74228432D01*
X137389835Y-74288606D01*
X137552547Y-74306939D01*
X137570881Y-74309005D01*
X137570882Y-74309005D01*
X137570883Y-74309005D01*
X137587530Y-74307129D01*
X137751929Y-74288606D01*
X137923897Y-74228432D01*
X138078163Y-74131500D01*
X138206993Y-74002670D01*
X138303925Y-73848404D01*
X138364099Y-73676436D01*
X138384498Y-73495389D01*
X138381294Y-73466957D01*
X138380746Y-73462092D01*
X138364099Y-73314342D01*
X138303925Y-73142374D01*
X138206993Y-72988108D01*
X138078163Y-72859278D01*
X138078159Y-72859275D01*
X137923898Y-72762346D01*
X137837912Y-72732259D01*
X137751929Y-72702172D01*
X137661405Y-72691972D01*
X137570883Y-72681773D01*
X137570881Y-72681773D01*
X137389835Y-72702172D01*
X137217865Y-72762346D01*
X137063604Y-72859275D01*
X137063600Y-72859278D01*
X136934771Y-72988107D01*
X136934768Y-72988111D01*
X136837839Y-73142372D01*
X136777665Y-73314342D01*
X136760470Y-73466957D01*
X136757266Y-73495389D01*
X133358500Y-73495389D01*
X133358500Y-72000000D01*
X139236384Y-72000000D01*
X139256783Y-72181047D01*
X139267979Y-72213043D01*
X139316957Y-72353016D01*
X139413886Y-72507277D01*
X139413889Y-72507281D01*
X139542718Y-72636110D01*
X139542722Y-72636113D01*
X139633473Y-72693136D01*
X139696985Y-72733043D01*
X139868953Y-72793217D01*
X140031665Y-72811550D01*
X140049999Y-72813616D01*
X140050000Y-72813616D01*
X140050001Y-72813616D01*
X140066648Y-72811740D01*
X140231047Y-72793217D01*
X140403015Y-72733043D01*
X140557281Y-72636111D01*
X140686111Y-72507281D01*
X140783043Y-72353015D01*
X140843217Y-72181047D01*
X140857191Y-72057023D01*
X142668859Y-72057023D01*
X142689258Y-72238070D01*
X142708694Y-72293616D01*
X142749432Y-72410039D01*
X142846361Y-72564300D01*
X142846364Y-72564304D01*
X142975193Y-72693133D01*
X142975197Y-72693136D01*
X143038708Y-72733043D01*
X143129460Y-72790066D01*
X143301428Y-72850240D01*
X143464140Y-72868573D01*
X143482474Y-72870639D01*
X143482475Y-72870639D01*
X143482476Y-72870639D01*
X143499123Y-72868763D01*
X143663522Y-72850240D01*
X143835490Y-72790066D01*
X143989756Y-72693134D01*
X144118586Y-72564304D01*
X144215518Y-72410038D01*
X144275692Y-72238070D01*
X144296091Y-72057023D01*
X144275692Y-71875976D01*
X144215518Y-71704008D01*
X144200832Y-71680636D01*
X144118588Y-71549745D01*
X144118585Y-71549741D01*
X143989756Y-71420912D01*
X143989752Y-71420909D01*
X143835491Y-71323980D01*
X143745596Y-71292525D01*
X143663522Y-71263806D01*
X143572998Y-71253606D01*
X143482476Y-71243407D01*
X143482474Y-71243407D01*
X143301428Y-71263806D01*
X143129458Y-71323980D01*
X142975197Y-71420909D01*
X142975193Y-71420912D01*
X142846364Y-71549741D01*
X142846361Y-71549745D01*
X142749432Y-71704006D01*
X142691152Y-71870563D01*
X142689258Y-71875976D01*
X142668859Y-72057023D01*
X140857191Y-72057023D01*
X140863616Y-72000000D01*
X140862182Y-71987277D01*
X140853506Y-71910270D01*
X140843217Y-71818953D01*
X140783043Y-71646985D01*
X140745188Y-71586740D01*
X140686113Y-71492722D01*
X140686110Y-71492718D01*
X140557281Y-71363889D01*
X140557277Y-71363886D01*
X140403016Y-71266957D01*
X140317031Y-71236869D01*
X140231047Y-71206783D01*
X140140523Y-71196583D01*
X140050001Y-71186384D01*
X140049999Y-71186384D01*
X139868953Y-71206783D01*
X139696983Y-71266957D01*
X139542722Y-71363886D01*
X139542718Y-71363889D01*
X139413889Y-71492718D01*
X139413886Y-71492722D01*
X139316957Y-71646983D01*
X139256783Y-71818953D01*
X139237818Y-71987277D01*
X139236384Y-72000000D01*
X133358500Y-72000000D01*
X133358500Y-71901362D01*
X133355189Y-71870563D01*
X133351990Y-71840803D01*
X133349086Y-71833016D01*
X133300889Y-71703796D01*
X133300886Y-71703792D01*
X133300886Y-71703791D01*
X133213262Y-71586740D01*
X133213261Y-71586739D01*
X133089279Y-71493926D01*
X133023313Y-71420487D01*
X132990473Y-71327394D01*
X132995757Y-71228820D01*
X133038362Y-71139771D01*
X133054764Y-71120034D01*
X133075721Y-71097269D01*
X133081149Y-71088962D01*
X133138115Y-71001769D01*
X155960828Y-71001769D01*
X155980790Y-71191700D01*
X156039805Y-71373328D01*
X156135292Y-71538715D01*
X156263076Y-71680634D01*
X156263080Y-71680637D01*
X156417579Y-71792887D01*
X156417580Y-71792888D01*
X156592044Y-71870564D01*
X156592049Y-71870565D01*
X156592052Y-71870566D01*
X156778840Y-71910269D01*
X156778845Y-71910270D01*
X156778847Y-71910270D01*
X156969817Y-71910270D01*
X156969819Y-71910270D01*
X157156620Y-71870564D01*
X157331084Y-71792888D01*
X157485585Y-71680636D01*
X157515885Y-71646985D01*
X157613371Y-71538715D01*
X157631105Y-71508000D01*
X157647271Y-71480000D01*
X162066384Y-71480000D01*
X162086783Y-71661047D01*
X162101815Y-71704006D01*
X162146957Y-71833016D01*
X162243886Y-71987277D01*
X162243889Y-71987281D01*
X162372718Y-72116110D01*
X162372722Y-72116113D01*
X162476063Y-72181047D01*
X162526985Y-72213043D01*
X162698953Y-72273217D01*
X162861665Y-72291550D01*
X162879999Y-72293616D01*
X162880000Y-72293616D01*
X162880001Y-72293616D01*
X162896648Y-72291740D01*
X163061047Y-72273217D01*
X163233015Y-72213043D01*
X163387281Y-72116111D01*
X163516111Y-71987281D01*
X163613043Y-71833015D01*
X163673217Y-71661047D01*
X163693616Y-71480000D01*
X163693337Y-71477527D01*
X163686958Y-71420909D01*
X163673217Y-71298953D01*
X163613043Y-71126985D01*
X163608677Y-71120037D01*
X163516113Y-70972722D01*
X163516110Y-70972718D01*
X163387281Y-70843889D01*
X163387277Y-70843886D01*
X163233016Y-70746957D01*
X163147030Y-70716870D01*
X163061047Y-70686783D01*
X162970523Y-70676583D01*
X162880001Y-70666384D01*
X162879999Y-70666384D01*
X162698953Y-70686783D01*
X162526983Y-70746957D01*
X162372722Y-70843886D01*
X162372718Y-70843889D01*
X162243889Y-70972718D01*
X162243886Y-70972722D01*
X162146957Y-71126983D01*
X162086783Y-71298953D01*
X162066663Y-71477527D01*
X162066384Y-71480000D01*
X157647271Y-71480000D01*
X157708859Y-71373326D01*
X157767874Y-71191698D01*
X157787836Y-71001770D01*
X157767874Y-70811842D01*
X157708859Y-70630214D01*
X157708858Y-70630213D01*
X157708858Y-70630211D01*
X157613371Y-70464824D01*
X157485587Y-70322905D01*
X157485583Y-70322902D01*
X157331084Y-70210652D01*
X157331085Y-70210652D01*
X157156620Y-70132976D01*
X157156611Y-70132973D01*
X156969823Y-70093270D01*
X156969819Y-70093270D01*
X156778845Y-70093270D01*
X156778840Y-70093270D01*
X156592052Y-70132973D01*
X156592043Y-70132976D01*
X156417578Y-70210652D01*
X156263080Y-70322902D01*
X156263076Y-70322905D01*
X156135292Y-70464824D01*
X156039805Y-70630211D01*
X155980790Y-70811839D01*
X155960828Y-71001769D01*
X133138115Y-71001769D01*
X133198860Y-70908791D01*
X133289296Y-70702616D01*
X133344564Y-70484368D01*
X133363156Y-70260000D01*
X133344564Y-70035632D01*
X133289296Y-69817384D01*
X133224771Y-69670281D01*
X133198861Y-69611210D01*
X133075721Y-69422730D01*
X132923246Y-69257100D01*
X132923243Y-69257098D01*
X132923240Y-69257094D01*
X132836587Y-69189648D01*
X132772016Y-69114988D01*
X132740930Y-69021294D01*
X132748065Y-68922837D01*
X132792334Y-68834604D01*
X132836584Y-68790353D01*
X132923240Y-68722906D01*
X133075722Y-68557268D01*
X133198860Y-68368791D01*
X133205780Y-68353016D01*
X133221997Y-68316043D01*
X133289296Y-68162616D01*
X133330476Y-68000001D01*
X134186384Y-68000001D01*
X134206783Y-68181046D01*
X134266957Y-68353016D01*
X134363886Y-68507277D01*
X134363889Y-68507281D01*
X134492718Y-68636110D01*
X134492722Y-68636113D01*
X134523929Y-68655722D01*
X134646985Y-68733043D01*
X134818953Y-68793217D01*
X134981665Y-68811550D01*
X134999999Y-68813616D01*
X135000000Y-68813616D01*
X135000001Y-68813616D01*
X135016648Y-68811740D01*
X135181047Y-68793217D01*
X135353015Y-68733043D01*
X135507281Y-68636111D01*
X135636111Y-68507281D01*
X135733043Y-68353015D01*
X135793217Y-68181047D01*
X135813616Y-68000000D01*
X135793217Y-67818953D01*
X135733043Y-67646985D01*
X135692839Y-67583001D01*
X137106384Y-67583001D01*
X137113593Y-67646983D01*
X137126783Y-67764047D01*
X137148110Y-67824996D01*
X137186957Y-67936016D01*
X137283886Y-68090277D01*
X137283889Y-68090281D01*
X137412718Y-68219110D01*
X137412722Y-68219113D01*
X137464631Y-68251730D01*
X137566985Y-68316043D01*
X137738953Y-68376217D01*
X137894235Y-68393713D01*
X137919999Y-68396616D01*
X137920000Y-68396616D01*
X137920001Y-68396616D01*
X137936648Y-68394740D01*
X138101047Y-68376217D01*
X138273015Y-68316043D01*
X138427281Y-68219111D01*
X138556111Y-68090281D01*
X138653043Y-67936015D01*
X138713217Y-67764047D01*
X138733616Y-67583000D01*
X138713217Y-67401953D01*
X138653043Y-67229985D01*
X138618691Y-67175315D01*
X138556113Y-67075722D01*
X138556110Y-67075718D01*
X138474660Y-66994268D01*
X143935886Y-66994268D01*
X143956285Y-67175315D01*
X143967296Y-67206783D01*
X144016459Y-67347284D01*
X144113388Y-67501545D01*
X144113391Y-67501549D01*
X144242220Y-67630378D01*
X144242224Y-67630381D01*
X144384851Y-67720000D01*
X144396487Y-67727311D01*
X144568455Y-67787485D01*
X144731167Y-67805818D01*
X144749501Y-67807884D01*
X144749502Y-67807884D01*
X144749503Y-67807884D01*
X144766150Y-67806008D01*
X144930549Y-67787485D01*
X145102517Y-67727311D01*
X145256783Y-67630379D01*
X145385613Y-67501549D01*
X145482545Y-67347283D01*
X145542719Y-67175315D01*
X145563118Y-66994268D01*
X145542719Y-66813221D01*
X145482545Y-66641253D01*
X145479315Y-66636113D01*
X145385615Y-66486990D01*
X145385612Y-66486986D01*
X145265952Y-66367326D01*
X146336884Y-66367326D01*
X146350366Y-66486987D01*
X146357283Y-66548372D01*
X146417457Y-66720342D01*
X146514386Y-66874603D01*
X146514389Y-66874607D01*
X146643218Y-67003436D01*
X146643222Y-67003439D01*
X146758259Y-67075722D01*
X146797485Y-67100369D01*
X146969453Y-67160543D01*
X147150500Y-67180942D01*
X147218675Y-67173260D01*
X147317037Y-67181556D01*
X147404741Y-67226864D01*
X147468430Y-67302286D01*
X147498409Y-67396339D01*
X147500000Y-67424669D01*
X147500000Y-68154911D01*
X147480742Y-68251730D01*
X147425898Y-68333809D01*
X147343819Y-68388653D01*
X147330562Y-68393713D01*
X147226985Y-68429956D01*
X147072722Y-68526886D01*
X147072718Y-68526889D01*
X146943889Y-68655718D01*
X146943886Y-68655722D01*
X146846957Y-68809983D01*
X146786783Y-68981953D01*
X146766384Y-69162998D01*
X146766384Y-69163001D01*
X146786783Y-69344046D01*
X146846957Y-69516016D01*
X146906772Y-69611210D01*
X146943889Y-69670281D01*
X147072719Y-69799111D01*
X147226985Y-69896043D01*
X147398953Y-69956217D01*
X147561665Y-69974550D01*
X147579999Y-69976616D01*
X147580000Y-69976616D01*
X147580001Y-69976616D01*
X147596648Y-69974740D01*
X147761047Y-69956217D01*
X147933015Y-69896043D01*
X148087281Y-69799111D01*
X148216111Y-69670281D01*
X148313043Y-69516015D01*
X148373217Y-69344047D01*
X148393616Y-69163000D01*
X148373217Y-68981953D01*
X148357332Y-68936558D01*
X148343534Y-68838814D01*
X148368191Y-68743227D01*
X148427550Y-68664352D01*
X148512576Y-68614197D01*
X148596136Y-68600000D01*
X151700000Y-68600000D01*
X151700000Y-64200000D01*
X155186384Y-64200000D01*
X155202501Y-64343047D01*
X155206783Y-64381046D01*
X155266957Y-64553016D01*
X155363886Y-64707277D01*
X155363889Y-64707281D01*
X155492718Y-64836110D01*
X155492722Y-64836113D01*
X155635774Y-64925999D01*
X155646985Y-64933043D01*
X155818953Y-64993217D01*
X155981665Y-65011550D01*
X155999999Y-65013616D01*
X156000000Y-65013616D01*
X156000001Y-65013616D01*
X156016648Y-65011740D01*
X156181047Y-64993217D01*
X156353015Y-64933043D01*
X156507281Y-64836111D01*
X156636111Y-64707281D01*
X156733043Y-64553015D01*
X156793217Y-64381047D01*
X156813616Y-64200000D01*
X156794668Y-64031834D01*
X156802965Y-63933473D01*
X156848273Y-63845769D01*
X156923695Y-63782080D01*
X156962510Y-63764711D01*
X157053015Y-63733043D01*
X157207281Y-63636111D01*
X157336111Y-63507281D01*
X157433043Y-63353015D01*
X157493217Y-63181047D01*
X157513616Y-63000000D01*
X157493217Y-62818953D01*
X157433043Y-62646985D01*
X157424984Y-62634160D01*
X157384670Y-62570000D01*
X161165884Y-62570000D01*
X161186283Y-62751047D01*
X161188468Y-62757290D01*
X161246457Y-62923016D01*
X161343386Y-63077277D01*
X161343389Y-63077281D01*
X161472219Y-63206111D01*
X161626485Y-63303043D01*
X161798453Y-63363217D01*
X161961165Y-63381550D01*
X161979499Y-63383616D01*
X161979500Y-63383616D01*
X161979501Y-63383616D01*
X161996148Y-63381740D01*
X162160547Y-63363217D01*
X162332515Y-63303043D01*
X162486781Y-63206111D01*
X162615611Y-63077281D01*
X162712543Y-62923015D01*
X162772717Y-62751047D01*
X162793116Y-62570000D01*
X162772717Y-62388953D01*
X162712543Y-62216985D01*
X162615611Y-62062719D01*
X162486781Y-61933889D01*
X162486777Y-61933886D01*
X162332516Y-61836957D01*
X162246531Y-61806870D01*
X162160547Y-61776783D01*
X162030915Y-61762177D01*
X161979501Y-61756384D01*
X161979499Y-61756384D01*
X161798453Y-61776783D01*
X161626483Y-61836957D01*
X161472222Y-61933886D01*
X161472218Y-61933889D01*
X161343389Y-62062718D01*
X161343386Y-62062722D01*
X161246457Y-62216983D01*
X161186283Y-62388953D01*
X161168460Y-62547141D01*
X161165884Y-62570000D01*
X157384670Y-62570000D01*
X157336113Y-62492722D01*
X157336110Y-62492718D01*
X157207281Y-62363889D01*
X157207277Y-62363886D01*
X157053016Y-62266957D01*
X156967030Y-62236870D01*
X156881047Y-62206783D01*
X156790523Y-62196583D01*
X156700001Y-62186384D01*
X156699999Y-62186384D01*
X156518953Y-62206783D01*
X156346983Y-62266957D01*
X156192722Y-62363886D01*
X156192718Y-62363889D01*
X156063889Y-62492718D01*
X156063886Y-62492722D01*
X155966957Y-62646983D01*
X155906783Y-62818953D01*
X155886384Y-62999998D01*
X155886384Y-63000001D01*
X155905331Y-63168161D01*
X155897034Y-63266527D01*
X155851725Y-63354231D01*
X155776303Y-63417920D01*
X155737483Y-63435290D01*
X155646986Y-63466956D01*
X155492722Y-63563886D01*
X155492718Y-63563889D01*
X155363889Y-63692718D01*
X155363886Y-63692722D01*
X155266957Y-63846983D01*
X155206783Y-64018953D01*
X155192174Y-64148616D01*
X155186384Y-64200000D01*
X151700000Y-64200000D01*
X151700000Y-62000000D01*
X147500000Y-62000000D01*
X147500000Y-65309982D01*
X147480742Y-65406801D01*
X147425898Y-65488880D01*
X147343819Y-65543724D01*
X147247000Y-65562982D01*
X147218673Y-65561391D01*
X147150502Y-65553710D01*
X147150499Y-65553710D01*
X146969453Y-65574109D01*
X146797483Y-65634283D01*
X146643222Y-65731212D01*
X146643218Y-65731215D01*
X146514389Y-65860044D01*
X146514386Y-65860048D01*
X146417457Y-66014309D01*
X146361228Y-66175004D01*
X146357283Y-66186279D01*
X146336884Y-66367326D01*
X145265952Y-66367326D01*
X145256783Y-66358157D01*
X145256779Y-66358154D01*
X145102518Y-66261225D01*
X145016532Y-66231138D01*
X144930549Y-66201051D01*
X144840025Y-66190851D01*
X144749503Y-66180652D01*
X144749501Y-66180652D01*
X144568455Y-66201051D01*
X144396485Y-66261225D01*
X144242224Y-66358154D01*
X144242220Y-66358157D01*
X144113391Y-66486986D01*
X144113388Y-66486990D01*
X144016459Y-66641251D01*
X143956285Y-66813221D01*
X143941225Y-66946886D01*
X143935886Y-66994268D01*
X138474660Y-66994268D01*
X138427281Y-66946889D01*
X138427277Y-66946886D01*
X138273016Y-66849957D01*
X138168029Y-66813221D01*
X138101047Y-66789783D01*
X138010523Y-66779583D01*
X137920001Y-66769384D01*
X137919999Y-66769384D01*
X137738953Y-66789783D01*
X137566983Y-66849957D01*
X137412722Y-66946886D01*
X137412718Y-66946889D01*
X137283889Y-67075718D01*
X137283886Y-67075722D01*
X137186957Y-67229983D01*
X137126783Y-67401953D01*
X137106384Y-67582998D01*
X137106384Y-67583001D01*
X135692839Y-67583001D01*
X135692838Y-67583000D01*
X135636113Y-67492722D01*
X135636110Y-67492718D01*
X135507281Y-67363889D01*
X135507277Y-67363886D01*
X135353016Y-67266957D01*
X135238435Y-67226864D01*
X135181047Y-67206783D01*
X135090523Y-67196583D01*
X135000001Y-67186384D01*
X134999999Y-67186384D01*
X134818953Y-67206783D01*
X134646983Y-67266957D01*
X134492722Y-67363886D01*
X134492718Y-67363889D01*
X134363889Y-67492718D01*
X134363886Y-67492722D01*
X134266957Y-67646983D01*
X134206783Y-67818953D01*
X134186384Y-67999998D01*
X134186384Y-68000001D01*
X133330476Y-68000001D01*
X133344564Y-67944368D01*
X133363156Y-67720000D01*
X133344564Y-67495632D01*
X133289296Y-67277384D01*
X133211651Y-67100369D01*
X133198861Y-67071210D01*
X133075721Y-66882730D01*
X132923246Y-66717100D01*
X132923231Y-66717086D01*
X132836183Y-66649333D01*
X132771608Y-66574668D01*
X132740523Y-66480974D01*
X132747658Y-66382517D01*
X132791929Y-66294285D01*
X132836186Y-66250028D01*
X132922897Y-66182538D01*
X132922898Y-66182537D01*
X133075328Y-66016953D01*
X133075329Y-66016952D01*
X133086404Y-66000000D01*
X139586384Y-66000000D01*
X139606783Y-66181047D01*
X139608614Y-66186279D01*
X139666957Y-66353016D01*
X139763886Y-66507277D01*
X139763889Y-66507281D01*
X139892718Y-66636110D01*
X139892722Y-66636113D01*
X140026771Y-66720342D01*
X140046985Y-66733043D01*
X140218953Y-66793217D01*
X140381665Y-66811550D01*
X140399999Y-66813616D01*
X140400000Y-66813616D01*
X140400001Y-66813616D01*
X140416648Y-66811740D01*
X140581047Y-66793217D01*
X140753015Y-66733043D01*
X140907281Y-66636111D01*
X141036111Y-66507281D01*
X141133043Y-66353015D01*
X141193217Y-66181047D01*
X141213616Y-66000000D01*
X141193217Y-65818953D01*
X141133043Y-65646985D01*
X141117628Y-65622453D01*
X141036113Y-65492722D01*
X141036110Y-65492718D01*
X140907281Y-65363889D01*
X140907277Y-65363886D01*
X140753016Y-65266957D01*
X140667030Y-65236869D01*
X140581047Y-65206783D01*
X140490523Y-65196583D01*
X140400001Y-65186384D01*
X140399999Y-65186384D01*
X140218953Y-65206783D01*
X140046983Y-65266957D01*
X139892722Y-65363886D01*
X139892718Y-65363889D01*
X139763889Y-65492718D01*
X139763886Y-65492722D01*
X139666957Y-65646983D01*
X139606783Y-65818953D01*
X139586384Y-66000000D01*
X133086404Y-66000000D01*
X133198418Y-65828550D01*
X133198420Y-65828546D01*
X133288822Y-65622453D01*
X133288823Y-65622449D01*
X133336545Y-65434000D01*
X132431116Y-65434000D01*
X132459493Y-65389844D01*
X132500000Y-65251889D01*
X132500000Y-65108111D01*
X132459493Y-64970156D01*
X132431116Y-64926000D01*
X133336544Y-64926000D01*
X133336544Y-64925999D01*
X133288823Y-64737550D01*
X133288822Y-64737546D01*
X133198420Y-64531453D01*
X133198418Y-64531449D01*
X133075329Y-64343047D01*
X133075328Y-64343046D01*
X132922898Y-64177462D01*
X132922893Y-64177457D01*
X132745305Y-64039235D01*
X132547372Y-63932118D01*
X132547370Y-63932117D01*
X132334507Y-63859041D01*
X132253999Y-63845606D01*
X132253999Y-64746324D01*
X132142315Y-64695320D01*
X132035763Y-64680000D01*
X131964237Y-64680000D01*
X131857685Y-64695320D01*
X131746000Y-64746325D01*
X131746000Y-63845606D01*
X131665492Y-63859041D01*
X131452629Y-63932117D01*
X131452627Y-63932118D01*
X131254694Y-64039235D01*
X131077106Y-64177457D01*
X131077101Y-64177462D01*
X130924671Y-64343046D01*
X130924670Y-64343047D01*
X130801581Y-64531449D01*
X130801579Y-64531453D01*
X130711177Y-64737546D01*
X130711176Y-64737550D01*
X130663455Y-64925999D01*
X130663456Y-64926000D01*
X131568884Y-64926000D01*
X131540507Y-64970156D01*
X131500000Y-65108111D01*
X131500000Y-65251889D01*
X131540507Y-65389844D01*
X131568884Y-65434000D01*
X130663455Y-65434000D01*
X130711176Y-65622449D01*
X130711177Y-65622453D01*
X130801579Y-65828546D01*
X130801581Y-65828550D01*
X130924670Y-66016952D01*
X130924671Y-66016953D01*
X131077101Y-66182537D01*
X131077104Y-66182540D01*
X131163814Y-66250029D01*
X131228389Y-66324694D01*
X131259476Y-66418387D01*
X131252342Y-66516845D01*
X131208072Y-66605077D01*
X131163817Y-66649333D01*
X131076763Y-66717091D01*
X131076753Y-66717100D01*
X130924278Y-66882730D01*
X130801138Y-67071210D01*
X130710706Y-67277379D01*
X130710703Y-67277387D01*
X130655436Y-67495629D01*
X130655435Y-67495634D01*
X130636844Y-67720000D01*
X130655435Y-67944365D01*
X130655436Y-67944370D01*
X130710703Y-68162612D01*
X130710706Y-68162620D01*
X130801138Y-68368789D01*
X130924278Y-68557269D01*
X131076753Y-68722899D01*
X131076755Y-68722901D01*
X131076760Y-68722906D01*
X131163409Y-68790348D01*
X131227983Y-68865014D01*
X131259069Y-68958707D01*
X131251934Y-69057164D01*
X131207664Y-69145397D01*
X131163410Y-69189650D01*
X131108485Y-69232400D01*
X131076761Y-69257093D01*
X131076753Y-69257100D01*
X130924278Y-69422730D01*
X130801138Y-69611210D01*
X130710706Y-69817379D01*
X130710703Y-69817387D01*
X130655436Y-70035629D01*
X130655435Y-70035634D01*
X130636844Y-70260000D01*
X129200500Y-70260000D01*
X129200500Y-63335001D01*
X139161384Y-63335001D01*
X139181783Y-63516046D01*
X139241957Y-63688016D01*
X139338886Y-63842277D01*
X139338889Y-63842281D01*
X139467718Y-63971110D01*
X139467722Y-63971113D01*
X139597431Y-64052615D01*
X139621985Y-64068043D01*
X139793953Y-64128217D01*
X139956665Y-64146550D01*
X139974999Y-64148616D01*
X139975000Y-64148616D01*
X139975001Y-64148616D01*
X139991648Y-64146740D01*
X140156047Y-64128217D01*
X140328015Y-64068043D01*
X140482281Y-63971111D01*
X140611111Y-63842281D01*
X140708043Y-63688015D01*
X140768217Y-63516047D01*
X140788616Y-63335000D01*
X140768217Y-63153953D01*
X140708043Y-62981985D01*
X140665165Y-62913746D01*
X140611113Y-62827722D01*
X140611110Y-62827718D01*
X140482281Y-62698889D01*
X140482277Y-62698886D01*
X140328016Y-62601957D01*
X140171359Y-62547141D01*
X140156047Y-62541783D01*
X140065523Y-62531583D01*
X139975001Y-62521384D01*
X139974999Y-62521384D01*
X139793953Y-62541783D01*
X139621983Y-62601957D01*
X139467722Y-62698886D01*
X139467718Y-62698889D01*
X139338889Y-62827718D01*
X139338886Y-62827722D01*
X139241957Y-62981983D01*
X139181783Y-63153953D01*
X139161384Y-63334998D01*
X139161384Y-63335001D01*
X129200500Y-63335001D01*
X129200500Y-61174000D01*
X130303693Y-61174000D01*
X130344224Y-61307611D01*
X130437822Y-61482721D01*
X130437827Y-61482729D01*
X130563786Y-61636210D01*
X130563789Y-61636213D01*
X130717270Y-61762172D01*
X130717278Y-61762177D01*
X130892388Y-61855775D01*
X131082393Y-61913413D01*
X131230480Y-61927999D01*
X131230483Y-61928000D01*
X131426000Y-61928000D01*
X131426000Y-61220000D01*
X131934000Y-61220000D01*
X131934000Y-61928000D01*
X132129517Y-61928000D01*
X132129519Y-61927999D01*
X132277606Y-61913413D01*
X132467611Y-61855775D01*
X132642721Y-61762177D01*
X132642729Y-61762172D01*
X132796210Y-61636213D01*
X132796213Y-61636210D01*
X132922172Y-61482729D01*
X132922177Y-61482721D01*
X133015775Y-61307611D01*
X133056307Y-61174000D01*
X134333693Y-61174000D01*
X134374224Y-61307611D01*
X134467822Y-61482721D01*
X134467827Y-61482729D01*
X134593786Y-61636210D01*
X134593789Y-61636213D01*
X134747270Y-61762172D01*
X134747278Y-61762177D01*
X134922388Y-61855775D01*
X135112393Y-61913413D01*
X135260480Y-61927999D01*
X135260483Y-61928000D01*
X135606000Y-61928000D01*
X135606000Y-61220000D01*
X136114000Y-61220000D01*
X136114000Y-61928000D01*
X136459517Y-61928000D01*
X136459519Y-61927999D01*
X136607606Y-61913413D01*
X136797611Y-61855775D01*
X136972721Y-61762177D01*
X136972729Y-61762172D01*
X137126210Y-61636213D01*
X137126213Y-61636210D01*
X137252172Y-61482729D01*
X137252177Y-61482721D01*
X137345775Y-61307611D01*
X137386307Y-61174000D01*
X136569651Y-61174000D01*
X136615610Y-61145543D01*
X136683201Y-61056038D01*
X136713895Y-60948160D01*
X136703546Y-60836479D01*
X136653552Y-60736078D01*
X136576682Y-60666000D01*
X137386307Y-60666000D01*
X137386306Y-60665999D01*
X137345775Y-60532388D01*
X137328463Y-60500000D01*
X155786384Y-60500000D01*
X155806783Y-60681047D01*
X155826039Y-60736078D01*
X155866957Y-60853016D01*
X155963886Y-61007277D01*
X155963889Y-61007281D01*
X156092718Y-61136110D01*
X156092722Y-61136113D01*
X156161746Y-61179484D01*
X156246985Y-61233043D01*
X156418953Y-61293217D01*
X156581665Y-61311550D01*
X156599999Y-61313616D01*
X156600000Y-61313616D01*
X156600001Y-61313616D01*
X156616648Y-61311740D01*
X156781047Y-61293217D01*
X156953015Y-61233043D01*
X157107281Y-61136111D01*
X157236111Y-61007281D01*
X157333043Y-60853015D01*
X157393217Y-60681047D01*
X157413616Y-60500000D01*
X157393217Y-60318953D01*
X157333043Y-60146985D01*
X157289587Y-60077826D01*
X157236113Y-59992722D01*
X157236110Y-59992718D01*
X157107281Y-59863889D01*
X157107277Y-59863886D01*
X156953016Y-59766957D01*
X156814998Y-59718663D01*
X156781047Y-59706783D01*
X156690523Y-59696583D01*
X156600001Y-59686384D01*
X156599999Y-59686384D01*
X156418953Y-59706783D01*
X156246983Y-59766957D01*
X156092722Y-59863886D01*
X156092718Y-59863889D01*
X155963889Y-59992718D01*
X155963886Y-59992722D01*
X155866957Y-60146983D01*
X155806783Y-60318953D01*
X155786384Y-60500000D01*
X137328463Y-60500000D01*
X137252177Y-60357278D01*
X137252172Y-60357270D01*
X137126213Y-60203789D01*
X137126210Y-60203786D01*
X136972729Y-60077827D01*
X136972721Y-60077822D01*
X136941349Y-60061053D01*
X136865041Y-59998428D01*
X136818507Y-59911368D01*
X136808832Y-59813127D01*
X136837489Y-59718663D01*
X136900114Y-59642355D01*
X136902880Y-59640117D01*
X136907267Y-59636617D01*
X136907281Y-59636609D01*
X137036111Y-59507779D01*
X137133043Y-59353513D01*
X137148269Y-59310000D01*
X146186496Y-59310000D01*
X146206458Y-59499930D01*
X146265473Y-59681558D01*
X146360960Y-59846945D01*
X146488744Y-59988864D01*
X146488748Y-59988867D01*
X146494050Y-59992719D01*
X146611189Y-60077826D01*
X146643247Y-60101117D01*
X146643248Y-60101118D01*
X146817712Y-60178794D01*
X146817717Y-60178795D01*
X146817720Y-60178796D01*
X147004508Y-60218499D01*
X147004513Y-60218500D01*
X147004515Y-60218500D01*
X147195485Y-60218500D01*
X147195487Y-60218500D01*
X147382288Y-60178794D01*
X147556752Y-60101118D01*
X147711253Y-59988866D01*
X147839040Y-59846944D01*
X147934527Y-59681556D01*
X147993542Y-59499928D01*
X148013504Y-59310000D01*
X147993542Y-59120072D01*
X147934527Y-58938444D01*
X147934526Y-58938443D01*
X147934526Y-58938441D01*
X147839039Y-58773054D01*
X147711255Y-58631135D01*
X147711251Y-58631132D01*
X147556752Y-58518882D01*
X147556753Y-58518882D01*
X147382288Y-58441206D01*
X147382279Y-58441203D01*
X147195491Y-58401500D01*
X147195487Y-58401500D01*
X147004513Y-58401500D01*
X147004508Y-58401500D01*
X146817720Y-58441203D01*
X146817711Y-58441206D01*
X146643246Y-58518882D01*
X146488748Y-58631132D01*
X146488744Y-58631135D01*
X146360960Y-58773054D01*
X146265473Y-58938441D01*
X146206458Y-59120069D01*
X146186496Y-59310000D01*
X137148269Y-59310000D01*
X137193217Y-59181545D01*
X137213616Y-59000498D01*
X137212129Y-58987304D01*
X137206624Y-58938441D01*
X137193217Y-58819451D01*
X137133043Y-58647483D01*
X137052237Y-58518882D01*
X137036113Y-58493220D01*
X137036110Y-58493216D01*
X136907281Y-58364387D01*
X136907277Y-58364384D01*
X136753016Y-58267455D01*
X136667030Y-58237368D01*
X136581047Y-58207281D01*
X136490523Y-58197081D01*
X136400001Y-58186882D01*
X136399999Y-58186882D01*
X136218953Y-58207281D01*
X136046983Y-58267455D01*
X135892722Y-58364384D01*
X135892718Y-58364387D01*
X135763889Y-58493216D01*
X135763886Y-58493220D01*
X135666957Y-58647481D01*
X135647873Y-58702019D01*
X135632812Y-58745062D01*
X135582659Y-58830085D01*
X135503784Y-58889445D01*
X135408198Y-58914102D01*
X135394011Y-58914500D01*
X135322266Y-58914500D01*
X135209770Y-58929311D01*
X135209759Y-58929314D01*
X135069772Y-58987299D01*
X135069763Y-58987304D01*
X134949549Y-59079548D01*
X134949548Y-59079549D01*
X134857304Y-59199763D01*
X134857299Y-59199772D01*
X134799314Y-59339759D01*
X134799313Y-59339763D01*
X134779534Y-59490000D01*
X134799313Y-59640236D01*
X134799313Y-59640237D01*
X134816428Y-59681556D01*
X134837961Y-59733541D01*
X134850539Y-59763905D01*
X134869798Y-59860724D01*
X134850540Y-59957543D01*
X134795697Y-60039623D01*
X134757361Y-60071085D01*
X134747271Y-60077826D01*
X134593789Y-60203786D01*
X134593786Y-60203789D01*
X134467827Y-60357270D01*
X134467822Y-60357278D01*
X134374224Y-60532388D01*
X134333693Y-60665999D01*
X134333693Y-60666000D01*
X135150349Y-60666000D01*
X135104390Y-60694457D01*
X135036799Y-60783962D01*
X135006105Y-60891840D01*
X135016454Y-61003521D01*
X135066448Y-61103922D01*
X135143318Y-61174000D01*
X134333693Y-61174000D01*
X133056307Y-61174000D01*
X132239651Y-61174000D01*
X132285610Y-61145543D01*
X132353201Y-61056038D01*
X132383895Y-60948160D01*
X132373546Y-60836479D01*
X132323552Y-60736078D01*
X132246682Y-60666000D01*
X133056307Y-60666000D01*
X133056306Y-60665999D01*
X133015775Y-60532388D01*
X132922177Y-60357278D01*
X132922172Y-60357270D01*
X132796213Y-60203789D01*
X132796210Y-60203786D01*
X132642729Y-60077827D01*
X132642721Y-60077822D01*
X132467611Y-59984224D01*
X132277606Y-59926586D01*
X132129519Y-59912000D01*
X131934000Y-59912000D01*
X131934000Y-60620000D01*
X131426000Y-60620000D01*
X131426000Y-59912000D01*
X131230480Y-59912000D01*
X131082393Y-59926586D01*
X130892388Y-59984224D01*
X130717278Y-60077822D01*
X130717270Y-60077827D01*
X130563789Y-60203786D01*
X130563786Y-60203789D01*
X130437827Y-60357270D01*
X130437822Y-60357278D01*
X130344224Y-60532388D01*
X130303693Y-60665999D01*
X130303693Y-60666000D01*
X131120349Y-60666000D01*
X131074390Y-60694457D01*
X131006799Y-60783962D01*
X130976105Y-60891840D01*
X130986454Y-61003521D01*
X131036448Y-61103922D01*
X131113318Y-61174000D01*
X130303693Y-61174000D01*
X129200500Y-61174000D01*
X129200500Y-52534000D01*
X130303693Y-52534000D01*
X130344224Y-52667611D01*
X130437822Y-52842721D01*
X130437827Y-52842729D01*
X130563786Y-52996210D01*
X130563789Y-52996213D01*
X130717270Y-53122172D01*
X130717278Y-53122177D01*
X130892388Y-53215775D01*
X131082393Y-53273413D01*
X131230480Y-53287999D01*
X131230483Y-53288000D01*
X131426000Y-53288000D01*
X131426000Y-52580000D01*
X131934000Y-52580000D01*
X131934000Y-53288000D01*
X132129517Y-53288000D01*
X132129519Y-53287999D01*
X132277606Y-53273413D01*
X132467611Y-53215775D01*
X132642721Y-53122177D01*
X132642729Y-53122172D01*
X132796210Y-52996213D01*
X132796213Y-52996210D01*
X132922172Y-52842729D01*
X132922177Y-52842721D01*
X133015775Y-52667611D01*
X133056307Y-52534000D01*
X134333693Y-52534000D01*
X134374224Y-52667611D01*
X134467822Y-52842721D01*
X134467827Y-52842729D01*
X134593786Y-52996210D01*
X134593789Y-52996213D01*
X134747276Y-53122177D01*
X134757353Y-53128910D01*
X134827157Y-53198711D01*
X134864936Y-53289912D01*
X134864938Y-53388627D01*
X134850539Y-53436093D01*
X134799314Y-53559759D01*
X134799313Y-53559763D01*
X134779534Y-53710000D01*
X134799313Y-53860236D01*
X134799314Y-53860240D01*
X134857299Y-54000227D01*
X134857301Y-54000230D01*
X134857302Y-54000233D01*
X134949549Y-54120451D01*
X135069767Y-54212698D01*
X135209764Y-54270687D01*
X135209768Y-54270687D01*
X135209770Y-54270688D01*
X135322266Y-54285499D01*
X135322278Y-54285499D01*
X135322280Y-54285500D01*
X135322281Y-54285500D01*
X135397719Y-54285500D01*
X135397720Y-54285500D01*
X135397720Y-54285499D01*
X135405992Y-54284958D01*
X135406159Y-54287520D01*
X135488729Y-54292876D01*
X135577294Y-54336476D01*
X135642433Y-54410649D01*
X135662218Y-54453739D01*
X135696956Y-54553013D01*
X135696957Y-54553015D01*
X135793889Y-54707281D01*
X135922719Y-54836111D01*
X136076985Y-54933043D01*
X136248953Y-54993217D01*
X136411665Y-55011550D01*
X136429999Y-55013616D01*
X136430000Y-55013616D01*
X136430001Y-55013616D01*
X136446648Y-55011740D01*
X136611047Y-54993217D01*
X136783015Y-54933043D01*
X136937281Y-54836111D01*
X137066111Y-54707281D01*
X137163043Y-54553015D01*
X137216585Y-54400000D01*
X143486496Y-54400000D01*
X143506458Y-54589930D01*
X143565473Y-54771558D01*
X143660960Y-54936945D01*
X143788744Y-55078864D01*
X143788748Y-55078867D01*
X143943247Y-55191117D01*
X143943248Y-55191118D01*
X144117712Y-55268794D01*
X144117717Y-55268795D01*
X144117720Y-55268796D01*
X144304508Y-55308499D01*
X144304513Y-55308500D01*
X144304515Y-55308500D01*
X144495485Y-55308500D01*
X144495487Y-55308500D01*
X144682288Y-55268794D01*
X144856752Y-55191118D01*
X145011253Y-55078866D01*
X145139040Y-54936944D01*
X145234527Y-54771556D01*
X145293542Y-54589928D01*
X145313504Y-54400000D01*
X145293542Y-54210072D01*
X145234527Y-54028444D01*
X145234526Y-54028443D01*
X145234526Y-54028441D01*
X145139039Y-53863054D01*
X145011255Y-53721135D01*
X145011251Y-53721132D01*
X144856752Y-53608882D01*
X144856753Y-53608882D01*
X144682288Y-53531206D01*
X144682279Y-53531203D01*
X144495491Y-53491500D01*
X144495487Y-53491500D01*
X144304513Y-53491500D01*
X144304508Y-53491500D01*
X144117720Y-53531203D01*
X144117711Y-53531206D01*
X143943246Y-53608882D01*
X143788748Y-53721132D01*
X143788744Y-53721135D01*
X143660960Y-53863054D01*
X143565473Y-54028441D01*
X143506458Y-54210069D01*
X143486496Y-54400000D01*
X137216585Y-54400000D01*
X137223217Y-54381047D01*
X137243616Y-54200000D01*
X137223217Y-54018953D01*
X137163043Y-53846985D01*
X137127939Y-53791118D01*
X137066113Y-53692722D01*
X137066110Y-53692718D01*
X136937281Y-53563889D01*
X136926171Y-53555029D01*
X136927708Y-53553101D01*
X136871026Y-53499506D01*
X136830711Y-53409398D01*
X136827948Y-53310721D01*
X136863157Y-53218498D01*
X136930979Y-53146769D01*
X136958113Y-53129985D01*
X136972726Y-53122174D01*
X136972729Y-53122172D01*
X137121596Y-53000000D01*
X149436496Y-53000000D01*
X149456458Y-53189930D01*
X149515473Y-53371558D01*
X149610960Y-53536945D01*
X149738744Y-53678864D01*
X149738748Y-53678867D01*
X149893247Y-53791117D01*
X149893248Y-53791118D01*
X150067712Y-53868794D01*
X150067717Y-53868795D01*
X150067720Y-53868796D01*
X150254508Y-53908499D01*
X150254513Y-53908500D01*
X150254515Y-53908500D01*
X150445485Y-53908500D01*
X150445487Y-53908500D01*
X150632288Y-53868794D01*
X150806752Y-53791118D01*
X150961253Y-53678866D01*
X151089040Y-53536944D01*
X151184527Y-53371556D01*
X151243542Y-53189928D01*
X151263504Y-53000000D01*
X151243542Y-52810072D01*
X151184527Y-52628444D01*
X151184526Y-52628443D01*
X151184526Y-52628441D01*
X151089039Y-52463054D01*
X150961255Y-52321135D01*
X150961251Y-52321132D01*
X150806752Y-52208882D01*
X150806753Y-52208882D01*
X150632288Y-52131206D01*
X150632279Y-52131203D01*
X150445491Y-52091500D01*
X150445487Y-52091500D01*
X150254513Y-52091500D01*
X150254508Y-52091500D01*
X150067720Y-52131203D01*
X150067711Y-52131206D01*
X149893246Y-52208882D01*
X149738748Y-52321132D01*
X149738744Y-52321135D01*
X149610960Y-52463054D01*
X149515473Y-52628441D01*
X149456458Y-52810069D01*
X149436496Y-53000000D01*
X137121596Y-53000000D01*
X137126210Y-52996213D01*
X137126213Y-52996210D01*
X137252172Y-52842729D01*
X137252177Y-52842721D01*
X137345775Y-52667611D01*
X137386307Y-52534000D01*
X136569651Y-52534000D01*
X136615610Y-52505543D01*
X136683201Y-52416038D01*
X136713895Y-52308160D01*
X136703546Y-52196479D01*
X136653552Y-52096078D01*
X136576682Y-52026000D01*
X137386307Y-52026000D01*
X137386306Y-52025999D01*
X137354151Y-51920001D01*
X151986384Y-51920001D01*
X152006783Y-52101046D01*
X152066957Y-52273016D01*
X152158331Y-52418436D01*
X152163889Y-52427281D01*
X152292719Y-52556111D01*
X152446985Y-52653043D01*
X152618953Y-52713217D01*
X152781665Y-52731550D01*
X152799999Y-52733616D01*
X152800000Y-52733616D01*
X152800001Y-52733616D01*
X152816648Y-52731740D01*
X152981047Y-52713217D01*
X153153015Y-52653043D01*
X153307281Y-52556111D01*
X153436111Y-52427281D01*
X153533043Y-52273015D01*
X153593217Y-52101047D01*
X153604602Y-52000000D01*
X156036496Y-52000000D01*
X156056458Y-52189930D01*
X156115473Y-52371558D01*
X156210960Y-52536945D01*
X156338744Y-52678864D01*
X156338748Y-52678867D01*
X156493247Y-52791117D01*
X156493248Y-52791118D01*
X156667712Y-52868794D01*
X156667717Y-52868795D01*
X156667720Y-52868796D01*
X156854508Y-52908499D01*
X156854513Y-52908500D01*
X156854515Y-52908500D01*
X157045485Y-52908500D01*
X157045487Y-52908500D01*
X157232288Y-52868794D01*
X157406752Y-52791118D01*
X157561253Y-52678866D01*
X157689040Y-52536944D01*
X157784527Y-52371556D01*
X157843542Y-52189928D01*
X157863504Y-52000000D01*
X157843542Y-51810072D01*
X157784527Y-51628444D01*
X157784526Y-51628443D01*
X157784526Y-51628441D01*
X157689039Y-51463054D01*
X157561255Y-51321135D01*
X157561251Y-51321132D01*
X157406752Y-51208882D01*
X157406753Y-51208882D01*
X157232288Y-51131206D01*
X157232279Y-51131203D01*
X157045491Y-51091500D01*
X157045487Y-51091500D01*
X156854513Y-51091500D01*
X156854508Y-51091500D01*
X156667720Y-51131203D01*
X156667711Y-51131206D01*
X156493246Y-51208882D01*
X156338748Y-51321132D01*
X156338744Y-51321135D01*
X156210960Y-51463054D01*
X156115473Y-51628441D01*
X156056458Y-51810069D01*
X156036496Y-52000000D01*
X153604602Y-52000000D01*
X153613616Y-51920000D01*
X153593217Y-51738953D01*
X153533043Y-51566985D01*
X153520269Y-51546656D01*
X153436113Y-51412722D01*
X153436110Y-51412718D01*
X153307281Y-51283889D01*
X153307277Y-51283886D01*
X153153016Y-51186957D01*
X153067030Y-51156870D01*
X152981047Y-51126783D01*
X152890523Y-51116583D01*
X152800001Y-51106384D01*
X152799999Y-51106384D01*
X152618953Y-51126783D01*
X152446983Y-51186957D01*
X152292722Y-51283886D01*
X152292718Y-51283889D01*
X152163889Y-51412718D01*
X152163886Y-51412722D01*
X152066957Y-51566983D01*
X152006783Y-51738953D01*
X151986384Y-51919998D01*
X151986384Y-51920001D01*
X137354151Y-51920001D01*
X137345775Y-51892388D01*
X137252177Y-51717278D01*
X137252172Y-51717270D01*
X137126213Y-51563789D01*
X137126210Y-51563786D01*
X136972729Y-51437827D01*
X136972721Y-51437822D01*
X136797611Y-51344224D01*
X136607606Y-51286586D01*
X136459519Y-51272000D01*
X136114000Y-51272000D01*
X136114000Y-51980000D01*
X135606000Y-51980000D01*
X135606000Y-51272000D01*
X135260480Y-51272000D01*
X135112393Y-51286586D01*
X134922388Y-51344224D01*
X134747278Y-51437822D01*
X134747270Y-51437827D01*
X134593789Y-51563786D01*
X134593786Y-51563789D01*
X134467827Y-51717270D01*
X134467822Y-51717278D01*
X134374224Y-51892388D01*
X134333693Y-52025999D01*
X134333693Y-52026000D01*
X135150349Y-52026000D01*
X135104390Y-52054457D01*
X135036799Y-52143962D01*
X135006105Y-52251840D01*
X135016454Y-52363521D01*
X135066448Y-52463922D01*
X135143318Y-52534000D01*
X134333693Y-52534000D01*
X133056307Y-52534000D01*
X132239651Y-52534000D01*
X132285610Y-52505543D01*
X132353201Y-52416038D01*
X132383895Y-52308160D01*
X132373546Y-52196479D01*
X132323552Y-52096078D01*
X132246682Y-52026000D01*
X133056307Y-52026000D01*
X133056306Y-52025999D01*
X133015775Y-51892388D01*
X132922177Y-51717278D01*
X132922172Y-51717270D01*
X132796213Y-51563789D01*
X132796210Y-51563786D01*
X132642729Y-51437827D01*
X132642721Y-51437822D01*
X132467611Y-51344224D01*
X132277606Y-51286586D01*
X132129519Y-51272000D01*
X131934000Y-51272000D01*
X131934000Y-51980000D01*
X131426000Y-51980000D01*
X131426000Y-51272000D01*
X131230480Y-51272000D01*
X131082393Y-51286586D01*
X130892388Y-51344224D01*
X130717278Y-51437822D01*
X130717270Y-51437827D01*
X130563789Y-51563786D01*
X130563786Y-51563789D01*
X130437827Y-51717270D01*
X130437822Y-51717278D01*
X130344224Y-51892388D01*
X130303693Y-52025999D01*
X130303693Y-52026000D01*
X131120349Y-52026000D01*
X131074390Y-52054457D01*
X131006799Y-52143962D01*
X130976105Y-52251840D01*
X130986454Y-52363521D01*
X131036448Y-52463922D01*
X131113318Y-52534000D01*
X130303693Y-52534000D01*
X129200500Y-52534000D01*
X129200500Y-52004136D01*
X129200771Y-51995861D01*
X129215352Y-51773390D01*
X129217511Y-51756988D01*
X129260197Y-51542392D01*
X129264480Y-51526404D01*
X129334812Y-51319214D01*
X129341149Y-51303918D01*
X129437920Y-51107684D01*
X129446194Y-51093353D01*
X129567764Y-50911413D01*
X129577821Y-50898307D01*
X129722100Y-50733787D01*
X129733787Y-50722100D01*
X129898307Y-50577821D01*
X129911413Y-50567764D01*
X130093353Y-50446194D01*
X130107684Y-50437920D01*
X130303923Y-50341146D01*
X130319214Y-50334812D01*
X130526404Y-50264480D01*
X130542394Y-50260197D01*
X130756988Y-50217511D01*
X130773390Y-50215352D01*
X130995868Y-50200770D01*
X131004138Y-50200500D01*
X131039882Y-50200500D01*
X167960118Y-50200500D01*
X167995862Y-50200500D01*
X168004131Y-50200770D01*
G37*
%TD.AperFunction*%
%TD*%
M02*
